SplineFontDB: 3.2
FontName: Untitled1
FullName: Untitled1
FamilyName: Untitled1
Weight: Regular
Copyright: Copyright (c) 2023, Dell
UComments: "2023-12-25: Created with FontForge (http://fontforge.org)"
Version: 001.000
ItalicAngle: 0
UnderlinePosition: -100
UnderlineWidth: 50
Ascent: 800
Descent: 200
InvalidEm: 0
LayerCount: 2
Layer: 0 0 "Back" 1
Layer: 1 0 "Fore" 0
XUID: [1021 562 969387525 31403]
OS2Version: 0
OS2_WeightWidthSlopeOnly: 0
OS2_UseTypoMetrics: 1
CreationTime: 1703506701
ModificationTime: 1703506705
OS2TypoAscent: 0
OS2TypoAOffset: 1
OS2TypoDescent: 0
OS2TypoDOffset: 1
OS2TypoLinegap: 0
OS2WinAscent: 0
OS2WinAOffset: 1
OS2WinDescent: 0
OS2WinDOffset: 1
HheadAscent: 0
HheadAOffset: 1
HheadDescent: 0
HheadDOffset: 1
OS2Vendor: 'PfEd'
DEI: 91125
Encoding: ISO8859-1
UnicodeInterp: none
NameList: AGL For New Fonts
DisplaySize: -48
AntiAlias: 1
FitToEm: 0
BeginChars: 265 188

StartChar: d
Encoding: 100 100 0
Width: 1000
Flags: H
LayerCount: 2
Fore
SplineSet
623.142578125 404.857421875 m 1
 622.857421875 405.142578125 l 1
 640.571289062 336.571289062 647.142578125 259.142578125 633.428710938 189.428710938 c 0
 611.713867188 76.857421875 506.286132812 -32.857421875 382 10.2861328125 c 0
 360.286132812 17.7138671875 369.713867188 51.7138671875 391.428710938 44.2861328125 c 0
 453.142578125 22.857421875 518.857421875 49.7138671875 557.142578125 100.286132812 c 0
 597.713867188 153.713867188 607.428710938 222.571289062 604 287.713867188 c 0
 600.857421875 348 596.857421875 435.142578125 538 469.713867188 c 0
 482.571289062 502 416.286132812 474.857421875 391.713867188 418.571289062 c 0
 382.571289062 397.713867188 352 415.713867188 360.857421875 436.286132812 c 0
 385.713867188 493.428710938 448 527.713867188 510.286132812 516.857421875 c 0
 569.428710938 506.286132812 608.857421875 460.571289062 623.142578125 404.857421875 c 1
EndSplineSet
EndChar

StartChar: e
Encoding: 101 101 1
Width: 1000
Flags: H
LayerCount: 2
Fore
SplineSet
631.142578125 85.4287109375 m 0
 650 97.4287109375 667.142578125 67.142578125 648.571289062 55.142578125 c 0
 592 18 522.857421875 -12.2861328125 454.857421875 9.4287109375 c 0
 398 27.7138671875 362 80 355.713867188 139.142578125 c 0
 348 210.286132812 382.571289062 277.142578125 423.713867188 332 c 0
 459.713867188 380 499.428710938 425.713867188 538.857421875 471.428710938 c 1
 481.142578125 457.428710938 423.142578125 443.428710938 365.142578125 429.428710938 c 0
 343.713867188 424.286132812 334.571289062 458 356 463.142578125 c 0
 431.428710938 481.428710938 506.857421875 499.713867188 582.286132812 518 c 0
 599.713867188 522.286132812 610.286132812 502 599.142578125 488.857421875 c 0
 557.428710938 439.713867188 515.428710938 390.571289062 474.286132812 340.857421875 c 0
 436 294.286132812 397.428710938 241.142578125 390 178.857421875 c 0
 383.428710938 122.571289062 407.713867188 61.7138671875 464 43.4287109375 c 0
 523.142578125 24 582.571289062 53.4287109375 631.142578125 85.4287109375 c 0
EndSplineSet
EndChar

StartChar: f
Encoding: 102 102 2
Width: 1000
Flags: H
LayerCount: 2
Fore
SplineSet
698 441.142578125 m 1
 698.571289062 440.571289062 l 1
 580.571289062 504 412 508.857421875 330 380.857421875 c 0
 260.571289062 272.857421875 307.713867188 141.142578125 410.286132812 78.857421875 c 0
 461.713867188 47.7138671875 532 24.5712890625 591.428710938 36.5712890625 c 0
 659.713867188 50.2861328125 688 113.428710938 672.286132812 180.857421875 c 0
 658.857421875 238.857421875 626 298.286132812 576.571289062 330 c 0
 543.713867188 351.142578125 501.428710938 358.857421875 465.428710938 346.286132812 c 1
 497.142578125 349.713867188 531.713867188 337.428710938 548.571289062 308 c 0
 568.286132812 273.713867188 556.571289062 231.713867188 523.142578125 212.571289062 c 0
 489.142578125 193.428710938 434 198 400.857421875 218.571289062 c 0
 388.857421875 226 380.857421875 236.286132812 376 248 c 0
 372.571289062 251.713867188 370.857421875 256.571289062 372 262.571289062 c 0
 369.428710938 277.142578125 371.142578125 292.857421875 376.571289062 307.428710938 c 0
 389.428710938 341.713867188 419.142578125 366.571289062 451.428710938 379.142578125 c 0
 526.571289062 408.571289062 606.286132812 366.571289062 652.286132812 304 c 0
 697.142578125 243.142578125 731.142578125 149.428710938 696.286132812 75.4287109375 c 0
 656.857421875 -8.2861328125 556.286132812 -9.142578125 481.428710938 11.142578125 c 0
 406 31.7138671875 335.142578125 77.7138671875 294.571289062 148.857421875 c 0
 254.571289062 219.142578125 251.713867188 303.428710938 287.713867188 376.286132812 c 0
 323.713867188 449.142578125 393.428710938 498 469.142578125 514.286132812 c 0
 553.713867188 532.571289062 639.428710938 512.571289062 715.142578125 471.713867188 c 0
 734.286132812 461.142578125 717.142578125 430.857421875 698 441.142578125 c 1
524 266 m 0
 531.713867188 303.428710938 485.142578125 317.142578125 458.571289062 310 c 0
 434.571289062 303.428710938 416.286132812 284.857421875 407.142578125 261.142578125 c 0
 413.428710938 249.428710938 426 244.286132812 438 241.428710938 c 0
 463.142578125 235.142578125 516.571289062 228.857421875 524 266 c 0
EndSplineSet
EndChar

StartChar: g
Encoding: 103 103 3
Width: 1000
Flags: H
LayerCount: 2
Fore
SplineSet
640.571289062 668.286132812 m 1
 640.571289062 668 l 1
 771.713867188 590.286132812 812.571289062 390 777.142578125 249.713867188 c 0
 743.713867188 116.857421875 629.428710938 4.857421875 490.571289062 0.857421875 c 0
 344.571289062 -3.4287109375 215.428710938 112.286132812 208.571289062 262 c 0
 202 406.571289062 330.286132812 542 476 491.428710938 c 0
 496.857421875 484.286132812 488 450.286132812 466.857421875 457.713867188 c 0
 393.713867188 483.142578125 314.286132812 451.713867188 273.713867188 385.142578125 c 0
 237.713867188 326 234.286132812 251.142578125 259.713867188 187.142578125 c 0
 310 60 460 1.4287109375 582.286132812 57.4287109375 c 0
 693.428710938 108.286132812 754.857421875 228.571289062 754.857421875 349.428710938 c 0
 754.571289062 417.142578125 737.713867188 486.286132812 706.286132812 546 c 0
 673.713867188 607.713867188 623.142578125 647.142578125 556.571289062 665.142578125 c 0
 443.428710938 696 310.286132812 677.713867188 225.713867188 590.286132812 c 0
 210.286132812 574.286132812 186 599.142578125 201.428710938 615.142578125 c 0
 309.713867188 727.428710938 508 746.857421875 640.571289062 668.286132812 c 1
EndSplineSet
EndChar

StartChar: h
Encoding: 104 104 4
Width: 1000
Flags: H
LayerCount: 2
Fore
SplineSet
809.142578125 326.571289062 m 1
 808.571289062 326.857421875 l 1
 835.428710938 251.713867188 815.142578125 161.142578125 771.428710938 96.2861328125 c 0
 731.142578125 36.5712890625 662.286132812 -11.7138671875 587.142578125 7.7138671875 c 0
 538 20.5712890625 513.428710938 57.142578125 499.713867188 100 c 1
 478 40.5712890625 437.428710938 -7.7138671875 361.713867188 2.857421875 c 0
 284.857421875 13.7138671875 216.286132812 70.2861328125 184.571289062 140 c 0
 151.713867188 212.286132812 158.857421875 299.428710938 201.428710938 366.571289062 c 0
 245.142578125 435.713867188 327.428710938 483.142578125 407.713867188 446.857421875 c 0
 427.428710938 438 410.286132812 409.142578125 390.857421875 418 c 0
 320.286132812 450 249.428710938 390.286132812 219.428710938 329.713867188 c 0
 191.713867188 273.713867188 189.713867188 205.713867188 217.713867188 149.142578125 c 0
 244.571289062 94.857421875 296.286132812 51.142578125 356 38 c 0
 449.142578125 17.4287109375 474.286132812 109.428710938 485.713867188 180.857421875 c 0
 489.142578125 201.142578125 516.857421875 193.142578125 518.857421875 176.286132812 c 0
 524.571289062 126.571289062 533.713867188 62 588 42.5712890625 c 0
 639.142578125 24.2861328125 690.571289062 52 724.286132812 89.4287109375 c 0
 781.428710938 153.428710938 821.142578125 286.286132812 752.857421875 356.571289062 c 0
 738.571289062 371.428710938 720.857421875 380.571289062 702 386 c 0
 699.428710938 386 696.857421875 386.571289062 694.571289062 387.713867188 c 0
 666.571289062 394.286132812 636 394 608 392.857421875 c 0
 570.571289062 391.142578125 519.713867188 380.857421875 487.713867188 406.286132812 c 0
 464.571289062 424.571289062 461.713867188 454.857421875 479.142578125 478.571289062 c 0
 500.286132812 507.142578125 544.857421875 514.857421875 577.713867188 518 c 0
 644 524.286132812 722.571289062 486 721.428710938 412.857421875 c 0
 760.286132812 398.571289062 792.571289062 372.286132812 809.142578125 326.571289062 c 1
614 426.571289062 m 2
 614.286132812 426.571289062 l 2
 638.857421875 427.428710938 663.713867188 426.286132812 687.142578125 422 c 1
 679.428710938 476.286132812 610.857421875 491.428710938 561.428710938 482 c 0
 546.857421875 479.428710938 528.571289062 476 516.286132812 467.713867188 c 0
 493.142578125 452.286132812 507.713867188 428.857421875 530 425.142578125 c 0
 557.142578125 420.571289062 586.571289062 425.428710938 614 426.571289062 c 2
EndSplineSet
EndChar

StartChar: i
Encoding: 105 105 5
Width: 1000
Flags: H
LayerCount: 2
Fore
SplineSet
790 350.857421875 m 2
 790.286132812 350.286132812 l 2
 843.428710938 285.713867188 853.142578125 192.571289062 823.713867188 115.142578125 c 0
 792.286132812 32.2861328125 722.857421875 -14.857421875 635.142578125 4.5712890625 c 0
 595.142578125 13.4287109375 556 40 537.142578125 75.4287109375 c 1
 489.142578125 15.4287109375 402.571289062 -7.7138671875 330.286132812 34 c 0
 250.571289062 80 228 181.713867188 268.286132812 258.286132812 c 1
 235.428710938 248.571289062 202 239.713867188 168.286132812 232.571289062 c 0
 146 228 136.286132812 262.857421875 158.857421875 267.713867188 c 0
 220 280.571289062 280.286132812 298.286132812 338.857421875 320.571289062 c 0
 383.142578125 337.428710938 440 355.713867188 466 399.428710938 c 0
 477.142578125 418.286132812 480.857421875 442 469.713867188 461.713867188 c 0
 458.286132812 481.713867188 435.428710938 485.713867188 414.571289062 482.571289062 c 0
 390.571289062 479.142578125 368.286132812 467.713867188 348 454.857421875 c 0
 341.142578125 450.571289062 333.713867188 445.428710938 326.571289062 440 c 1
 342.857421875 431.713867188 355.142578125 416.857421875 358.286132812 396 c 0
 363.713867188 359.428710938 329.142578125 325.713867188 293.428710938 338 c 0
 264.286132812 348 253.142578125 384.571289062 261.428710938 412.571289062 c 0
 262.286132812 415.142578125 263.142578125 417.713867188 264.286132812 420 c 0
 260.571289062 429.142578125 263.142578125 441.142578125 275.142578125 444.571289062 c 0
 276.571289062 444.857421875 278.286132812 445.142578125 279.713867188 445.428710938 c 0
 295.142578125 463.428710938 316 478 334.857421875 489.428710938 c 0
 386.857421875 520.857421875 475.142578125 543.713867188 505.142578125 470.857421875 c 1
 509.713867188 476.286132812 515.142578125 481.428710938 521.428710938 485.142578125 c 0
 558.857421875 508.286132812 612 514.571289062 655.142578125 513.142578125 c 0
 692.857421875 511.713867188 734 501.713867188 758.571289062 470 c 0
 779.428710938 443.142578125 784 404.857421875 765.142578125 375.713867188 c 0
 774 368 782.571289062 360 790 350.857421875 c 2
318.571289062 376.857421875 m 1
 318.286132812 376.857421875 l 1
 326.571289062 385.428710938 322 399.142578125 313.713867188 405.713867188 c 0
 309.428710938 409.142578125 304.857421875 410.857421875 299.713867188 411.142578125 c 0
 298.571289062 409.428710938 297.142578125 407.428710938 296.286132812 405.428710938 c 0
 290.571289062 391.142578125 300.857421875 358.286132812 318.571289062 376.857421875 c 1
542.286132812 455.713867188 m 1
 542.571289062 455.713867188 l 1
 526.286132812 446.571289062 517.428710938 424.857421875 538.286132812 415.428710938 c 0
 551.713867188 409.428710938 566.286132812 412.857421875 580 415.713867188 c 0
 618.857421875 424 654.857421875 428.286132812 693.713867188 415.713867188 c 0
 708.286132812 411.142578125 722.286132812 404.286132812 735.428710938 396.571289062 c 1
 749.713867188 422 734.571289062 450.857421875 710.286132812 464 c 0
 686.286132812 477.142578125 657.428710938 478 631.142578125 476.571289062 c 0
 602.286132812 474.857421875 568 470.286132812 542.286132812 455.713867188 c 1
784 114.286132812 m 0
 824.286132812 199.713867188 803.428710938 311.713867188 721.428710938 362.857421875 c 0
 682.857421875 386.857421875 641.142578125 392.571289062 597.428710938 382.571289062 c 0
 565.428710938 375.428710938 527.713867188 370.286132812 503.428710938 396 c 1
 485.713867188 356.857421875 443.713867188 326.857421875 405.428710938 309.713867188 c 0
 380.286132812 298.571289062 354.857421875 288.571289062 328.857421875 279.142578125 c 0
 263.428710938 219.713867188 269.142578125 111.142578125 347.713867188 66 c 0
 416 26.857421875 495.428710938 60.857421875 525.713867188 127.713867188 c 0
 526.857421875 140.571289062 530.857421875 153.713867188 538.286132812 167.142578125 c 0
 548.857421875 186.286132812 574 172.286132812 570.857421875 153.142578125 c 0
 568.857421875 140.571289062 565.142578125 128.571289062 560.571289062 117.428710938 c 0
 561.713867188 76.5712890625 610 46.857421875 648 39.4287109375 c 0
 710 27.142578125 757.713867188 58.2861328125 784 114.286132812 c 0
EndSplineSet
EndChar

StartChar: j
Encoding: 106 106 6
Width: 1000
Flags: H
LayerCount: 2
Fore
SplineSet
651.428710938 652 m 2
 651.713867188 652 l 2
 773.713867188 563.713867188 819.428710938 401.713867188 789.713867188 253.428710938 c 0
 775.713867188 183.713867188 745.713867188 113.142578125 693.713867188 66 c 0
 643.713867188 20.857421875 577.142578125 -0.5712890625 511.713867188 0.5712890625 c 0
 398 2.5712890625 204.286132812 80.857421875 208.571289062 227.428710938 c 0
 210.571289062 295.428710938 254.286132812 353.713867188 311.142578125 382.857421875 c 0
 313.428710938 384 315.428710938 384.571289062 317.713867188 385.713867188 c 1
 300.286132812 393.713867188 286.286132812 409.713867188 282.286132812 433.142578125 c 0
 268.571289062 514 378.571289062 543.428710938 434.857421875 534.286132812 c 0
 503.142578125 523.428710938 551.428710938 454.286132812 544.571289062 382.857421875 c 0
 543.428710938 370.857421875 534.857421875 364 523.428710938 366 c 0
 449.142578125 379.713867188 364.857421875 384.571289062 300.286132812 335.713867188 c 0
 236.571289062 287.713867188 222.571289062 200.286132812 276.286132812 138.571289062 c 0
 354.571289062 48.5712890625 507.142578125 8.2861328125 614.571289062 55.7138671875 c 0
 730.857421875 106.857421875 774.286132812 256.857421875 764 379.428710938 c 0
 753.142578125 508.571289062 673.713867188 621.142578125 556 662.857421875 c 0
 438 704.571289062 313.142578125 672.571289062 211.713867188 601.713867188 c 0
 193.713867188 589.142578125 177.142578125 619.713867188 194.857421875 632 c 0
 330 726.286132812 512.286132812 752.571289062 651.428710938 652 c 2
315.428710938 456.286132812 m 1
 315.713867188 456.571289062 l 1
 309.713867188 445.428710938 311.428710938 433.142578125 328 420.857421875 c 0
 351.142578125 403.713867188 382.571289062 426.571289062 369.713867188 455.428710938 c 0
 360.286132812 476.286132812 336 476.571289062 321.428710938 460.571289062 c 0
 319.428710938 458.571289062 317.428710938 457.142578125 315.428710938 456.286132812 c 1
377.713867188 496.571289062 m 2
 377.713867188 496.286132812 l 2
 398.571289062 483.428710938 412 458.857421875 404.857421875 427.428710938 c 0
 403.142578125 420 400.286132812 413.713867188 396.857421875 408 c 1
 434.571289062 412.286132812 473.142578125 409.428710938 511.142578125 403.428710938 c 1
 506.857421875 469.713867188 448.571289062 510.286132812 384.571289062 498.286132812 c 0
 382.571289062 498 380.286132812 497.428710938 377.713867188 496.571289062 c 2
EndSplineSet
EndChar

StartChar: k
Encoding: 107 107 7
Width: 1000
Flags: H
LayerCount: 2
Fore
SplineSet
756 374.286132812 m 2
 757.428710938 374.857421875 l 2
 796.286132812 302.286132812 820 205.713867188 797.713867188 124.286132812 c 0
 779.713867188 58.5712890625 727.142578125 5.4287109375 658.857421875 -0.5712890625 c 0
 637.142578125 -2.5712890625 637.142578125 32 658.857421875 34 c 0
 776.857421875 44.5712890625 782 192.571289062 757.713867188 280 c 0
 731.713867188 373.713867188 666.286132812 473.142578125 557.713867188 461.142578125 c 0
 534.857421875 458.571289062 514 451.713867188 494.571289062 442.286132812 c 1
 507.713867188 427.713867188 519.428710938 411.428710938 530 394.857421875 c 0
 561.142578125 345.713867188 590.286132812 289.428710938 602 231.713867188 c 0
 623.713867188 123.428710938 557.142578125 20.5712890625 448 4.2861328125 c 0
 338.571289062 -12 241.428710938 60.857421875 197.713867188 158.857421875 c 0
 191.142578125 173.142578125 205.428710938 193.142578125 220.857421875 182.571289062 c 0
 272.857421875 147.713867188 300.571289062 242 314.571289062 274.571289062 c 0
 333.428710938 318.286132812 356 360.857421875 386.286132812 397.713867188 c 0
 401.428710938 416.286132812 419.428710938 433.142578125 438.857421875 447.713867188 c 1
 432.857421875 452.286132812 427.142578125 456.857421875 420.571289062 460.857421875 c 0
 385.713867188 481.713867188 335.713867188 492.857421875 298.571289062 471.713867188 c 1
 302.571289062 471.428710938 306.571289062 470.571289062 310.571289062 469.428710938 c 0
 332 462.857421875 346.286132812 442.571289062 346 419.713867188 c 0
 344.857421875 368.286132812 279.713867188 353.142578125 248.857421875 388.857421875 c 0
 240 399.142578125 235.713867188 410.571289062 234.571289062 422.286132812 c 0
 228.571289062 429.713867188 227.142578125 442 237.142578125 449.428710938 c 0
 237.428710938 449.428710938 237.428710938 449.428710938 237.428710938 449.428710938 c 2
 243.428710938 468 256.286132812 485.142578125 272.571289062 496.286132812 c 0
 312.857421875 524.286132812 367.428710938 521.428710938 411.142578125 503.428710938 c 0
 432.286132812 494.571289062 451.142578125 482 468.286132812 467.142578125 c 0
 502.286132812 486.286132812 540.571289062 497.428710938 580 496.286132812 c 0
 657.142578125 493.713867188 720.286132812 441.142578125 756 374.286132812 c 2
298.286132812 403.428710938 m 0
 326.571289062 414 303.713867188 439.713867188 285.428710938 436.571289062 c 0
 279.142578125 435.713867188 273.428710938 432.857421875 268 429.428710938 c 0
 269.142578125 413.428710938 279.713867188 396.571289062 298.286132812 403.428710938 c 0
506.857421875 364.857421875 m 2
 506.571289062 364.857421875 l 2
 494 386 479.713867188 406 463.142578125 424 c 0
 414 388.571289062 378 333.713867188 352.286132812 278.571289062 c 0
 334.571289062 240.857421875 324 193.142578125 292.857421875 163.713867188 c 0
 279.428710938 150.857421875 261.713867188 143.142578125 244 141.713867188 c 1
 285.142578125 76.2861328125 352.857421875 29.4287109375 433.142578125 36.857421875 c 0
 531.142578125 46 588.571289062 137.428710938 565.713867188 232 c 0
 554.286132812 278.857421875 531.428710938 323.713867188 506.857421875 364.857421875 c 2
EndSplineSet
EndChar

StartChar: l
Encoding: 108 108 8
Width: 1000
Flags: H
LayerCount: 2
Fore
SplineSet
777.142578125 436.571289062 m 2
 776.857421875 436.286132812 l 1
 865.713867188 308.857421875 909.713867188 84.5712890625 738 0.5712890625 c 0
 718.571289062 -9.142578125 701.142578125 19.7138671875 720.857421875 29.4287109375 c 0
 815.713867188 76 838.286132812 187.713867188 812.857421875 281.713867188 c 0
 787.142578125 376.286132812 726.571289062 494 611.428710938 482.571289062 c 0
 562.857421875 477.713867188 520.857421875 454.857421875 483.428710938 424.286132812 c 1
 500.857421875 406 517.142578125 386.857421875 532 368.857421875 c 0
 597.428710938 289.142578125 668.857421875 165.142578125 590.571289062 69.4287109375 c 0
 561.428710938 33.4287109375 511.713867188 11.7138671875 465.428710938 25.142578125 c 0
 440.571289062 32.2861328125 420.286132812 48.5712890625 407.142578125 69.4287109375 c 1
 388.571289062 32 359.142578125 2.5712890625 309.713867188 8 c 0
 254.286132812 14.2861328125 223.428710938 57.4287109375 210 106 c 1
 159.142578125 44.5712890625 l 2
 147.142578125 29.7138671875 121.428710938 49.4287109375 132.571289062 64.857421875 c 0
 203.428710938 162.286132812 279.142578125 256.286132812 359.713867188 346 c 0
 383.713867188 372.571289062 408.571289062 400.286132812 435.428710938 425.713867188 c 1
 398.571289062 460.286132812 355.428710938 487.428710938 305.142578125 479.142578125 c 0
 267.713867188 472.857421875 232 449.713867188 214.571289062 415.713867188 c 0
 210.857421875 408.286132812 208 398.857421875 206.857421875 389.428710938 c 1
 226.286132812 416.571289062 268.857421875 423.142578125 290.286132812 391.142578125 c 0
 316.286132812 352.857421875 284.571289062 305.428710938 240.286132812 306.286132812 c 0
 194.286132812 307.142578125 168 352.857421875 172.857421875 394.286132812 c 0
 178.571289062 442 218.286132812 482.286132812 261.428710938 500.857421875 c 0
 338.286132812 534.286132812 405.142578125 498.857421875 460.286132812 447.713867188 c 0
 491.713867188 474 526.286132812 495.713867188 566 507.713867188 c 0
 648.857421875 532.571289062 728 506.857421875 777.142578125 436.571289062 c 2
231.713867188 364.571289062 m 0
 229.428710938 356 222.571289062 352.857421875 215.713867188 352.857421875 c 1
 218.286132812 349.428710938 221.428710938 346.286132812 225.713867188 344 c 0
 238 336.857421875 254 338.286132812 260.286132812 351.713867188 c 0
 268.571289062 359.142578125 267.142578125 365.142578125 255.713867188 369.713867188 c 0
 247.142578125 383.713867188 239.428710938 382 231.713867188 364.571289062 c 0
493.713867188 362.857421875 m 2
 493.142578125 363.142578125 l 2
 482.286132812 375.428710938 470.857421875 389.142578125 458.286132812 402.571289062 c 1
 426.286132812 372.571289062 397.428710938 338.571289062 370.571289062 308.286132812 c 0
 324 255.713867188 279.142578125 201.713867188 236 146.571289062 c 0
 236.286132812 146 236.571289062 145.142578125 236.571289062 144.571289062 c 0
 240.857421875 98.5712890625 264.571289062 42.857421875 319.142578125 41.142578125 c 0
 367.142578125 39.7138671875 382 90.5712890625 392.286132812 127.428710938 c 0
 397.428710938 145.713867188 425.713867188 141.713867188 425.713867188 122.857421875 c 0
 425.428710938 78.2861328125 469.713867188 46 513.142578125 57.142578125 c 0
 557.428710938 68.2861328125 585.142578125 110 589.713867188 153.142578125 c 0
 598.286132812 233.428710938 543.428710938 305.428710938 493.713867188 362.857421875 c 2
EndSplineSet
EndChar

StartChar: m
Encoding: 109 109 9
Width: 1000
Flags: H
LayerCount: 2
Fore
SplineSet
692.571289062 396 m 1
 692 396 l 1
 807.142578125 338 769.713867188 152.286132812 694.857421875 74 c 0
 594 -32 434 -15.7138671875 320.571289062 60.2861328125 c 0
 268.286132812 95.7138671875 226 154.857421875 234.857421875 222 c 0
 243.428710938 286.571289062 298.571289062 332.571289062 358.571289062 345.428710938 c 0
 375.142578125 349.142578125 392 350.286132812 408.857421875 350.286132812 c 0
 423.142578125 350.286132812 446.857421875 346.857421875 452.286132812 365.142578125 c 0
 457.142578125 381.142578125 446.286132812 407.713867188 439.713867188 422 c 0
 431.713867188 439.428710938 419.713867188 455.713867188 403.713867188 466.571289062 c 0
 387.142578125 478 364.857421875 483.142578125 345.142578125 479.428710938 c 1
 373.428710938 459.142578125 378.286132812 412.857421875 351.428710938 388.857421875 c 0
 324.286132812 364.571289062 279.428710938 374.571289062 267.713867188 410.571289062 c 0
 255.713867188 448 278.571289062 487.428710938 310.571289062 505.428710938 c 0
 374 541.142578125 438.571289062 499.428710938 469.428710938 441.428710938 c 1
 488 467.142578125 517.428710938 489.713867188 542.571289062 503.713867188 c 0
 576.571289062 522.571289062 614.857421875 522.857421875 644.857421875 496 c 0
 673.428710938 470.286132812 682.571289062 432.286132812 692.571289062 396 c 1
323.428710938 413.713867188 m 2
 323.713867188 413.713867188 l 2
 332.857421875 418 336.857421875 429.713867188 332.857421875 439.428710938 c 0
 329.713867188 446.857421875 306.286132812 457.713867188 307.713867188 446.571289062 c 0
 308.571289062 439.428710938 305.713867188 433.713867188 301.428710938 429.713867188 c 0
 302.286132812 417.428710938 308.571289062 406.857421875 323.428710938 413.713867188 c 2
496 416.571289062 m 0
 482.857421875 396.571289062 486 363.142578125 516.857421875 375.713867188 c 0
 533.428710938 382.571289062 548.571289062 392.857421875 565.713867188 399.428710938 c 0
 593.142578125 409.713867188 623.428710938 414 652.286132812 409.428710938 c 1
 643.428710938 441.142578125 630.571289062 474.857421875 598.857421875 481.142578125 c 0
 563.428710938 488.286132812 514.571289062 444.571289062 496 416.571289062 c 0
638.571289062 72.857421875 m 1
 638.286132812 73.142578125 l 1
 711.142578125 124.286132812 756.857421875 237.428710938 715.713867188 323.142578125 c 0
 707.428710938 340.571289062 694.857421875 353.142578125 680.286132812 361.713867188 c 0
 674.286132812 361.142578125 668 363.428710938 664.286132812 369.142578125 c 0
 642.857421875 376.571289062 618.286132812 376.857421875 594.857421875 370.857421875 c 0
 560 361.713867188 517.713867188 321.142578125 480.571289062 340.857421875 c 0
 480 341.142578125 480 341.142578125 480 341.142578125 c 2
 474 330.286132812 464 321.713867188 448.857421875 317.428710938 c 0
 432 312.571289062 414.571289062 314.571289062 397.428710938 314 c 0
 372.286132812 313.142578125 347.142578125 307.428710938 325.142578125 294.571289062 c 0
 284.286132812 270.857421875 260.571289062 224.571289062 273.428710938 177.142578125 c 0
 286.286132812 129.142578125 325.713867188 96.857421875 367.428710938 75.4287109375 c 0
 453.142578125 31.142578125 555.142578125 14.2861328125 638.571289062 72.857421875 c 1
EndSplineSet
EndChar

StartChar: n
Encoding: 110 110 10
Width: 1000
Flags: H
LayerCount: 2
Fore
SplineSet
682.571289062 616.571289062 m 2
 682.857421875 616.286132812 l 2
 821.713867188 499.713867188 876.857421875 288 790.286132812 121.142578125 c 0
 746.286132812 36.5712890625 669.713867188 -3.142578125 578 -1.142578125 c 0
 518 0.2861328125 403.142578125 5.142578125 398 89.4287109375 c 0
 391.713867188 189.428710938 568 237.142578125 520.857421875 342.857421875 c 0
 496.857421875 397.428710938 422.857421875 391.428710938 376.286132812 380 c 0
 329.428710938 368.286132812 284.857421875 344.857421875 251.142578125 308.857421875 c 0
 229.713867188 285.713867188 214 257.713867188 205.713867188 227.428710938 c 1
 240.286132812 239.142578125 278 240.286132812 312.286132812 223.713867188 c 0
 350.857421875 205.142578125 381.428710938 166 384.857421875 121.428710938 c 0
 388.286132812 76.5712890625 361.713867188 30.857421875 320.857421875 14 c 0
 278.286132812 -3.4287109375 233.142578125 16.5712890625 204.286132812 50.5712890625 c 0
 174.286132812 85.7138671875 160.857421875 130.857421875 160.857421875 176.571289062 c 0
 153.142578125 184.571289062 151.142578125 199.428710938 162.857421875 207.428710938 c 0
 167.142578125 239.713867188 177.713867188 270.857421875 194.286132812 298 c 0
 241.713867188 375.428710938 329.428710938 419.428710938 416.286132812 426.571289062 c 0
 504.286132812 433.713867188 590.857421875 370.571289062 557.428710938 271.142578125 c 0
 540.857421875 221.428710938 502 189.428710938 467.713867188 153.428710938 c 0
 445.142578125 129.713867188 417.142578125 88.5712890625 453.428710938 62.5712890625 c 0
 469.713867188 50.857421875 492 47.4287109375 511.428710938 44.5712890625 c 0
 565.713867188 36.2861328125 627.713867188 31.7138671875 678.286132812 57.4287109375 c 0
 728.571289062 83.142578125 760 136.571289062 776.857421875 190.286132812 c 0
 809.713867188 294.857421875 791.428710938 412.857421875 732 503.713867188 c 0
 619.713867188 675.428710938 318.857421875 771.713867188 208 546.857421875 c 0
 196.857421875 524 164 544 175.142578125 566.571289062 c 0
 276.286132812 771.142578125 532 743.428710938 682.571289062 616.571289062 c 2
329.713867188 160 m 1
 329.713867188 159.713867188 l 1
 296.857421875 203.428710938 242.857421875 203.142578125 198.571289062 182.286132812 c 0
 198.286132812 179.428710938 198.286132812 176.286132812 198.286132812 173.428710938 c 0
 199.142578125 125.142578125 222.857421875 61.142578125 273.428710938 48 c 0
 337.142578125 31.4287109375 362.857421875 116 329.713867188 160 c 1
EndSplineSet
EndChar

StartChar: o
Encoding: 111 111 11
Width: 1000
Flags: H
LayerCount: 2
Fore
SplineSet
777.142578125 -15.7138671875 m 2
 776.857421875 -16.2861328125 l 2
 786.286132812 -130.571289062 681.713867188 -225.713867188 572.286132812 -194.286132812 c 0
 523.142578125 -180 476.857421875 -141.713867188 462.286132812 -90.2861328125 c 0
 453.142578125 -58 461.713867188 -33.7138671875 478.571289062 -15.142578125 c 1
 437.142578125 -15.4287109375 396 -12.5712890625 354.857421875 -5.4287109375 c 0
 309.428710938 2.2861328125 256 12.2861328125 227.713867188 53.4287109375 c 0
 168.857421875 138.857421875 252.857421875 243.713867188 321.142578125 289.713867188 c 0
 361.142578125 316.571289062 407.142578125 333.142578125 454.571289062 338.286132812 c 0
 466.857421875 340 480.857421875 337.713867188 492.857421875 340 c 0
 514.286132812 344 520.571289062 357.428710938 519.713867188 379.142578125 c 0
 518.571289062 408.857421875 503.428710938 437.713867188 481.713867188 457.142578125 c 0
 433.428710938 500.286132812 346.286132812 493.142578125 309.713867188 436.857421875 c 0
 303.142578125 426.571289062 299.142578125 414 298.286132812 401.142578125 c 1
 314.571289062 436.286132812 360 452.857421875 391.142578125 419.142578125 c 0
 424 383.428710938 400.286132812 323.142578125 356 313.142578125 c 0
 311.142578125 303.142578125 270.857421875 338.571289062 264.571289062 382.857421875 c 0
 256.857421875 437.428710938 294 484 340.286132812 505.428710938 c 0
 435.713867188 549.713867188 566.857421875 478.571289062 552.857421875 361.713867188 c 0
 550.571289062 342.571289062 543.142578125 323.142578125 526 312.857421875 c 0
 505.428710938 300.286132812 477.142578125 306.286132812 454.571289062 303.713867188 c 0
 390 296.286132812 328.286132812 262.857421875 285.713867188 212.857421875 c 0
 262.857421875 186.286132812 242 152 242.857421875 115.428710938 c 0
 244 69.4287109375 279.142578125 48.5712890625 318.286132812 38.2861328125 c 0
 390.571289062 19.4287109375 466.571289062 16.2861328125 540.571289062 23.142578125 c 0
 561.428710938 24.857421875 561.428710938 -4.5712890625 545.142578125 -11.142578125 c 0
 525.142578125 -19.4287109375 499.142578125 -29.4287109375 493.142578125 -53.4287109375 c 0
 487.428710938 -76.2861328125 502.286132812 -102.286132812 516.286132812 -118.857421875 c 0
 539.713867188 -146.286132812 575.428710938 -163.428710938 610.857421875 -165.142578125 c 0
 690.857421875 -169.142578125 749.428710938 -94.2861328125 743.142578125 -15.7138671875 c 0
 741.428710938 6.5712890625 775.428710938 6.5712890625 777.142578125 -15.7138671875 c 2
326 373.428710938 m 2
 326 373.142578125 l 2
 326 364 320.571289062 358.857421875 314 357.142578125 c 1
 318.286132812 353.428710938 323.713867188 350 330.286132812 348 c 0
 350.286132812 342.286132812 372.571289062 354 372.571289062 377.428710938 c 0
 372.571289062 412 326 406.857421875 326 373.428710938 c 2
EndSplineSet
EndChar

StartChar: p
Encoding: 112 112 12
Width: 1000
Flags: H
LayerCount: 2
Fore
SplineSet
623.428710938 659.713867188 m 1
 622.571289062 659.713867188 l 1
 721.713867188 588 783.142578125 467.713867188 784.857421875 344.857421875 c 0
 786.571289062 226.857421875 731.142578125 82.5712890625 623.713867188 23.142578125 c 0
 564.571289062 -9.7138671875 497.713867188 0 433.713867188 8.5712890625 c 0
 376.286132812 16.5712890625 316 28.2861328125 271.142578125 68 c 0
 231.428710938 102.857421875 207.142578125 158 224 210.571289062 c 0
 232.571289062 236.857421875 248.571289062 257.713867188 268 275.142578125 c 1
 216.286132812 264 165.142578125 249.713867188 117.713867188 224.286132812 c 0
 97.142578125 213.142578125 78.857421875 244.857421875 99.4287109375 255.713867188 c 0
 160.571289062 288.286132812 227.428710938 304.571289062 294.857421875 317.713867188 c 0
 308.286132812 320.286132812 321.713867188 322.571289062 335.142578125 325.142578125 c 1
 321.713867188 328.571289062 308.571289062 333.428710938 298.286132812 342.571289062 c 0
 266.286132812 371.428710938 281.713867188 418 304.857421875 447.142578125 c 0
 356.857421875 512.286132812 456.286132812 514.857421875 510.857421875 451.713867188 c 0
 534.286132812 424.857421875 554 377.428710938 526.286132812 346.286132812 c 0
 512 330 489.142578125 324.286132812 469.142578125 318.286132812 c 0
 446.857421875 311.428710938 424.286132812 306 401.428710938 301.142578125 c 0
 388.857421875 298.286132812 376.286132812 296 363.428710938 293.428710938 c 0
 314.286132812 267.428710938 248.571289062 230.571289062 256.286132812 165.428710938 c 0
 263.428710938 102.857421875 324.857421875 68.857421875 379.428710938 55.142578125 c 0
 428.857421875 42.857421875 484.857421875 34.2861328125 536 36.2861328125 c 0
 595.713867188 38.857421875 640.286132812 72 675.713867188 118.571289062 c 0
 738.571289062 202 764 312.571289062 741.428710938 414.857421875 c 0
 719.428710938 514.857421875 654.857421875 608.286132812 562.857421875 654.571289062 c 0
 509.428710938 681.428710938 453.428710938 685.142578125 395.713867188 672.286132812 c 0
 347.142578125 661.428710938 286 649.142578125 248.571289062 614.286132812 c 0
 231.428710938 598.286132812 205.713867188 624 222.857421875 640 c 0
 272.571289062 686 354.571289062 704.571289062 419.713867188 713.428710938 c 0
 493.142578125 723.713867188 563.713867188 702.857421875 623.428710938 659.713867188 c 1
378 354.857421875 m 2
 378 355.142578125 l 1
 392.857421875 354.857421875 415.428710938 366 399.713867188 383.713867188 c 0
 380 406 345.428710938 386 338.571289062 362.571289062 c 0
 351.142578125 358 365.428710938 354.857421875 378 354.857421875 c 2
320.286132812 402 m 2
 320.571289062 401.713867188 l 1
 340.571289062 424.857421875 372.571289062 436 402.857421875 424 c 0
 435.428710938 411.142578125 449.142578125 373.142578125 433.428710938 346 c 1
 447.713867188 349.713867188 462 353.713867188 476.286132812 358.571289062 c 0
 492.286132812 364 505.713867188 370.286132812 503.428710938 389.142578125 c 0
 502 402.571289062 494.286132812 415.713867188 485.713867188 426 c 0
 468.286132812 446.286132812 442.571289062 460.286132812 416 462 c 0
 388 464 360.286132812 452.286132812 340.571289062 432.571289062 c 0
 333.142578125 425.142578125 324.857421875 413.713867188 320.286132812 402 c 2
EndSplineSet
EndChar

StartChar: q
Encoding: 113 113 13
Width: 1000
Flags: H
LayerCount: 2
Fore
SplineSet
689.428710938 31.7138671875 m 1
 688.857421875 31.7138671875 l 1
 691.142578125 -89.7138671875 693.428710938 -210.857421875 695.713867188 -332 c 0
 696.286132812 -348.571289062 671.142578125 -355.428710938 662.571289062 -340.571289062 c 0
 617.428710938 -262 508.286132812 -231.142578125 420.286132812 -224.857421875 c 0
 324.857421875 -218 229.713867188 -239.428710938 147.713867188 -286.571289062 c 0
 128 -298 110 -268.571289062 129.713867188 -257.142578125 c 0
 221.713867188 -204 331.142578125 -180.571289062 438 -192.286132812 c 0
 515.428710938 -200.571289062 602.857421875 -226 659.428710938 -280.857421875 c 1
 657.713867188 -176.571289062 655.713867188 -72.5712890625 653.713867188 31.7138671875 c 0
 653.428710938 53.7138671875 689.142578125 53.7138671875 689.428710938 31.7138671875 c 1
EndSplineSet
EndChar

StartChar: r
Encoding: 114 114 14
Width: 1000
Flags: H
LayerCount: 2
Fore
SplineSet
712.571289062 299.428710938 m 1
 712.571289062 300 l 1
 728.286132812 244.571289062 715.142578125 182.857421875 687.713867188 133.428710938 c 0
 628.857421875 27.142578125 504.571289062 -24 390.857421875 12.5712890625 c 0
 275.713867188 49.4287109375 190 171.428710938 220.571289062 296.571289062 c 0
 238.286132812 370 285.713867188 439.713867188 323.428710938 503.713867188 c 0
 364.571289062 574 408.857421875 642.286132812 455.713867188 708.571289062 c 0
 469.142578125 727.428710938 500 709.142578125 486.571289062 690 c 0
 418.571289062 593.428710938 354 492.286132812 299.142578125 386.857421875 c 1
 320.857421875 398.571289062 345.428710938 406.571289062 370 411.713867188 c 0
 444.286132812 427.428710938 528.857421875 431.428710938 602 406.857421875 c 0
 653.428710938 389.428710938 697.142578125 354.286132812 712.571289062 299.428710938 c 1
641.713867188 127.713867188 m 2
 641.713867188 128.286132812 l 2
 671.142578125 168.857421875 688.857421875 222 681.428710938 272.857421875 c 0
 673.142578125 329.713867188 630.286132812 362 578.857421875 376 c 0
 522.571289062 391.142578125 460.571289062 390.571289062 403.428710938 381.142578125 c 0
 352 372.857421875 274 356.571289062 268.286132812 290.857421875 c 0
 267.428710938 281.142578125 260.857421875 275.713867188 253.713867188 274 c 0
 248.286132812 240.286132812 250.857421875 206 265.142578125 171.142578125 c 0
 286.286132812 119.428710938 326.857421875 79.142578125 376.571289062 56.5712890625 c 0
 470.286132812 14 580.571289062 43.4287109375 641.713867188 127.713867188 c 2
EndSplineSet
EndChar

StartChar: s
Encoding: 115 115 15
Width: 1000
Flags: H
LayerCount: 2
Fore
SplineSet
697.142578125 656.286132812 m 2
 697.428710938 656.286132812 l 2
 748 612.571289062 772 543.428710938 754 478.571289062 c 0
 748.286132812 458.286132812 716.286132812 466.857421875 722 487.428710938 c 0
 738.571289062 546.571289062 711.428710938 606.571289062 662.571289062 642 c 0
 614.571289062 676.857421875 553.713867188 686.571289062 495.428710938 682.286132812 c 0
 437.713867188 678 374.571289062 663.142578125 328.571289062 626 c 0
 286.571289062 592 262 537.142578125 278.857421875 484.286132812 c 0
 285.142578125 464 253.142578125 455.142578125 246.857421875 475.428710938 c 0
 227.428710938 536.571289062 252.286132812 602.571289062 299.142578125 644.286132812 c 0
 352 691.428710938 426 710.286132812 495.142578125 715.142578125 c 0
 567.142578125 720.286132812 641.713867188 704.286132812 697.142578125 656.286132812 c 2
EndSplineSet
EndChar

StartChar: t
Encoding: 116 116 16
Width: 1000
Flags: H
LayerCount: 2
Fore
SplineSet
748.571289062 635.713867188 m 1
 748.286132812 635.428710938 l 1
 863.142578125 526 902 350 846 201.713867188 c 0
 820.286132812 133.142578125 774.286132812 72.5712890625 708 38.857421875 c 0
 637.713867188 3.142578125 554.857421875 -3.142578125 477.142578125 1.4287109375 c 0
 407.142578125 5.7138671875 341.428710938 30 308 95.4287109375 c 0
 284.571289062 140.857421875 285.713867188 191.713867188 305.142578125 236 c 1
 249.142578125 217.142578125 192.857421875 200 135.713867188 184.857421875 c 0
 113.713867188 179.142578125 104.571289062 212.857421875 126.286132812 218.571289062 c 0
 192.571289062 236.286132812 258.286132812 256.286132812 323.142578125 278.857421875 c 0
 327.142578125 280.286132812 330.857421875 281.713867188 334.857421875 283.142578125 c 0
 335.142578125 283.142578125 335.428710938 283.713867188 335.428710938 283.713867188 c 2
 336 284.286132812 336.857421875 284.571289062 337.428710938 285.142578125 c 1
 318.286132812 285.428710938 298.857421875 294.286132812 286.857421875 309.142578125 c 0
 263.142578125 338.571289062 267.142578125 380.286132812 286.857421875 410.857421875 c 0
 326.286132812 472.286132812 426 506.286132812 477.713867188 439.428710938 c 0
 489.713867188 424 496 405.428710938 501.428710938 386.857421875 c 0
 506.286132812 370.286132812 511.428710938 352 506.857421875 334.571289062 c 0
 502 316.286132812 487.713867188 304.857421875 470.857421875 297.428710938 c 0
 450.571289062 288.571289062 429.428710938 280.857421875 408.571289062 272.857421875 c 0
 391.428710938 266.286132812 374 260 356.571289062 253.713867188 c 0
 309.428710938 194.857421875 317.713867188 107.142578125 382 62.857421875 c 0
 438 24.5712890625 528.286132812 30.857421875 592.857421875 40 c 0
 635.428710938 46.2861328125 677.142578125 59.7138671875 712.857421875 82.5712890625 c 1
 639.142578125 112.857421875 588.857421875 193.713867188 556.571289062 262.286132812 c 0
 519.713867188 340.571289062 500.286132812 426.571289062 500.857421875 513.142578125 c 0
 501.428710938 574.286132812 503.713867188 671.713867188 564.857421875 706.286132812 c 0
 625.713867188 740.857421875 706.571289062 675.713867188 748.571289062 635.713867188 c 1
317.428710938 393.428710938 m 1
 318 393.713867188 l 1
 316.571289062 391.713867188 315.713867188 389.713867188 314.571289062 387.713867188 c 1
 330.571289062 396.286132812 350.571289062 397.713867188 367.428710938 388 c 0
 398.286132812 370 402.571289062 322.857421875 376.571289062 298.857421875 c 0
 375.713867188 298.286132812 374.857421875 297.713867188 374 297.142578125 c 1
 384.571289062 301.142578125 395.428710938 304.857421875 406 308.857421875 c 0
 420.857421875 314.571289062 435.428710938 320.286132812 450 326.286132812 c 0
 462 331.142578125 473.428710938 335.428710938 474 350 c 0
 474.857421875 371.428710938 462.286132812 405.428710938 448.286132812 421.428710938 c 0
 432 439.713867188 404.857421875 445.142578125 381.428710938 439.428710938 c 0
 355.713867188 433.142578125 331.713867188 415.428710938 317.428710938 393.428710938 c 1
321.142578125 324.857421875 m 0
 338.571289062 312.857421875 364.571289062 324 357.142578125 346.857421875 c 0
 350.571289062 367.713867188 323.142578125 360.286132812 318.571289062 342.286132812 c 0
 317.428710938 338.286132812 315.142578125 335.428710938 312.571289062 333.428710938 c 0
 314.857421875 330.286132812 317.428710938 327.428710938 321.142578125 324.857421875 c 0
834 298.571289062 m 2
 834 298.857421875 l 2
 848.857421875 423.713867188 800.286132812 551.713867188 701.142578125 630.857421875 c 0
 677.713867188 649.713867188 648.857421875 669.142578125 619.713867188 677.713867188 c 0
 571.142578125 692 552.857421875 643.713867188 545.142578125 605.713867188 c 0
 532.571289062 543.428710938 533.142578125 477.713867188 544.286132812 415.142578125 c 0
 555.142578125 356 575.142578125 298.571289062 604.571289062 246 c 0
 634 193.428710938 674.857421875 129.713867188 735.428710938 110.571289062 c 0
 738.857421875 109.428710938 741.142578125 107.713867188 743.142578125 105.428710938 c 1
 747.428710938 109.428710938 751.713867188 113.142578125 755.713867188 117.428710938 c 0
 801.428710938 166.571289062 826.286132812 232.571289062 834 298.571289062 c 2
EndSplineSet
EndChar

StartChar: u
Encoding: 117 117 17
Width: 1000
Flags: H
LayerCount: 2
Fore
SplineSet
847.428710938 462.571289062 m 1
 847.142578125 462.857421875 l 1
 859.142578125 357.428710938 859.142578125 237.713867188 808 141.142578125 c 0
 764.286132812 58.5712890625 685.713867188 3.4287109375 588.857421875 0.857421875 c 0
 491.142578125 -2 382.286132812 10.857421875 319.142578125 90.857421875 c 0
 257.428710938 169.142578125 219.428710938 289.713867188 245.713867188 386.857421875 c 0
 268.286132812 469.713867188 346.857421875 540.571289062 440.286132812 524 c 0
 472.857421875 518.286132812 508 498.857421875 520.286132812 468 c 1
 525.713867188 472 531.428710938 475.713867188 537.713867188 478.571289062 c 0
 556.571289062 499.142578125 586.857421875 509.142578125 616.571289062 504.571289062 c 0
 717.142578125 488.857421875 735.142578125 361.142578125 686.571289062 290.857421875 c 0
 636.286132812 218 525.713867188 205.142578125 457.428710938 262.286132812 c 0
 424 290.286132812 404.286132812 336.857421875 430.857421875 375.713867188 c 0
 443.713867188 394.571289062 465.142578125 406 479.713867188 423.428710938 c 0
 510.286132812 460 459.713867188 488.857421875 426 492 c 0
 356.857421875 498.857421875 302.286132812 447.428710938 282.286132812 387.713867188 c 0
 261.142578125 324 276.571289062 255.428710938 300.857421875 194.857421875 c 0
 325.142578125 134.286132812 360.286132812 77.142578125 426 53.4287109375 c 0
 482.571289062 32.857421875 557.142578125 28 616.857421875 36 c 0
 753.428710938 54 809.713867188 194.571289062 816.857421875 312 c 0
 824.286132812 435.428710938 819.713867188 579.142578125 694.286132812 645.428710938 c 0
 570 711.428710938 424.571289062 675.428710938 296 642.571289062 c 0
 274.571289062 637.142578125 265.428710938 669.428710938 286.857421875 674.857421875 c 0
 410.857421875 706.571289062 546 739.142578125 670.857421875 692.571289062 c 0
 777.142578125 652.857421875 835.142578125 570.857421875 847.428710938 462.571289062 c 1
560.571289062 451.713867188 m 0
 553.142578125 441.428710938 550.571289062 428.286132812 558 415.713867188 c 0
 567.428710938 399.428710938 597.428710938 393.428710938 606.286132812 415.142578125 c 0
 613.142578125 432 596.571289062 449.142578125 581.713867188 452.571289062 c 0
 574.286132812 454.286132812 567.142578125 453.428710938 560.571289062 451.713867188 c 0
519.428710938 422.857421875 m 1
 519.713867188 422.857421875 l 1
 509.428710938 400.857421875 486.286132812 386 468.857421875 367.713867188 c 0
 414.571289062 311.428710938 509.142578125 260 560.286132812 260 c 0
 616 260 662.571289062 296.571289062 675.428710938 349.142578125 c 0
 685.142578125 390 663.428710938 464 616.571289062 473.142578125 c 1
 620 470.571289062 623.428710938 467.428710938 626.571289062 463.713867188 c 0
 652.857421875 431.713867188 643.428710938 380.286132812 599.713867188 369.142578125 c 0
 560.286132812 358.857421875 524.286132812 386.286132812 519.428710938 422.857421875 c 1
EndSplineSet
EndChar

StartChar: v
Encoding: 118 118 18
Width: 1000
Flags: H
LayerCount: 2
Fore
SplineSet
821.428710938 415.428710938 m 1
 821.713867188 415.713867188 l 1
 833.428710938 352.286132812 842.857421875 285.713867188 837.142578125 221.142578125 c 0
 828.571289062 124.571289062 773.142578125 17.4287109375 668.286132812 2 c 0
 603.428710938 -7.4287109375 550.571289062 27.7138671875 529.142578125 78.2861328125 c 1
 478.286132812 7.7138671875 380.857421875 -24.2861328125 296 25.7138671875 c 0
 239.713867188 58.857421875 212.286132812 120.571289062 225.428710938 184.857421875 c 0
 233.713867188 226.571289062 257.142578125 261.142578125 286.857421875 289.713867188 c 1
 248.286132812 278.286132812 210.571289062 264.571289062 173.713867188 248.857421875 c 0
 153.713867188 240.286132812 136.571289062 269.428710938 156.571289062 278 c 0
 217.428710938 304 280 325.142578125 344.286132812 340.286132812 c 0
 376.857421875 347.713867188 409.428710938 354 442.571289062 358.571289062 c 0
 456 360.571289062 475.713867188 359.142578125 487.713867188 365.713867188 c 0
 500.857421875 372.857421875 494.857421875 388.286132812 489.142578125 398.857421875 c 0
 476.286132812 422.857421875 454 446 427.428710938 454.286132812 c 0
 414.571289062 458.286132812 398.857421875 458.286132812 385.428710938 453.428710938 c 1
 400.857421875 455.428710938 417.142578125 450.571289062 428 437.428710938 c 0
 450 411.142578125 437.713867188 368.571289062 406.571289062 356 c 0
 378 344.286132812 344.857421875 357.142578125 331.142578125 384.571289062 c 0
 318.571289062 409.713867188 323.428710938 442.286132812 341.713867188 463.428710938 c 0
 362.571289062 487.428710938 396.857421875 495.142578125 427.142578125 489.142578125 c 0
 461.142578125 482.571289062 488.571289062 458.571289062 508.571289062 431.142578125 c 0
 525.428710938 407.713867188 540.857421875 372 518.571289062 346.857421875 c 0
 506.286132812 333.428710938 489.142578125 330.857421875 472 328.571289062 c 0
 452.857421875 326.286132812 433.713867188 323.713867188 414.571289062 320.286132812 c 0
 400 317.713867188 385.428710938 314.571289062 370.857421875 311.428710938 c 0
 370 310.857421875 369.428710938 310 368.571289062 309.428710938 c 0
 324 282.571289062 280.857421875 247.428710938 263.142578125 196.571289062 c 0
 244.286132812 141.713867188 262 84.857421875 312.857421875 54.857421875 c 0
 392.857421875 7.7138671875 486.571289062 50.2861328125 518.571289062 127.713867188 c 0
 518.286132812 147.713867188 522.571289062 168.286132812 532.286132812 188.571289062 c 0
 539.713867188 203.713867188 564.286132812 196.286132812 563.713867188 180 c 0
 563.142578125 158.857421875 558.571289062 139.142578125 551.713867188 120.571289062 c 0
 555.713867188 71.142578125 598 30.2861328125 653.713867188 34 c 0
 711.428710938 37.7138671875 756.857421875 82.5712890625 780.571289062 132.286132812 c 0
 808.286132812 190.571289062 807.428710938 258 801.142578125 320.857421875 c 0
 795.142578125 380.571289062 785.713867188 441.142578125 765.713867188 497.713867188 c 0
 746.857421875 551.428710938 715.428710938 603.428710938 668.571289062 637.142578125 c 0
 619.428710938 672.286132812 558 681.713867188 498.857421875 682 c 0
 379.142578125 682.857421875 254 646 180.857421875 545.428710938 c 0
 168.286132812 528 138.857421875 544.857421875 151.713867188 562.571289062 c 0
 229.713867188 669.713867188 358 714.286132812 486.857421875 716 c 0
 600.857421875 717.428710938 703.142578125 680.857421875 764.286132812 580 c 0
 794.571289062 530 811.142578125 472.857421875 821.428710938 415.428710938 c 1
392.857421875 386.857421875 m 1
 392.571289062 386.571289062 l 1
 421.713867188 398 392.286132812 436.571289062 378.286132812 413.428710938 c 0
 373.713867188 406 366 404.571289062 359.428710938 406.571289062 c 1
 363.142578125 391.713867188 374.857421875 379.713867188 392.857421875 386.857421875 c 1
EndSplineSet
EndChar

StartChar: w
Encoding: 119 119 19
Width: 1000
Flags: H
LayerCount: 2
Fore
SplineSet
672 123.142578125 m 2
 672 124.286132812 l 2
 684.286132812 135.428710938 705.428710938 125.142578125 700.571289062 107.142578125 c 0
 674 9.142578125 647.428710938 -88.857421875 620.857421875 -186.857421875 c 0
 615.713867188 -206.286132812 587.428710938 -202 587.142578125 -182.286132812 c 0
 586 -112.857421875 584.857421875 -43.7138671875 583.713867188 25.7138671875 c 1
 532.286132812 3.4287109375 476.857421875 -5.4287109375 419.713867188 8.5712890625 c 0
 334.571289062 29.4287109375 263.428710938 110.286132812 273.713867188 203.713867188 c 0
 282.857421875 288 350.857421875 342.857421875 425.428710938 365.142578125 c 1
 403.142578125 367.713867188 382.571289062 385.142578125 375.142578125 409.142578125 c 0
 370.286132812 424.857421875 371.142578125 440.857421875 375.713867188 456 c 0
 375.713867188 457.142578125 375.428710938 458.571289062 375.713867188 460 c 0
 375.713867188 462.286132812 376.571289062 464.571289062 377.713867188 466.571289062 c 0
 378.571289062 468.571289062 380 470.286132812 382 471.428710938 c 0
 382.286132812 471.428710938 382.571289062 471.428710938 382.571289062 471.428710938 c 2
 390.286132812 485.713867188 402 498.286132812 416 506.571289062 c 0
 454.571289062 528.857421875 502.857421875 519.713867188 536.857421875 493.428710938 c 0
 552.857421875 481.142578125 570.571289062 462 582.286132812 440.571289062 c 1
 595.428710938 491.713867188 660.571289062 544.857421875 701.428710938 487.428710938 c 0
 742.857421875 429.142578125 658.571289062 342 617.142578125 312 c 0
 615.713867188 311.142578125 614.571289062 310.857421875 613.428710938 310.286132812 c 0
 613.713867188 284.286132812 614.286132812 258.571289062 614.571289062 232.571289062 c 0
 615.428710938 182.571289062 616.286132812 132.857421875 617.142578125 82.857421875 c 1
 637.142578125 95.142578125 655.713867188 108.857421875 672 123.142578125 c 2
622.857421875 439.142578125 m 1
 622.857421875 439.428710938 l 1
 614.286132812 412.857421875 617.142578125 381.713867188 618.286132812 353.142578125 c 1
 638.857421875 370.286132812 656.286132812 390.857421875 668.857421875 415.142578125 c 0
 677.713867188 432.286132812 693.713867188 475.142578125 660.286132812 475.713867188 c 0
 640.571289062 476 628.286132812 456 622.857421875 439.142578125 c 1
413.428710938 442 m 0
 410 429.428710938 410.857421875 415.428710938 420.857421875 406.286132812 c 0
 444 391.428710938 451.142578125 400.571289062 442.286132812 433.713867188 c 0
 438.286132812 438 433.428710938 441.713867188 428.571289062 445.428710938 c 0
 428 445.142578125 427.428710938 444.571289062 426.857421875 444.571289062 c 0
 422.286132812 443.713867188 418 442.857421875 413.428710938 442 c 0
443.428710938 478 m 2
 443.142578125 478.286132812 l 1
 472.571289062 454.857421875 508.571289062 408.571289062 468.286132812 375.713867188 c 0
 466.286132812 374 464 373.142578125 462 371.713867188 c 1
 464.571289062 372 466.857421875 372.571289062 469.142578125 372.857421875 c 0
 492.571289062 376.286132812 530.571289062 368.571289062 551.428710938 379.428710938 c 0
 592.857421875 400.571289062 530 461.142578125 513.428710938 471.142578125 c 0
 492.857421875 483.713867188 465.428710938 488 443.428710938 478 c 2
349.713867188 92.5712890625 m 0
 414.286132812 18 508.571289062 26.2861328125 589.142578125 64.857421875 c 0
 588.857421875 89.4287109375 588.286132812 114.286132812 588 138.857421875 c 0
 587.142578125 190.286132812 586.286132812 241.713867188 585.428710938 293.142578125 c 0
 585.142578125 314 583.713867188 335.713867188 582.857421875 357.428710938 c 1
 560.857421875 338.857421875 523.713867188 342.571289062 496.571289062 340.571289062 c 0
 434 336.286132812 368.857421875 311.713867188 333.713867188 254.857421875 c 0
 301.142578125 202.571289062 310.286132812 138.286132812 349.713867188 92.5712890625 c 0
659.713867188 64.857421875 m 1
 648 56.5712890625 636 48.857421875 623.713867188 42 c 0
 624.286132812 7.4287109375 624.857421875 -26.857421875 625.428710938 -61.4287109375 c 1
 636.857421875 -19.142578125 648.286132812 22.857421875 659.713867188 64.857421875 c 1
EndSplineSet
EndChar

StartChar: x
Encoding: 120 120 20
Width: 1000
Flags: H
LayerCount: 2
Fore
SplineSet
649.428710938 240 m 0
 679.428710938 169.713867188 662.286132812 83.142578125 600.571289062 35.7138671875 c 0
 542.286132812 -9.142578125 459.142578125 -8.857421875 399.713867188 33.7138671875 c 0
 338.571289062 77.4287109375 305.142578125 158 330.571289062 231.428710938 c 0
 351.428710938 292.286132812 406.286132812 334.571289062 468.571289062 340.857421875 c 0
 540 371.713867188 621.428710938 306 649.428710938 240 c 0
591.142578125 74.857421875 m 2
 591.713867188 74.5712890625 l 2
 634 117.713867188 639.428710938 185.142578125 611.713867188 237.428710938 c 0
 593.713867188 271.428710938 557.428710938 305.428710938 519.142578125 311.142578125 c 0
 516.286132812 306.857421875 511.713867188 304 504.857421875 304.857421875 c 0
 496.286132812 305.713867188 488 306.286132812 479.713867188 305.713867188 c 0
 474.286132812 303.428710938 469.142578125 300.571289062 464 296.571289062 c 0
 456.286132812 290.571289062 448.857421875 292.857421875 444 298.286132812 c 0
 402.571289062 284.286132812 369.713867188 250.286132812 360 203.428710938 c 0
 347.713867188 144 382 83.4287109375 433.142578125 54.5712890625 c 0
 483.428710938 26.2861328125 550 33.142578125 591.142578125 74.857421875 c 2
EndSplineSet
EndChar

StartChar: y
Encoding: 121 121 21
Width: 1000
Flags: H
LayerCount: 2
Fore
SplineSet
865.713867188 395.428710938 m 2
 866 395.142578125 l 2
 909.713867188 300 941.713867188 198 882 102 c 0
 828.571289062 16 724 -20 628.571289062 7.142578125 c 0
 604.857421875 14 614.857421875 51.4287109375 638.857421875 44.5712890625 c 0
 723.428710938 20.2861328125 814.857421875 55.142578125 856.571289062 134.857421875 c 0
 900.286132812 218.286132812 866.857421875 307.142578125 828.286132812 385.428710938 c 0
 808.857421875 424.571289062 777.142578125 468.571289062 729.142578125 469.428710938 c 0
 680 470.286132812 643.428710938 429.142578125 617.428710938 392.286132812 c 0
 582.571289062 342.571289062 550 290.857421875 517.428710938 239.142578125 c 1
 580.857421875 241.142578125 651.142578125 201.713867188 634.286132812 136.857421875 c 0
 620.857421875 85.142578125 565.428710938 46.857421875 520 26.5712890625 c 0
 469.142578125 4 412.857421875 -2 358.286132812 8.857421875 c 0
 305.713867188 19.4287109375 245.428710938 48.5712890625 214.571289062 94.5712890625 c 0
 186.571289062 136 190.571289062 191.713867188 216.857421875 233.142578125 c 0
 246.571289062 280 297.142578125 306.286132812 348.286132812 322 c 0
 380.857421875 332 416 335.713867188 448.286132812 347.142578125 c 0
 469.142578125 354.571289062 493.713867188 368.857421875 495.428710938 394.286132812 c 0
 496.857421875 417.428710938 476.571289062 438 459.142578125 450 c 0
 444 460.571289062 426.286132812 469.428710938 408 474.286132812 c 1
 438.286132812 431.713867188 424.571289062 368.571289062 372.571289062 351.713867188 c 0
 326 336.857421875 279.428710938 367.142578125 275.713867188 416.571289062 c 0
 275.142578125 426 276.286132812 434.571289062 278.286132812 442.857421875 c 0
 266.286132812 446.571289062 257.428710938 462.857421875 268.571289062 475.428710938 c 0
 286.571289062 495.428710938 312.286132812 507.142578125 338 508.286132812 c 0
 346 511.428710938 354.286132812 514 362.857421875 515.428710938 c 0
 417.142578125 523.713867188 486.857421875 493.142578125 517.428710938 446.286132812 c 0
 551.142578125 394.286132812 525.142578125 337.713867188 471.713867188 314.857421875 c 0
 404 286 324.857421875 291.428710938 268.571289062 236.571289062 c 0
 239.428710938 208.286132812 221.142578125 162.571289062 241.142578125 123.713867188 c 0
 258 91.142578125 298 69.142578125 330.571289062 56.857421875 c 0
 398.857421875 31.142578125 475.428710938 39.7138671875 536.571289062 80 c 0
 568 100.857421875 630.286132812 157.428710938 573.142578125 186.857421875 c 0
 553.428710938 196.857421875 515.142578125 205.713867188 489.713867188 196.857421875 c 0
 480.286132812 182 470.857421875 167.142578125 461.428710938 152.286132812 c 0
 451.713867188 136.857421875 425.142578125 142 425.713867188 162 c 0
 426.571289062 192.571289062 441.428710938 213.142578125 462.857421875 225.428710938 c 0
 489.713867188 266.857421875 516.286132812 308.286132812 543.142578125 349.713867188 c 0
 572.286132812 394.857421875 599.713867188 445.142578125 643.142578125 477.713867188 c 0
 733.713867188 545.428710938 824 486 865.713867188 395.428710938 c 2
329.428710938 391.428710938 m 0
 366.571289062 368.857421875 398.286132812 417.713867188 378.286132812 450 c 0
 370.286132812 463.428710938 358.286132812 469.142578125 345.428710938 470 c 0
 318.857421875 454.571289062 295.428710938 412 329.428710938 391.428710938 c 0
EndSplineSet
EndChar

StartChar: z
Encoding: 122 122 22
Width: 1000
Flags: H
LayerCount: 2
Fore
SplineSet
554 698 m 1
 553.713867188 698.571289062 l 1
 561.713867188 688.571289062 565.428710938 674.571289062 562.286132812 660.857421875 c 0
 556.286132812 634.286132812 527.142578125 616 500.857421875 617.142578125 c 0
 490.857421875 617.428710938 481.428710938 621.428710938 474.286132812 628 c 1
 464.857421875 589.428710938 485.428710938 546.571289062 525.713867188 533.428710938 c 0
 547.428710938 526.286132812 538.286132812 491.713867188 516.286132812 498.857421875 c 0
 458.571289062 517.713867188 423.713867188 578.286132812 439.713867188 637.713867188 c 0
 446.286132812 662.286132812 462.286132812 688.857421875 485.428710938 701.142578125 c 0
 488.571289062 702.857421875 491.713867188 704 494.857421875 705.142578125 c 0
 496.857421875 706.286132812 498.857421875 707.428710938 500.857421875 708.286132812 c 0
 504.857421875 710.571289062 509.142578125 712.286132812 514 713.142578125 c 0
 521.713867188 715.142578125 529.142578125 716.286132812 536.857421875 716 c 0
 548 715.428710938 554 706.571289062 554 698 c 1
EndSplineSet
EndChar

StartChar: braceleft
Encoding: 123 123 23
Width: 1000
Flags: H
LayerCount: 2
Fore
SplineSet
954.571289062 5.4287109375 m 2
 954.571289062 5.7138671875 l 2
 959.428710938 28.857421875 994 18.857421875 989.142578125 -4 c 0
 966 -114.286132812 845.142578125 -233.713867188 726.857421875 -190.571289062 c 0
 672.286132812 -170.571289062 653.142578125 -111.142578125 671.142578125 -57.4287109375 c 0
 680.571289062 -28.857421875 698.857421875 -7.142578125 720.571289062 10.5712890625 c 1
 703.713867188 11.7138671875 687.142578125 15.4287109375 671.428710938 23.7138671875 c 0
 630 45.142578125 612.286132812 89.7138671875 615.428710938 135.428710938 c 0
 620.857421875 216.571289062 681.428710938 288.286132812 754.286132812 316 c 0
 775.428710938 324 799.713867188 324 820 333.428710938 c 0
 859.713867188 351.713867188 815.713867188 393.428710938 796 411.142578125 c 0
 773.142578125 431.428710938 738.571289062 449.428710938 705.713867188 452 c 1
 715.142578125 441.713867188 723.142578125 430.286132812 729.428710938 417.713867188 c 0
 751.428710938 372.571289062 740 314.857421875 688 300.857421875 c 0
 637.713867188 287.142578125 592.571289062 326 588.857421875 377.142578125 c 0
 586.286132812 411.428710938 602.286132812 441.142578125 626.571289062 461.428710938 c 1
 602 470 575.142578125 472.286132812 550.571289062 467.428710938 c 0
 433.142578125 443.713867188 422.571289062 317.713867188 431.713867188 213.428710938 c 1
 452.857421875 245.713867188 483.428710938 269.428710938 524.571289062 252.571289062 c 0
 574.286132812 232.286132812 579.713867188 165.713867188 562.286132812 121.428710938 c 0
 513.428710938 -1.4287109375 352.857421875 -9.4287109375 255.428710938 53.142578125 c 0
 165.713867188 110.571289062 122.857421875 236.571289062 197.428710938 326 c 0
 216 348.571289062 239.428710938 362.286132812 266.571289062 370.857421875 c 0
 299.713867188 381.428710938 369.713867188 393.428710938 342.571289062 446.571289062 c 0
 307.142578125 516 170 474.571289062 122.286132812 441.142578125 c 0
 -14.857421875 345.428710938 61.142578125 151.713867188 128.857421875 39.7138671875 c 0
 140.857421875 19.4287109375 110 1.142578125 98 21.142578125 c 0
 31.142578125 131.428710938 -24 267.428710938 37.142578125 393.428710938 c 0
 60.857421875 442.286132812 101.142578125 477.428710938 150.857421875 496.286132812 c 0
 200.571289062 515.142578125 267.713867188 528.857421875 319.142578125 510.571289062 c 0
 356.857421875 497.142578125 388.571289062 458.286132812 383.142578125 415.713867188 c 0
 375.713867188 356.857421875 314 349.713867188 269.713867188 334 c 0
 208.571289062 312.286132812 181.713867188 239.142578125 199.428710938 178 c 0
 217.428710938 115.713867188 276.286132812 73.142578125 335.428710938 57.7138671875 c 0
 405.142578125 39.7138671875 491.428710938 57.142578125 525.713867188 128.571289062 c 0
 537.713867188 153.713867188 543.713867188 199.428710938 515.142578125 216.857421875 c 0
 473.142578125 242.571289062 447.428710938 172.857421875 438.286132812 144.857421875 c 0
 433.142578125 129.428710938 406.571289062 125.713867188 403.713867188 144.857421875 c 0
 391.142578125 229.713867188 378.857421875 319.713867188 416.571289062 400.286132812 c 0
 447.428710938 466 513.142578125 510.571289062 585.428710938 507.142578125 c 0
 612.857421875 505.713867188 640.857421875 497.428710938 665.428710938 483.142578125 c 0
 671.428710938 484.857421875 677.428710938 486.571289062 683.428710938 487.428710938 c 0
 748.571289062 497.142578125 808.571289062 456 848.857421875 407.142578125 c 0
 886 362 877.713867188 312 820.286132812 295.142578125 c 0
 785.428710938 285.142578125 753.428710938 280.286132812 723.142578125 258 c 0
 694.286132812 236.571289062 670.857421875 205.713867188 658.857421875 171.142578125 c 0
 644.286132812 127.713867188 646.571289062 71.7138671875 694.857421875 52.5712890625 c 0
 733.142578125 37.142578125 775.142578125 51.4287109375 812.286132812 62.5712890625 c 0
 831.428710938 68.2861328125 844.571289062 37.7138671875 826 29.142578125 c 0
 784.571289062 10 736 -10.5712890625 712.286132812 -52.857421875 c 0
 683.142578125 -104.857421875 709.428710938 -159.713867188 768.571289062 -162 c 0
 860.571289062 -165.428710938 936.571289062 -80.857421875 954.571289062 5.4287109375 c 2
662.571289062 334.857421875 m 1
 662.286132812 334.857421875 l 1
 703.142578125 331.713867188 711.428710938 372.857421875 695.713867188 403.428710938 c 0
 687.428710938 419.713867188 674.857421875 432.571289062 660.571289062 443.142578125 c 0
 649.428710938 437.142578125 639.428710938 428 631.713867188 414.286132812 c 0
 616 386 624.857421875 338 662.571289062 334.857421875 c 1
EndSplineSet
EndChar

StartChar: bar
Encoding: 124 124 24
Width: 1000
Flags: H
LayerCount: 2
Fore
SplineSet
744 -22 m 1
 743.142578125 -22.2861328125 l 1
 742 1.7138671875 777.713867188 1.4287109375 778.857421875 -22.2861328125 c 0
 784.857421875 -151.142578125 655.713867188 -228.857421875 544.571289062 -190.857421875 c 0
 496 -174.286132812 437.713867188 -134.286132812 434.571289062 -75.7138671875 c 0
 432.857421875 -47.7138671875 444 -28 460.857421875 -14.2861328125 c 1
 376.286132812 4 300.857421875 57.7138671875 273.713867188 149.142578125 c 0
 247.142578125 238.286132812 289.142578125 343.713867188 376.286132812 375.428710938 c 1
 347.428710938 390.571289062 329.428710938 426.286132812 341.428710938 462 c 1
 305.142578125 440.286132812 275.142578125 397.713867188 257.428710938 365.428710938 c 0
 196 252.571289062 214.857421875 112.286132812 299.428710938 18 c 0
 315.142578125 0.5712890625 290 -25.7138671875 274.286132812 -8.2861328125 c 0
 159.142578125 120.286132812 155.713867188 322.286132812 274.286132812 450.286132812 c 0
 305.428710938 484 352.286132812 516.571289062 398 513.428710938 c 0
 432.286132812 523.713867188 474 518.286132812 503.713867188 505.713867188 c 0
 551.142578125 485.428710938 623.428710938 416.286132812 580.286132812 358.857421875 c 0
 561.142578125 333.142578125 528.857421875 332.286132812 500.571289062 337.713867188 c 0
 457.428710938 345.713867188 415.142578125 356 373.713867188 334.286132812 c 0
 297.713867188 294.286132812 284.286132812 192.857421875 324.571289062 121.428710938 c 0
 370.857421875 39.7138671875 462.571289062 10.857421875 549.142578125 16.857421875 c 0
 572.571289062 18.2861328125 571.428710938 -17.4287109375 549.142578125 -20.2861328125 c 0
 525.142578125 -23.142578125 496 -26.5712890625 479.428710938 -47.4287109375 c 0
 460.857421875 -70.857421875 476.286132812 -98.857421875 493.713867188 -117.428710938 c 0
 520.286132812 -145.713867188 562.286132812 -161.713867188 599.713867188 -163.713867188 c 0
 678 -167.713867188 747.713867188 -105.428710938 744 -22 c 1
556.286132812 389.142578125 m 1
 556.286132812 388.857421875 l 1
 568 423.713867188 516.286132812 459.713867188 492.286132812 470.286132812 c 0
 481.713867188 474.857421875 470.571289062 478 459.428710938 480 c 1
 480 450.571289062 476.571289062 407.428710938 449.713867188 384 c 1
 454.857421875 383.713867188 460 383.142578125 465.142578125 382.571289062 c 0
 488 379.428710938 544.857421875 355.428710938 556.286132812 389.142578125 c 1
401.142578125 474.857421875 m 0
 383.428710938 466.571289062 369.142578125 450 375.428710938 428 c 0
 380.857421875 409.428710938 399.428710938 402 416 406.857421875 c 0
 436 413.142578125 443.713867188 436.571289062 433.428710938 454.571289062 c 0
 426.571289062 466.857421875 414 472.571289062 401.142578125 474.857421875 c 0
EndSplineSet
EndChar

StartChar: braceright
Encoding: 125 125 25
Width: 1000
Flags: H
LayerCount: 2
Fore
SplineSet
710.571289062 331.428710938 m 0
 733.713867188 331.142578125 733.428710938 295.713867188 710.571289062 295.713867188 c 0
 589.142578125 296.857421875 468 297.713867188 346.571289062 298.857421875 c 0
 323.428710938 299.142578125 323.713867188 334.571289062 346.571289062 334.571289062 c 0
 468 333.428710938 589.142578125 332.571289062 710.571289062 331.428710938 c 0
711.142578125 224.857421875 m 0
 733.713867188 226.286132812 733.428710938 190.571289062 711.142578125 189.142578125 c 0
 589.713867188 181.142578125 468 180.286132812 346.286132812 186.571289062 c 0
 324 187.713867188 323.713867188 223.428710938 346.286132812 222.286132812 c 0
 467.713867188 216 589.713867188 216.857421875 711.142578125 224.857421875 c 0
EndSplineSet
EndChar

StartChar: asciitilde
Encoding: 126 126 26
Width: 1000
Flags: H
LayerCount: 2
Fore
SplineSet
597.142578125 707.428710938 m 1
 596.286132812 707.713867188 l 1
 815.428710938 658.857421875 920.571289062 432.571289062 876.286132812 226.286132812 c 0
 855.142578125 128 787.713867188 30.2861328125 682.571289062 8.857421875 c 0
 642.857421875 0.857421875 596.571289062 6 564.571289062 32.5712890625 c 0
 554 41.4287109375 546.286132812 51.4287109375 540.857421875 62.5712890625 c 1
 526.286132812 41.142578125 506.857421875 23.142578125 480.571289062 13.4287109375 c 0
 427.713867188 -6 376.571289062 16.2861328125 350.857421875 64.857421875 c 0
 309.713867188 142.571289062 306.857421875 254.857421875 365.428710938 320.571289062 c 1
 345.428710938 317.428710938 325.142578125 314 304.857421875 310.571289062 c 0
 300 289.713867188 296.286132812 268.571289062 294.286132812 247.428710938 c 0
 287.142578125 170.857421875 297.713867188 94 325.142578125 22 c 0
 333.142578125 0.5712890625 298.571289062 -8.5712890625 290.571289062 12.5712890625 c 0
 255.142578125 105.428710938 247.428710938 207.428710938 267.142578125 304.571289062 c 1
 218.286132812 296.571289062 169.428710938 288.286132812 120.571289062 280.286132812 c 0
 98 276.571289062 88.5712890625 310.571289062 111.142578125 314.286132812 c 0
 166 323.428710938 220.857421875 332.571289062 275.713867188 341.713867188 c 0
 291.713867188 400.857421875 332.286132812 521.713867188 404.857421875 515.142578125 c 0
 406.857421875 515.713867188 408.857421875 516.286132812 410.857421875 516.857421875 c 0
 500.857421875 536.857421875 582.571289062 459.142578125 571.428710938 370 c 0
 570.571289062 362.571289062 566.571289062 354.286132812 558.286132812 352.857421875 c 0
 522.571289062 346.857421875 487.142578125 341.142578125 451.428710938 335.142578125 c 0
 449.428710938 333.428710938 447.142578125 332 444.286132812 331.142578125 c 0
 348.286132812 301.428710938 344 186 371.713867188 106.857421875 c 0
 387.713867188 61.4287109375 424.857421875 24.5712890625 475.713867188 50 c 0
 506.286132812 65.142578125 522.286132812 94.2861328125 531.142578125 125.428710938 c 0
 532.286132812 136 534.571289062 146.571289062 538 156.857421875 c 0
 545.428710938 178.857421875 576.286132812 169.428710938 572.571289062 147.428710938 c 0
 571.142578125 138.571289062 568.857421875 129.713867188 566.571289062 120.857421875 c 0
 563.713867188 94.2861328125 570.857421875 68.2861328125 597.428710938 53.142578125 c 0
 620 40.2861328125 648.286132812 38.2861328125 673.428710938 43.142578125 c 0
 726 52.857421875 770.857421875 88.857421875 800 131.713867188 c 0
 863.713867188 225.428710938 865.428710938 363.142578125 826.857421875 466.571289062 c 0
 790.286132812 565.142578125 704.571289062 642.286132812 602 670 c 0
 494.286132812 698.857421875 377.142578125 668.571289062 294.286132812 595.713867188 c 0
 277.142578125 580.571289062 252 605.428710938 269.142578125 620.571289062 c 0
 358 698.571289062 480.571289062 733.428710938 597.142578125 707.428710938 c 1
459.713867188 481.713867188 m 1
 460 481.713867188 l 2
 484.571289062 442.857421875 470.286132812 383.428710938 428.286132812 366.286132812 c 1
 464.571289062 372.286132812 500.857421875 378.286132812 537.142578125 384.286132812 c 0
 537.142578125 420 520.571289062 453.713867188 487.142578125 471.713867188 c 0
 478.857421875 476.286132812 469.428710938 479.713867188 459.713867188 481.713867188 c 1
380.571289062 459.428710938 m 0
 354.571289062 427.713867188 386.571289062 374 424.286132812 405.142578125 c 0
 452.286132812 428.286132812 434 472.857421875 405.428710938 477.428710938 c 0
 396 473.428710938 387.428710938 467.713867188 380.571289062 459.428710938 c 0
319.428710938 360.286132812 m 2
 319.713867188 360 l 2
 318.286132812 355.713867188 317.142578125 351.428710938 315.713867188 347.142578125 c 1
 343.713867188 351.713867188 372 356.571289062 400 361.142578125 c 1
 396 361.428710938 392.286132812 361.428710938 388 362.286132812 c 0
 362.286132812 367.142578125 345.142578125 386 338 408.857421875 c 1
 330.571289062 392.286132812 324.571289062 375.142578125 319.428710938 360.286132812 c 2
EndSplineSet
EndChar

StartChar: exclamdown
Encoding: 161 161 27
Width: 1000
Flags: H
LayerCount: 2
Fore
SplineSet
554.571289062 39.4287109375 m 1
 554.571289062 38.5712890625 l 2
 554.571289062 38.2861328125 554.571289062 38 554.571289062 38 c 2
 554.286132812 37.7138671875 554.286132812 37.4287109375 554.286132812 37.142578125 c 0
 552 28.2861328125 547.713867188 19.7138671875 541.428710938 13.4287109375 c 0
 525.713867188 -1.7138671875 502.857421875 -4.5712890625 484.286132812 4.5712890625 c 0
 481.428710938 5.4287109375 478.857421875 6.2861328125 476.286132812 7.7138671875 c 0
 472.571289062 10 469.713867188 12.857421875 466.857421875 16 c 0
 460.286132812 21.4287109375 455.428710938 28.857421875 452.286132812 37.142578125 c 0
 451.428710938 39.4287109375 451.142578125 41.7138671875 450.571289062 44 c 0
 448 50.5712890625 446.571289062 57.7138671875 446.857421875 64.857421875 c 0
 447.713867188 80 454.286132812 92.5712890625 466 101.428710938 c 0
 467.142578125 102.286132812 468.286132812 102.857421875 469.428710938 103.428710938 c 0
 470.286132812 104 471.428710938 104.571289062 472.286132812 105.142578125 c 0
 474.286132812 106.286132812 476 106.857421875 478 107.428710938 c 0
 479.142578125 108 480.286132812 108.857421875 481.428710938 108.857421875 c 0
 482 108.857421875 482.286132812 108.857421875 482.571289062 108.857421875 c 0
 488.571289062 110 494.857421875 110 500.857421875 108.857421875 c 0
 504.571289062 108 507.713867188 106.571289062 510.857421875 104.857421875 c 0
 519.142578125 103.142578125 526.857421875 99.4287109375 533.428710938 94 c 0
 540 89.7138671875 545.713867188 84.2861328125 549.713867188 77.142578125 c 0
 555.142578125 67.142578125 556.857421875 54.857421875 555.142578125 43.4287109375 c 0
 555.142578125 42.2861328125 554.571289062 39.4287109375 554.571289062 39.4287109375 c 1
EndSplineSet
EndChar

StartChar: cent
Encoding: 162 162 28
Width: 1000
Flags: H
LayerCount: 2
Fore
SplineSet
767.142578125 -22 m 2
 766.857421875 -21.7138671875 l 2
 766.286132812 1.4287109375 802 1.4287109375 802.571289062 -21.7138671875 c 0
 804.571289062 -91.4287109375 762.286132812 -152 700 -180.286132812 c 0
 635.428710938 -209.428710938 561.428710938 -202.857421875 496.286132812 -178.857421875 c 0
 448.857421875 -161.142578125 368.571289062 -125.428710938 392.571289062 -59.7138671875 c 0
 400 -39.142578125 416.857421875 -22.857421875 438 -10.2861328125 c 1
 378.857421875 -0.5712890625 325.428710938 28.857421875 296.286132812 87.4287109375 c 0
 255.428710938 170.286132812 296.571289062 258.857421875 377.713867188 295.142578125 c 0
 399.142578125 304.571289062 421.713867188 310.286132812 444.857421875 313.428710938 c 0
 467.142578125 316.571289062 508.857421875 314.286132812 518.571289062 340.857421875 c 0
 527.428710938 364.571289062 505.428710938 412.286132812 494.571289062 433.428710938 c 0
 480.286132812 461.428710938 452.857421875 491.428710938 417.713867188 481.713867188 c 0
 400 476.571289062 384.571289062 463.142578125 372.571289062 447.428710938 c 1
 401.142578125 444.286132812 427.142578125 430.286132812 437.428710938 398.857421875 c 0
 453.428710938 349.428710938 406 296.286132812 355.428710938 317.142578125 c 0
 318.286132812 332.286132812 307.428710938 364.571289062 312.571289062 398.571289062 c 1
 292.571289062 386.857421875 275.713867188 369.713867188 263.428710938 350 c 0
 199.142578125 248.571289062 243.428710938 117.428710938 266.857421875 9.7138671875 c 0
 271.713867188 -12.857421875 237.142578125 -22.2861328125 232.286132812 0.2861328125 c 0
 203.142578125 134.857421875 143.713867188 349.713867188 299.428710938 432.857421875 c 1
 256.571289062 461.713867188 227.713867188 510.286132812 230 563.713867188 c 0
 232.571289062 620.857421875 268 674.286132812 320.571289062 697.428710938 c 0
 350.286132812 710.286132812 382.857421875 714.571289062 414.857421875 715.713867188 c 0
 445.142578125 716.857421875 476 714 503.713867188 700.571289062 c 0
 558.286132812 674.286132812 585.713867188 605.713867188 599.142578125 550.571289062 c 0
 612.286132812 497.713867188 596.286132812 433.428710938 539.713867188 419.142578125 c 1
 548.857421875 396 557.142578125 370.286132812 556 346.286132812 c 0
 552.571289062 277.428710938 473.713867188 284.857421875 426.286132812 273.428710938 c 0
 341.713867188 253.428710938 281.713867188 168.571289062 338 87.4287109375 c 0
 382.286132812 23.7138671875 462.286132812 13.7138671875 534 24.5712890625 c 0
 546.857421875 27.4287109375 559.142578125 29.7138671875 569.428710938 31.7138671875 c 0
 591.713867188 35.7138671875 601.428710938 2.857421875 578.857421875 -2.857421875 c 0
 566.571289062 -6 553.713867188 -8.5712890625 540.571289062 -10.5712890625 c 0
 503.428710938 -19.142578125 462.857421875 -32.5712890625 438.857421875 -56.857421875 c 0
 387.428710938 -109.428710938 505.713867188 -146.286132812 539.428710938 -155.142578125 c 0
 635.713867188 -180.571289062 770.571289062 -143.713867188 767.142578125 -22 c 2
406 376.571289062 m 0
 407.713867188 407.142578125 380 414.286132812 353.713867188 411.713867188 c 0
 348.286132812 396.286132812 346.286132812 378.571289062 355.713867188 364.571289062 c 0
 370 342.857421875 404.286132812 346.571289062 406 376.571289062 c 0
470.571289062 510.286132812 m 1
 470.571289062 510.857421875 l 1
 495.713867188 498.286132812 513.142578125 476 525.713867188 451.428710938 c 0
 526.857421875 451.713867188 527.713867188 452.286132812 528.857421875 452.286132812 c 0
 554.571289062 455.428710938 568.286132812 484.571289062 569.142578125 507.428710938 c 0
 570.286132812 535.142578125 559.428710938 562.857421875 549.428710938 588.286132812 c 0
 532 632 506.571289062 670 457.142578125 678 c 0
 413.142578125 685.142578125 356.286132812 680.286132812 318.286132812 655.142578125 c 0
 283.142578125 632 262.286132812 588 266.857421875 546.286132812 c 0
 271.142578125 506.286132812 298.571289062 469.713867188 334.857421875 453.142578125 c 0
 364.857421875 500.857421875 419.428710938 535.713867188 470.571289062 510.286132812 c 1
EndSplineSet
EndChar

StartChar: sterling
Encoding: 163 163 29
Width: 1000
Flags: H
LayerCount: 2
Fore
SplineSet
824.857421875 3.4287109375 m 1
 824.857421875 3.7138671875 l 1
 834.286132812 -126.286132812 710.571289062 -230 584 -191.428710938 c 0
 530.857421875 -175.428710938 469.428710938 -126.857421875 481.713867188 -64.2861328125 c 0
 484.571289062 -50.2861328125 490.571289062 -39.142578125 498 -29.4287109375 c 1
 413.142578125 -26 327.142578125 1.7138671875 285.713867188 72.5712890625 c 0
 232.571289062 163.142578125 302.286132812 267.713867188 387.428710938 304.857421875 c 0
 413.428710938 316.286132812 440.571289062 323.428710938 468.571289062 328 c 0
 493.142578125 331.713867188 518.571289062 330.286132812 542.857421875 334.571289062 c 0
 609.428710938 346.571289062 552.857421875 405.428710938 528.857421875 429.428710938 c 0
 506 452.286132812 479.428710938 472.571289062 447.428710938 480.857421875 c 0
 426 486.286132812 401.713867188 485.142578125 381.713867188 475.713867188 c 1
 403.713867188 463.428710938 422.286132812 443.713867188 432 419.428710938 c 0
 454.286132812 364.286132812 398.571289062 320 348.286132812 350 c 0
 310.857421875 372.286132812 303.142578125 416 316.857421875 452.571289062 c 1
 290.571289062 444.571289062 272 418.286132812 258.571289062 395.713867188 c 0
 196 288.857421875 194 153.142578125 248.571289062 42.857421875 c 0
 258.571289062 22.5712890625 228.286132812 4.857421875 218.286132812 25.142578125 c 0
 180.571289062 101.428710938 166.571289062 185.713867188 178.857421875 270 c 0
 188.857421875 340.286132812 218.571289062 432 280.857421875 473.713867188 c 0
 291.428710938 480.857421875 302.857421875 485.142578125 314.286132812 487.142578125 c 1
 298.571289062 509.713867188 292 537.713867188 296 566.286132812 c 0
 302 608.857421875 328.571289062 646.286132812 362 672 c 0
 419.713867188 716.571289062 500.571289062 728.571289062 567.142578125 696.857421875 c 0
 630.857421875 666.571289062 676.571289062 595.142578125 671.713867188 523.713867188 c 0
 669.142578125 485.428710938 651.428710938 449.142578125 614.857421875 432.857421875 c 0
 604 427.713867188 592.286132812 425.428710938 580.571289062 425.428710938 c 1
 607.428710938 392.286132812 624.857421875 352.286132812 596 319.142578125 c 0
 573.713867188 294 535.428710938 299.428710938 505.428710938 296.857421875 c 0
 462.571289062 292.857421875 419.142578125 284 381.428710938 262.286132812 c 0
 308 220 270.286132812 118.857421875 344 57.4287109375 c 0
 399.713867188 10.857421875 480.857421875 -0.5712890625 554.857421875 6 c 0
 577.713867188 13.142578125 602.571289062 16 624.571289062 17.4287109375 c 0
 644.571289062 18.857421875 648 -12.2861328125 629.142578125 -16.857421875 c 0
 610.286132812 -21.4287109375 589.428710938 -25.142578125 567.713867188 -27.4287109375 c 0
 530.286132812 -38.857421875 498.571289062 -61.7138671875 522.857421875 -106.286132812 c 0
 544.571289062 -145.713867188 595.713867188 -164.857421875 638.571289062 -164.857421875 c 0
 730.286132812 -165.142578125 796.571289062 -86 790 3.4287109375 c 0
 788.286132812 26 823.142578125 25.7138671875 824.857421875 3.4287109375 c 1
629.713867188 496.857421875 m 1
 629.713867188 496.571289062 l 1
 640 522 637.142578125 552.286132812 628.286132812 577.713867188 c 0
 626 584.571289062 622.857421875 591.428710938 619.428710938 598 c 1
 618.286132812 597.142578125 617.142578125 596 615.428710938 595.142578125 c 0
 585.713867188 581.428710938 552.571289062 564.286132812 538.857421875 532.571289062 c 0
 527.428710938 505.713867188 534.571289062 473.142578125 564.571289062 463.142578125 c 0
 591.713867188 454.286132812 619.428710938 471.713867188 629.713867188 496.857421875 c 1
391.142578125 376.286132812 m 1
 390.857421875 376.286132812 l 1
 421.142578125 390.857421875 386 427.713867188 373.713867188 437.713867188 c 0
 367.142578125 443.142578125 360.286132812 447.428710938 352.857421875 450.571289062 c 1
 352.857421875 450.286132812 352.286132812 450 352.286132812 449.713867188 c 0
 338.286132812 426.286132812 351.142578125 357.428710938 391.142578125 376.286132812 c 1
351.142578125 497.142578125 m 0
 395.713867188 529.428710938 452.286132812 521.428710938 498.571289062 495.713867188 c 1
 496.286132812 514.286132812 500 533.713867188 508 550.857421875 c 0
 525.428710938 587.713867188 561.713867188 610 597.428710938 626.286132812 c 0
 598.286132812 626.857421875 599.142578125 626.857421875 600 626.857421875 c 1
 578.857421875 651.428710938 550 669.428710938 517.713867188 676.286132812 c 0
 466.286132812 687.142578125 409.142578125 669.713867188 371.428710938 633.713867188 c 0
 336.571289062 600.571289062 310 534.571289062 351.142578125 497.142578125 c 0
EndSplineSet
EndChar

StartChar: currency
Encoding: 164 164 30
Width: 1000
Flags: H
LayerCount: 2
Fore
SplineSet
750.571289062 39.4287109375 m 0
 773.713867188 40.2861328125 773.428710938 4.5712890625 750.571289062 3.7138671875 c 0
 584 -2 416.857421875 -0.5712890625 250.286132812 8.5712890625 c 0
 227.428710938 9.7138671875 227.428710938 45.4287109375 250.286132812 44.2861328125 c 0
 416.857421875 35.142578125 583.713867188 33.7138671875 750.571289062 39.4287109375 c 0
EndSplineSet
EndChar

StartChar: yen
Encoding: 165 165 31
Width: 1000
Flags: H
LayerCount: 2
Fore
SplineSet
744.286132812 -81.142578125 m 2
 770.857421875 -96.857421875 792.857421875 -126.571289062 788.571289062 -158.571289062 c 0
 785.428710938 -181.428710938 768.571289062 -202 744 -199.713867188 c 0
 708.286132812 -196.571289062 702.286132812 -159.142578125 703.142578125 -130.571289062 c 0
 703.428710938 -121.428710938 704.286132812 -112.286132812 704.571289062 -103.142578125 c 0
 702.571289062 -102.571289062 700.857421875 -102 699.142578125 -102 c 0
 653.142578125 -94.857421875 610.857421875 -120 570.571289062 -138 c 0
 540 -151.713867188 508.571289062 -162.857421875 475.713867188 -170 c 0
 411.142578125 -184 335.428710938 -188.571289062 272 -167.713867188 c 0
 223.713867188 -151.713867188 185.142578125 -109.428710938 199.142578125 -56.5712890625 c 0
 204.571289062 -34.857421875 238.286132812 -44.2861328125 232.571289062 -65.7138671875 c 0
 216 -128.571289062 303.142578125 -142.286132812 346.286132812 -145.142578125 c 0
 396.571289062 -148.571289062 447.142578125 -143.142578125 495.428710938 -129.142578125 c 0
 560.286132812 -110.286132812 635.428710938 -54.5712890625 706.286132812 -67.142578125 c 1
 707.428710938 -47.142578125 708.571289062 -26.857421875 710 -6.5712890625 c 1
 618.857421875 -51.142578125 503.713867188 -32.5712890625 408.571289062 -10 c 0
 324 10 258.857421875 72.2861328125 254 161.713867188 c 0
 249.142578125 248.571289062 306 325.428710938 384.286132812 359.428710938 c 0
 399.428710938 366 415.142578125 370.857421875 431.142578125 374.571289062 c 1
 418.571289062 379.428710938 407.713867188 386.571289062 400.286132812 394.857421875 c 0
 365.713867188 433.713867188 394 482.286132812 433.713867188 503.142578125 c 0
 477.428710938 526 532.571289062 522.286132812 575.713867188 500.286132812 c 0
 614.571289062 480.286132812 659.713867188 434 648.571289062 386 c 0
 635.142578125 328.571289062 568.286132812 346.571289062 526.571289062 348.857421875 c 0
 461.713867188 352.286132812 391.428710938 337.428710938 342.571289062 292.286132812 c 0
 288.857421875 242.571289062 270.857421875 160.286132812 308.571289062 96 c 0
 348 28.857421875 426.857421875 19.4287109375 497.428710938 8.857421875 c 0
 574 -2.5712890625 654 -6.2861328125 720.571289062 39.4287109375 c 0
 731.428710938 46.857421875 747.713867188 37.142578125 746.857421875 24.5712890625 c 0
 744.857421875 -10 742.857421875 -44.857421875 740.857421875 -79.4287109375 c 0
 742 -80 744.286132812 -81.142578125 744.286132812 -81.142578125 c 2
464 478.286132812 m 1
 464.286132812 478.571289062 l 1
 453.142578125 474.571289062 438.286132812 467.428710938 429.428710938 457.428710938 c 1
 448.571289062 464.857421875 468.571289062 468.286132812 488 460 c 0
 508.286132812 451.142578125 524.857421875 430.286132812 522 407.428710938 c 0
 520.571289062 397.713867188 517.142578125 390 512.286132812 384 c 1
 535.142578125 383.713867188 557.428710938 379.142578125 580 378.286132812 c 0
 630.571289062 376.286132812 613.428710938 424.571289062 590.857421875 447.428710938 c 0
 559.142578125 479.428710938 507.142578125 493.142578125 464 478.286132812 c 1
482 422.857421875 m 2
 482 423.142578125 l 2
 477.428710938 424.286132812 472.571289062 425.142578125 468 426.286132812 c 0
 451.713867188 430 440.286132812 425.713867188 427.142578125 419.142578125 c 1
 433.142578125 411.428710938 442.571289062 405.713867188 452.571289062 403.142578125 c 0
 456.571289062 402 465.713867188 399.428710938 469.713867188 401.142578125 c 0
 473.713867188 408.286132812 478 415.713867188 482 422.857421875 c 2
746 -146.571289062 m 0
 754.857421875 -154.286132812 757.142578125 -153.142578125 752.286132812 -143.142578125 c 0
 752.286132812 -133.142578125 746.286132812 -125.142578125 738 -118.571289062 c 1
 737.713867188 -122.857421875 737.428710938 -126.857421875 738 -130.571289062 c 0
 734.286132812 -139.428710938 736.857421875 -144.857421875 746 -146.571289062 c 0
EndSplineSet
EndChar

StartChar: brokenbar
Encoding: 166 166 32
Width: 1000
Flags: H
LayerCount: 2
Fore
SplineSet
549.142578125 282.857421875 m 1
 549.142578125 283.142578125 l 1
 557.142578125 269.713867188 559.142578125 253.713867188 555.428710938 238.857421875 c 0
 552 224.286132812 542 209.142578125 528 202.286132812 c 0
 518.286132812 197.713867188 508 197.142578125 498.286132812 199.713867188 c 0
 485.713867188 200.571289062 473.713867188 205.428710938 464.857421875 214.286132812 c 0
 447.713867188 231.428710938 442.571289062 262.286132812 460.286132812 280.857421875 c 0
 460.571289062 286.286132812 462.286132812 291.428710938 465.142578125 296 c 0
 475.428710938 312.286132812 496.857421875 316.286132812 514.571289062 310.286132812 c 0
 528.857421875 305.142578125 541.428710938 295.713867188 549.142578125 282.857421875 c 1
539.142578125 84.2861328125 m 1
 539.142578125 84 l 2
 568.286132812 58.857421875 564.571289062 13.7138671875 548.571289062 -17.4287109375 c 0
 534 -45.7138671875 506.286132812 -67.4287109375 475.428710938 -74.5712890625 c 0
 466 -76.5712890625 456 -71.7138671875 453.428710938 -62 c 0
 451.142578125 -52.857421875 456.571289062 -42.2861328125 466 -40 c 0
 476 -37.7138671875 482 -35.142578125 490.857421875 -29.4287109375 c 0
 496.857421875 -25.4287109375 505.142578125 -18 509.142578125 -12.857421875 c 0
 513.142578125 -8 516.286132812 -2.2861328125 518.857421875 3.4287109375 c 1
 515.713867188 1.7138671875 512.286132812 0 508.571289062 -0.857421875 c 0
 487.142578125 -5.142578125 465.428710938 6.2861328125 457.428710938 26.857421875 c 0
 454 36.2861328125 454.286132812 46.2861328125 456.857421875 55.7138671875 c 1
 456.857421875 55.7138671875 l 1
 457.142578125 75.142578125 470.571289062 90.2861328125 488.571289062 96.2861328125 c 0
 490.857421875 97.142578125 492.857421875 97.142578125 494.857421875 97.4287109375 c 0
 507.142578125 104 522.857421875 102.857421875 533.142578125 91.4287109375 c 0
 534.286132812 90 534.857421875 88.2861328125 536 86.5712890625 c 0
 536.857421875 85.7138671875 539.142578125 84.2861328125 539.142578125 84.2861328125 c 1
EndSplineSet
EndChar

StartChar: section
Encoding: 167 167 33
Width: 1000
Flags: H
LayerCount: 2
Fore
SplineSet
742.286132812 -9.142578125 m 2
 742.286132812 -8.5712890625 l 2
 747.142578125 13.7138671875 780 4.2861328125 775.428710938 -18 c 0
 748.571289062 -145.142578125 622.571289062 -231.713867188 499.713867188 -187.713867188 c 0
 450.571289062 -170.286132812 391.428710938 -126.571289062 388 -67.4287109375 c 0
 386 -36.2861328125 398.857421875 -12.857421875 418 4.857421875 c 1
 375.713867188 12 335.713867188 34 303.428710938 67.142578125 c 0
 251.713867188 120.571289062 199.713867188 213.142578125 238 288.286132812 c 0
 280.571289062 372 377.713867188 367.428710938 454.286132812 388.571289062 c 0
 535.713867188 410.857421875 425.428710938 482 388.286132812 484 c 0
 374 484.857421875 357.428710938 482 343.142578125 475.142578125 c 1
 362.857421875 452.286132812 377.428710938 422 356.286132812 394.286132812 c 0
 335.428710938 366.857421875 294.571289062 378.571289062 281.142578125 407.428710938 c 0
 279.428710938 411.428710938 278 415.713867188 277.142578125 420 c 0
 238 438.286132812 202 466 185.428710938 507.142578125 c 0
 169.142578125 547.713867188 177.713867188 589.142578125 205.713867188 622 c 0
 254 678.571289062 336.286132812 719.428710938 411.428710938 710 c 0
 489.428710938 700 554.857421875 638.857421875 567.713867188 560.857421875 c 0
 573.428710938 527.428710938 569.142578125 489.142578125 537.428710938 470 c 0
 525.428710938 462.857421875 512 459.713867188 498.286132812 459.713867188 c 1
 525.713867188 428.571289062 537.142578125 390.571289062 492.857421875 364.571289062 c 0
 453.713867188 341.713867188 401.428710938 344.857421875 358.571289062 333.142578125 c 0
 303.713867188 318.286132812 250.286132812 279.428710938 260.857421875 213.428710938 c 0
 276.571289062 114.857421875 380 15.4287109375 478.857421875 39.4287109375 c 0
 488 42.857421875 497.142578125 46 506 48.857421875 c 0
 524.286132812 54.5712890625 537.142578125 24.2861328125 519.142578125 16.2861328125 c 0
 517.713867188 15.7138671875 516.286132812 15.4287109375 514.857421875 14.857421875 c 0
 514.857421875 14.5712890625 514.857421875 14.5712890625 514.857421875 14.5712890625 c 2
 468 -0 394.857421875 -32 432.571289062 -96 c 0
 456.286132812 -135.713867188 504.571289062 -158.571289062 548 -163.428710938 c 0
 643.142578125 -174.286132812 722.571289062 -102.571289062 742.286132812 -9.142578125 c 2
497.142578125 495.142578125 m 0
 562.571289062 492.286132812 526.286132812 589.428710938 505.713867188 617.142578125 c 0
 504.857421875 618.286132812 503.713867188 619.142578125 502.857421875 620.286132812 c 1
 502.571289062 620 502.571289062 619.428710938 502 619.428710938 c 0
 477.428710938 603.428710938 455.428710938 578.857421875 454.857421875 548 c 0
 454.286132812 522.857421875 469.713867188 496.286132812 497.142578125 495.142578125 c 0
314.857421875 418.286132812 m 2
 315.142578125 418.286132812 l 2
 330.857421875 418 336 422.571289062 330.286132812 432.571289062 c 0
 329.713867188 439.713867188 324.286132812 446.286132812 318.286132812 452 c 1
 310.571289062 442.857421875 309.428710938 431.713867188 314.857421875 418.286132812 c 2
309.142578125 493.428710938 m 2
 309.713867188 493.428710938 l 2
 340.286132812 518.286132812 381.428710938 524.286132812 418.571289062 514 c 0
 421.142578125 513.428710938 424 512.286132812 427.142578125 511.142578125 c 1
 420 529.142578125 418 548.857421875 421.713867188 567.713867188 c 0
 428.286132812 600.286132812 450.857421875 626.857421875 477.713867188 645.713867188 c 1
 442.857421875 672 396.857421875 681.713867188 353.713867188 671.428710938 c 0
 325.713867188 664.857421875 300 652 276.286132812 635.713867188 c 0
 254.571289062 620.857421875 230.857421875 602.286132812 219.428710938 578 c 0
 194.857421875 525.713867188 238.857421875 481.713867188 282 457.428710938 c 1
 287.713867188 471.428710938 297.713867188 484.286132812 309.142578125 493.428710938 c 2
EndSplineSet
EndChar

StartChar: dieresis
Encoding: 168 168 34
Width: 1000
Flags: H
LayerCount: 2
Fore
SplineSet
577.428710938 162.571289062 m 1
 578 162.286132812 l 1
 521.428710938 174.857421875 452 218.857421875 475.428710938 287.713867188 c 0
 478.857421875 297.428710938 483.142578125 305.713867188 488.286132812 313.142578125 c 1
 462.857421875 312 437.142578125 310.857421875 411.713867188 309.713867188 c 0
 389.713867188 308.571289062 389.713867188 343.713867188 411.713867188 344.571289062 c 0
 455.428710938 346.571289062 499.142578125 348.571289062 542.857421875 350.571289062 c 0
 576.571289062 360.857421875 616.571289062 359.428710938 650 355.428710938 c 0
 671.428710938 352.857421875 672.571289062 321.713867188 650 320.571289062 c 0
 615.428710938 319.142578125 581.142578125 317.428710938 546.571289062 316 c 0
 542.571289062 314.286132812 538.857421875 312.286132812 535.142578125 310 c 0
 499.428710938 286.857421875 496.286132812 243.142578125 532.286132812 218.286132812 c 0
 588.286132812 179.142578125 674.571289062 182.286132812 725.142578125 228.571289062 c 0
 771.713867188 270.857421875 776.571289062 338 745.713867188 391.713867188 c 0
 713.713867188 447.142578125 649.428710938 475.713867188 588.857421875 481.713867188 c 0
 476.857421875 492.857421875 341.428710938 452.857421875 269.142578125 360.857421875 c 0
 232.286132812 313.713867188 213.713867188 251.713867188 226.857421875 192 c 0
 240.571289062 130.286132812 287.428710938 88.857421875 344 68 c 0
 457.142578125 26.2861328125 598.571289062 40.2861328125 713.713867188 66 c 0
 725.428710938 68.5712890625 734.286132812 60.857421875 735.428710938 49.142578125 c 0
 743.713867188 -28.5712890625 752 -106 760.286132812 -183.713867188 c 0
 762.286132812 -202.571289062 736.857421875 -205.142578125 728.286132812 -192.571289062 c 0
 674.571289062 -114.857421875 577.142578125 -102 490.857421875 -108.571289062 c 0
 402.571289062 -115.428710938 316.286132812 -138 234.286132812 -171.713867188 c 0
 213.713867188 -180 204.857421875 -146.286132812 225.142578125 -138 c 0
 364.857421875 -80.2861328125 592.857421875 -20.857421875 720.571289062 -133.713867188 c 1
 714.857421875 -79.4287109375 708.857421875 -25.4287109375 703.142578125 28.5712890625 c 1
 611.713867188 10.2861328125 517.713867188 4.2861328125 424.857421875 15.142578125 c 0
 345.142578125 24.5712890625 260.571289062 52.2861328125 216.286132812 126 c 0
 135.428710938 260.857421875 235.142578125 415.713867188 359.142578125 474 c 0
 486.286132812 533.713867188 692.286132812 551.713867188 775.142578125 409.428710938 c 0
 809.142578125 350.857421875 808.571289062 275.713867188 765.713867188 222 c 0
 720.286132812 165.428710938 645.713867188 147.142578125 577.428710938 162.571289062 c 1
EndSplineSet
EndChar

StartChar: copyright
Encoding: 169 169 35
Width: 1000
Flags: H
LayerCount: 2
Fore
SplineSet
833.713867188 351.142578125 m 0
 868.571289062 278.286132812 874.286132812 165.713867188 829.713867188 95.142578125 c 0
 786.857421875 27.142578125 677.428710938 -3.7138671875 601.428710938 7.7138671875 c 0
 558.286132812 14.2861328125 519.428710938 38.2861328125 497.428710938 72.2861328125 c 1
 472.857421875 32.857421875 429.142578125 5.142578125 380 -0 c 0
 294 -9.142578125 217.142578125 44.2861328125 174.857421875 115.713867188 c 0
 130 191.428710938 122.571289062 290 173.428710938 364.857421875 c 0
 206.571289062 413.428710938 254 436.571289062 306.571289062 447.428710938 c 1
 294.286132812 456.286132812 283.713867188 467.428710938 275.713867188 480.571289062 c 0
 234.571289062 547.713867188 260 640.286132812 319.713867188 687.428710938 c 0
 382.286132812 737.142578125 469.142578125 739.713867188 538.286132812 702.286132812 c 0
 612 662.286132812 653.713867188 585.142578125 663.713867188 504 c 0
 689.713867188 494.571289062 713.428710938 481.428710938 731.142578125 466 c 0
 738.286132812 459.713867188 737.713867188 452 734 446 c 1
 776.857421875 428.857421875 812.857421875 394.857421875 833.713867188 351.142578125 c 0
684.286132812 456.857421875 m 2
 684.571289062 456.857421875 l 1
 645.713867188 480.571289062 597.142578125 488 553.142578125 474 c 0
 545.428710938 471.428710938 537.713867188 468.571289062 530.571289062 464.857421875 c 0
 516.857421875 457.428710938 516.571289062 458.857421875 522.857421875 442.571289062 c 0
 530.286132812 424 535.142578125 428.857421875 552.857421875 432.286132812 c 0
 558.571289062 433.428710938 564 435.142578125 569.713867188 436.571289062 c 0
 596 443.428710938 621.713867188 452 648.571289062 456 c 0
 660.571289062 457.713867188 672.571289062 457.713867188 684.286132812 456.857421875 c 2
292 560.571289062 m 1
 292 560.857421875 l 1
 291.428710938 550.571289062 292 540 294.286132812 529.713867188 c 0
 300 504 316 476.857421875 342.571289062 468.286132812 c 0
 364.286132812 461.142578125 392.857421875 469.428710938 400 493.142578125 c 0
 407.428710938 517.142578125 396 560.571289062 374.571289062 575.713867188 c 0
 348.857421875 594 316 575.142578125 292 560.571289062 c 1
811.713867188 137.713867188 m 1
 811.428710938 137.142578125 l 1
 849.142578125 240.857421875 812.286132812 421.428710938 675.713867188 422.857421875 c 0
 622.286132812 423.428710938 564.286132812 381.428710938 511.428710938 395.713867188 c 0
 475.142578125 405.428710938 461.713867188 444.571289062 485.428710938 473.428710938 c 0
 518.857421875 514 574 522.571289062 626.286132812 513.142578125 c 1
 615.713867188 576.286132812 581.428710938 635.142578125 525.428710938 667.713867188 c 0
 475.142578125 696.857421875 412 700.857421875 360.857421875 671.428710938 c 0
 334.857421875 656.571289062 314.571289062 632.857421875 302.571289062 605.713867188 c 1
 334.286132812 619.713867188 369.142578125 625.713867188 398.571289062 602.286132812 c 0
 429.428710938 577.428710938 445.713867188 521.142578125 434.571289062 483.428710938 c 0
 430.571289062 470.286132812 423.142578125 459.142578125 413.713867188 450.571289062 c 0
 422 440.857421875 417.713867188 421.428710938 400.857421875 421.142578125 c 0
 330.571289062 419.713867188 254.857421875 412.857421875 208.857421875 352.857421875 c 0
 164.571289062 295.142578125 164.857421875 217.428710938 194.857421875 153.142578125 c 0
 224 90.5712890625 284 35.7138671875 356 33.4287109375 c 0
 414.571289062 31.7138671875 466.857421875 66.5712890625 480.286132812 119.713867188 c 0
 478.571289062 134 479.142578125 148.857421875 483.428710938 164.571289062 c 0
 488.857421875 185.142578125 515.713867188 178.286132812 517.713867188 160 c 0
 519.428710938 144.571289062 518.571289062 129.713867188 515.428710938 115.713867188 c 0
 526.571289062 63.4287109375 592 36.5712890625 645.713867188 40.5712890625 c 0
 708.857421875 45.4287109375 788.571289062 74 811.713867188 137.713867188 c 1
EndSplineSet
EndChar

StartChar: ordfeminine
Encoding: 170 170 36
Width: 1000
Flags: H
LayerCount: 2
Fore
SplineSet
708.571289062 10.857421875 m 1
 708.286132812 10.857421875 l 1
 711.142578125 -53.142578125 714 -116.857421875 716.857421875 -180.857421875 c 0
 717.428710938 -194.286132812 700.857421875 -205.428710938 690 -197.142578125 c 0
 626.286132812 -149.142578125 529.142578125 -147.713867188 453.713867188 -147.713867188 c 0
 369.713867188 -148 287.142578125 -162 207.142578125 -188.286132812 c 0
 185.142578125 -195.428710938 175.713867188 -158.857421875 197.713867188 -151.713867188 c 0
 284.286132812 -123.428710938 374.857421875 -108.857421875 465.428710938 -110 c 0
 533.142578125 -110.857421875 616 -114 680 -147.142578125 c 1
 678 -102.857421875 676 -58.857421875 674 -14.5712890625 c 1
 613.428710938 -32.857421875 550 -36.5712890625 487.713867188 -25.142578125 c 0
 427.428710938 -14 356 12.5712890625 314.286132812 62.5712890625 c 0
 243.713867188 147.713867188 301.428710938 257.142578125 382.571289062 302.857421875 c 1
 362.857421875 301.428710938 342.286132812 309.713867188 327.142578125 330.857421875 c 0
 298.286132812 371.142578125 310.286132812 418.571289062 337.428710938 454.571289062 c 1
 324 444.857421875 311.713867188 430 303.713867188 418.857421875 c 0
 214.286132812 296.571289062 260 131.428710938 298.571289062 -1.142578125 c 0
 305.142578125 -24.5712890625 270.857421875 -34.2861328125 264 -11.142578125 c 0
 235.142578125 88 205.713867188 191.713867188 220 296.286132812 c 0
 230 369.428710938 268 472.571289062 341.142578125 500 c 0
 358 506.571289062 373.142578125 504.857421875 386.286132812 498.286132812 c 0
 386.571289062 498.286132812 387.142578125 498.857421875 387.428710938 498.857421875 c 0
 448 531.428710938 521.428710938 523.713867188 572.857421875 476 c 0
 608.857421875 442.571289062 664.286132812 340.286132812 606 301.713867188 c 0
 576.857421875 282.286132812 529.428710938 296 497.428710938 294.286132812 c 0
 450.571289062 292 402 280 365.142578125 247.713867188 c 0
 331.713867188 218.571289062 310.571289062 171.142578125 322 125.142578125 c 0
 334.571289062 75.7138671875 384.286132812 49.142578125 426 32.2861328125 c 0
 509.713867188 -2 601.428710938 -2 686 29.142578125 c 0
 697.428710938 33.4287109375 708 22.2861328125 708.571289062 10.857421875 c 1
365.713867188 433.713867188 m 1
 365.428710938 434 l 1
 346.571289062 410 330.857421875 337.142578125 381.713867188 341.142578125 c 0
 428 344.857421875 400.857421875 421.428710938 387.713867188 446.286132812 c 0
 386.571289062 448.571289062 385.428710938 450.571289062 384 452.286132812 c 0
 377.428710938 446.857421875 371.142578125 440.571289062 365.713867188 433.713867188 c 1
415.428710938 470.571289062 m 1
 435.142578125 441.428710938 445.142578125 399.142578125 443.142578125 369.142578125 c 0
 441.713867188 347.713867188 432.286132812 330.286132812 419.142578125 318.857421875 c 1
 446.286132812 327.428710938 474.857421875 331.428710938 503.142578125 332.286132812 c 0
 530.571289062 333.428710938 600 315.713867188 592.286132812 366.571289062 c 0
 581.713867188 437.142578125 518 488 451.428710938 480.571289062 c 0
 439.142578125 479.142578125 427.142578125 475.428710938 415.428710938 470.571289062 c 1
EndSplineSet
EndChar

StartChar: guillemotleft
Encoding: 171 171 37
Width: 1000
Flags: H
LayerCount: 2
Fore
SplineSet
615.142578125 172.286132812 m 1
 615.428710938 172.571289062 l 1
 621.428710938 164.571289062 616.857421875 152.571289062 609.142578125 148 c 0
 600 142.571289062 590.286132812 146.571289062 584.571289062 154.286132812 c 0
 557.713867188 190.857421875 527.142578125 224.857421875 493.713867188 255.428710938 c 0
 462 221.713867188 430.571289062 188 399.142578125 154.286132812 c 0
 383.428710938 137.428710938 358.286132812 162.571289062 374 179.428710938 c 0
 404.857421875 212.571289062 435.428710938 245.428710938 466.286132812 278.286132812 c 1
 439.428710938 300.571289062 411.713867188 321.428710938 382 339.428710938 c 0
 362.286132812 351.428710938 380.286132812 382.286132812 400 370.286132812 c 0
 432 350.857421875 462 328.286132812 490.571289062 304.286132812 c 0
 515.142578125 330.571289062 540 357.142578125 564.571289062 383.428710938 c 0
 580.286132812 400.286132812 605.428710938 375.142578125 589.713867188 358.286132812 c 0
 565.713867188 332.571289062 541.713867188 307.142578125 517.713867188 281.428710938 c 1
 553.428710938 248.286132812 586 211.713867188 615.142578125 172.286132812 c 1
EndSplineSet
EndChar

StartChar: logicalnot
Encoding: 172 172 38
Width: 1000
Flags: H
LayerCount: 2
Fore
SplineSet
605.713867188 308.286132812 m 1
 605.428710938 308 l 1
 628.571289062 307.713867188 628.286132812 272.286132812 605.428710938 272.286132812 c 2
 511.142578125 273.142578125 l 2
 510.571289062 241.142578125 508.571289062 208.857421875 504.571289062 176.857421875 c 0
 503.428710938 167.428710938 497.428710938 159.142578125 486.857421875 159.142578125 c 0
 478.286132812 159.142578125 468 167.142578125 469.142578125 176.857421875 c 0
 473.142578125 209.142578125 475.142578125 241.428710938 475.713867188 273.713867188 c 1
 448.857421875 274 421.713867188 274.571289062 394.857421875 274.571289062 c 0
 371.713867188 274.857421875 372 310.286132812 394.857421875 310.286132812 c 0
 422 310 448.857421875 309.428710938 476 309.428710938 c 1
 475.428710938 342 473.713867188 374.571289062 469.713867188 406.857421875 c 0
 468.286132812 416.286132812 478.571289062 424.571289062 487.428710938 424.571289062 c 0
 497.713867188 424.571289062 504 416.571289062 505.142578125 406.857421875 c 0
 508.857421875 374.286132812 510.857421875 341.713867188 511.428710938 309.142578125 c 0
 542.857421875 308.857421875 574.286132812 308.571289062 605.713867188 308.286132812 c 1
EndSplineSet
EndChar

StartChar: uni00AD
Encoding: 173 173 39
Width: 1000
Flags: H
LayerCount: 2
Fore
SplineSet
620.286132812 275.713867188 m 0
 642.571289062 275.713867188 642.571289062 240 620.286132812 240 c 0
 540.857421875 240.286132812 461.142578125 240.571289062 381.713867188 240.857421875 c 0
 359.428710938 240.857421875 359.428710938 276.571289062 381.713867188 276.571289062 c 0
 461.142578125 276.286132812 540.857421875 276 620.286132812 275.713867188 c 0
548.571289062 400 m 1
 548.571289062 400.286132812 l 1
 560.857421875 383.428710938 561.428710938 357.428710938 549.142578125 340.286132812 c 0
 542.571289062 331.428710938 534.571289062 325.428710938 524.571289062 321.428710938 c 0
 515.713867188 317.713867188 506.286132812 317.428710938 497.142578125 318.857421875 c 0
 479.142578125 321.713867188 464.286132812 336.571289062 459.713867188 354 c 0
 457.142578125 362.571289062 457.142578125 372.571289062 460 380.857421875 c 0
 463.428710938 390.571289062 469.428710938 398.286132812 478 404.286132812 c 0
 492 414.286132812 511.428710938 415.142578125 526.571289062 407.428710938 c 0
 530.286132812 408.857421875 534.571289062 409.142578125 538 408.286132812 c 0
 542.571289062 406.857421875 545.713867188 404 548.571289062 400 c 1
508.286132812 353.428710938 m 1
 508.571289062 353.428710938 l 2
 510.286132812 354 511.713867188 354.286132812 513.428710938 354.857421875 c 0
 514.571289062 355.428710938 515.428710938 356 516.571289062 356.571289062 c 0
 517.428710938 357.428710938 518.286132812 358.286132812 519.142578125 359.142578125 c 0
 519.713867188 360 520.286132812 361.142578125 520.857421875 362 c 0
 521.142578125 363.428710938 521.713867188 364.857421875 522 366.571289062 c 0
 522 368.286132812 522 370.286132812 522 372 c 0
 521.713867188 372.571289062 521.428710938 373.142578125 521.428710938 373.713867188 c 1
 518 373.428710938 514.857421875 373.713867188 511.713867188 375.142578125 c 0
 510 375.713867188 508.571289062 376 506.857421875 376.286132812 c 0
 506 376.286132812 504.857421875 376.286132812 504 376.286132812 c 0
 502.571289062 376 501.142578125 375.713867188 499.713867188 375.142578125 c 0
 498.857421875 374.857421875 498 374.286132812 497.142578125 373.713867188 c 0
 496.571289062 373.142578125 495.713867188 372.571289062 495.142578125 371.713867188 c 0
 494.857421875 371.142578125 494.286132812 370.857421875 494.286132812 370.286132812 c 0
 494 369.713867188 493.713867188 368.857421875 493.713867188 368 c 0
 493.713867188 366.857421875 493.713867188 366 493.713867188 364.857421875 c 0
 494 363.713867188 494.571289062 362.286132812 494.857421875 361.142578125 c 0
 495.428710938 360 496 358.857421875 496.857421875 357.713867188 c 0
 497.713867188 356.857421875 498.286132812 356.286132812 498.857421875 355.713867188 c 0
 499.713867188 355.142578125 500.286132812 354.571289062 501.142578125 354.286132812 c 0
 502 354 503.142578125 353.428710938 504.286132812 353.428710938 c 0
 505.713867188 353.428710938 508.286132812 353.428710938 508.286132812 353.428710938 c 1
536 191.428710938 m 1
 535.713867188 191.428710938 l 1
 548.286132812 182 555.713867188 166.286132812 555.713867188 150 c 0
 555.428710938 131.142578125 545.142578125 110.857421875 527.713867188 102.571289062 c 0
 509.428710938 93.7138671875 485.713867188 95.7138671875 471.713867188 111.713867188 c 0
 457.142578125 128.286132812 456 153.142578125 468.286132812 171.428710938 c 0
 474 180 481.428710938 187.142578125 490.571289062 191.713867188 c 0
 498.286132812 195.713867188 506 197.713867188 514.286132812 199.142578125 c 0
 514.571289062 199.142578125 514.857421875 199.142578125 515.142578125 199.142578125 c 0
 517.142578125 199.428710938 519.142578125 200.286132812 521.142578125 200.286132812 c 0
 527.713867188 200.857421875 532.857421875 196.857421875 536 191.428710938 c 1
518.857421875 142.857421875 m 1
 519.142578125 143.142578125 l 2
 519.428710938 144 519.713867188 144.571289062 519.713867188 145.428710938 c 0
 520 146 520 146.857421875 520 147.428710938 c 0
 520 149.428710938 520 151.428710938 520 153.428710938 c 0
 519.713867188 155.142578125 519.428710938 156.571289062 518.857421875 158.286132812 c 0
 518.571289062 158.286132812 518.571289062 158.857421875 518.571289062 158.857421875 c 2
 518 159.713867188 517.428710938 160.571289062 516.857421875 161.428710938 c 0
 516.571289062 161.428710938 516.286132812 162 516.286132812 162 c 2
 516 162.286132812 515.713867188 162.571289062 515.428710938 162.857421875 c 0
 513.713867188 162.571289062 512 162.286132812 510.571289062 161.713867188 c 1
 510.571289062 161.713867188 l 1
 509.428710938 161.142578125 508.571289062 160.857421875 507.713867188 160.286132812 c 0
 506.857421875 159.713867188 506 159.142578125 505.142578125 158.571289062 c 0
 505.142578125 158.286132812 504.571289062 158 504.571289062 158 c 2
 503.142578125 156.571289062 501.428710938 155.428710938 500.286132812 154 c 1
 500.286132812 154 l 1
 499.713867188 153.428710938 499.142578125 152.286132812 498.571289062 151.428710938 c 0
 498.286132812 150.857421875 497.713867188 150 497.428710938 149.428710938 c 0
 497.142578125 148 496.857421875 146.857421875 496.571289062 145.428710938 c 0
 496.571289062 144 496.571289062 142.286132812 496.571289062 140.857421875 c 0
 496.857421875 140.286132812 496.857421875 139.713867188 496.857421875 139.142578125 c 2
 496.857421875 138.571289062 l 2
 497.142578125 137.713867188 497.713867188 136.857421875 498.286132812 136 c 0
 498.571289062 135.713867188 498.857421875 135.428710938 499.142578125 135.142578125 c 0
 499.428710938 134.857421875 499.428710938 134.857421875 499.428710938 134.857421875 c 2
 499.713867188 134.571289062 500.857421875 134.286132812 501.713867188 133.713867188 c 0
 502 133.713867188 502.286132812 133.713867188 502.571289062 133.713867188 c 0
 502.857421875 133.713867188 503.142578125 133.713867188 503.142578125 133.713867188 c 2
 504.857421875 133.713867188 506.286132812 133.713867188 508 133.713867188 c 0
 508.857421875 134 509.428710938 134.286132812 510.286132812 134.286132812 c 0
 510.571289062 134.286132812 510.857421875 134.286132812 511.142578125 134.286132812 c 0
 512 134.857421875 512.571289062 135.142578125 513.428710938 135.713867188 c 0
 514.286132812 136.571289062 515.428710938 137.428710938 516.286132812 138.286132812 c 1
 516.286132812 138.286132812 l 1
 516.571289062 138.571289062 516.857421875 138.857421875 516.857421875 139.142578125 c 0
 517.713867188 140.286132812 518.857421875 142.857421875 518.857421875 142.857421875 c 1
EndSplineSet
EndChar

StartChar: registered
Encoding: 174 174 40
Width: 1000
Flags: H
LayerCount: 2
Fore
SplineSet
744 695.142578125 m 1
 743.713867188 695.428710938 l 1
 958 604.571289062 943.142578125 324.857421875 904 137.713867188 c 0
 888 62 822 -32.5712890625 731.713867188 9.142578125 c 0
 700.571289062 23.4287109375 681.142578125 45.142578125 669.713867188 70.857421875 c 1
 661.428710938 52.5712890625 651.142578125 35.4287109375 635.713867188 23.142578125 c 0
 574.571289062 -25.7138671875 506.571289062 33.7138671875 483.713867188 90.857421875 c 0
 455.713867188 160.571289062 436.286132812 261.428710938 468.571289062 332.571289062 c 0
 499.713867188 401.142578125 572.286132812 400.571289062 636.286132812 386 c 1
 639.142578125 452.571289062 563.713867188 486.286132812 503.142578125 483.713867188 c 0
 452.571289062 481.428710938 402.857421875 462.571289062 361.428710938 433.428710938 c 0
 370.857421875 420 379.428710938 406 386.571289062 392.571289062 c 0
 414.571289062 340.286132812 433.428710938 283.142578125 442 224.571289062 c 0
 449.428710938 174 454.286132812 114.286132812 435.142578125 65.4287109375 c 0
 420.286132812 27.142578125 384.286132812 -4.857421875 340.571289062 -0.2861328125 c 0
 309.428710938 3.142578125 286.857421875 20.5712890625 269.142578125 43.4287109375 c 1
 259.142578125 24 240.571289062 9.4287109375 213.713867188 8 c 0
 154 4.857421875 123.713867188 54.5712890625 106.571289062 103.713867188 c 1
 100.857421875 98.2861328125 95.142578125 92.857421875 89.4287109375 87.4287109375 c 0
 74.857421875 73.7138671875 48.857421875 92 60.857421875 109.428710938 c 0
 115.142578125 187.428710938 170.286132812 264.857421875 226.857421875 341.428710938 c 0
 253.142578125 376.857421875 280.571289062 411.428710938 313.142578125 440.286132812 c 0
 296 460 276 476 252.286132812 484.857421875 c 0
 224.286132812 495.142578125 186.286132812 493.142578125 164.857421875 470.571289062 c 1
 189.713867188 480.286132812 218.571289062 474.571289062 232.857421875 446 c 0
 251.428710938 408.857421875 223.428710938 370.286132812 184 367.428710938 c 0
 148.286132812 364.857421875 120.857421875 390.857421875 115.428710938 424.857421875 c 0
 109.142578125 466.286132812 135.713867188 503.142578125 173.713867188 518.286132812 c 0
 240 544.857421875 297.428710938 510.286132812 339.713867188 462 c 0
 354.571289062 472.857421875 370.857421875 482.571289062 388.286132812 490.571289062 c 0
 449.713867188 519.142578125 526.571289062 533.142578125 590.857421875 505.142578125 c 0
 648.571289062 480 684.286132812 420.571289062 669.713867188 358.857421875 c 0
 667.428710938 349.428710938 656.286132812 343.713867188 647.142578125 346.286132812 c 0
 591.142578125 361.428710938 518.286132812 374.286132812 496.857421875 304 c 0
 480.857421875 251.142578125 492.857421875 186.857421875 507.428710938 135.142578125 c 0
 515.713867188 106 526.857421875 72.5712890625 553.142578125 54 c 0
 587.428710938 30 616.857421875 46.2861328125 633.713867188 78.857421875 c 0
 643.428710938 97.4287109375 650.571289062 117.713867188 656.571289062 138.286132812 c 0
 656 180.571289062 666 225.428710938 676.857421875 262.857421875 c 0
 682.286132812 282 713.713867188 278.571289062 712.571289062 258 c 0
 710.571289062 214.857421875 703.713867188 172.571289062 691.713867188 131.142578125 c 0
 693.142578125 113.428710938 697.428710938 96 707.142578125 79.7138671875 c 0
 736.286132812 31.142578125 793.713867188 22 833.142578125 65.142578125 c 0
 871.428710938 106.857421875 874.571289062 173.428710938 881.428710938 226.286132812 c 0
 888.286132812 280.571289062 893.713867188 335.428710938 890.571289062 390 c 0
 884.857421875 488.857421875 847.142578125 595.713867188 756.571289062 648.571289062 c 0
 662.857421875 703.428710938 546.286132812 684 470.857421875 608.286132812 c 0
 454.571289062 591.713867188 428.571289062 617.142578125 445.142578125 633.713867188 c 0
 523.142578125 712.286132812 640.857421875 738.857421875 744 695.142578125 c 1
184.857421875 403.713867188 m 2
 185.142578125 403.713867188 l 2
 208.857421875 410.571289062 202.857421875 419.142578125 166.857421875 429.428710938 c 0
 163.428710938 424.571289062 158.857421875 422.286132812 154 421.713867188 c 1
 154.571289062 420 154.571289062 418.571289062 155.428710938 417.142578125 c 0
 162.286132812 406 172.286132812 401.428710938 184.857421875 403.713867188 c 2
375.713867188 331.713867188 m 0
 365.428710938 357.142578125 351.713867188 385.713867188 334.571289062 411.713867188 c 1
 334.286132812 411.428710938 333.713867188 411.142578125 333.142578125 410.571289062 c 0
 286.286132812 367.713867188 250.857421875 312.857421875 214 262 c 0
 186 223.428710938 158.571289062 184.286132812 131.142578125 145.428710938 c 0
 131.713867188 144.286132812 132.857421875 143.428710938 133.142578125 142 c 0
 141.428710938 111.428710938 150 73.7138671875 178 54.5712890625 c 0
 211.713867188 31.142578125 259.428710938 55.142578125 237.142578125 98.2861328125 c 0
 227.428710938 119.142578125 257.713867188 137.428710938 268.571289062 116.571289062 c 0
 283.142578125 85.4287109375 301.428710938 42.5712890625 340.286132812 35.7138671875 c 0
 396 25.7138671875 409.142578125 94.857421875 411.142578125 133.428710938 c 0
 414.571289062 200.857421875 401.428710938 269.428710938 375.713867188 331.713867188 c 0
EndSplineSet
EndChar

StartChar: macron
Encoding: 175 175 41
Width: 1000
Flags: H
LayerCount: 2
Fore
SplineSet
924 322 m 2
 924.571289062 321.713867188 l 2
 931.713867188 257.713867188 928.857421875 192.286132812 915.428710938 129.142578125 c 0
 905.428710938 82 886.286132812 32.5712890625 840 10.857421875 c 0
 781.713867188 -16.2861328125 722.571289062 11.142578125 696.571289062 59.142578125 c 1
 686.857421875 41.4287109375 673.428710938 26.2861328125 654 15.7138671875 c 0
 615.713867188 -5.142578125 571.713867188 5.4287109375 542.857421875 36.857421875 c 0
 512.857421875 69.4287109375 504.857421875 115.142578125 499.142578125 157.428710938 c 0
 493.142578125 200.857421875 492 248.286132812 518.857421875 285.428710938 c 0
 540.286132812 315.142578125 574 331.713867188 610.286132812 325.142578125 c 0
 627.428710938 322 649.142578125 314 649.142578125 338.857421875 c 0
 649.142578125 350.857421875 636.857421875 364.286132812 629.142578125 372.286132812 c 0
 612.857421875 389.142578125 591.713867188 401.142578125 569.428710938 408.286132812 c 0
 511.713867188 426.571289062 455.428710938 413.142578125 403.713867188 386.857421875 c 1
 420.857421875 367.428710938 435.428710938 346 446.286132812 324.286132812 c 0
 470.571289062 274.571289062 482.286132812 219.713867188 486.286132812 164.857421875 c 0
 489.713867188 118 485.142578125 65.7138671875 450 30.857421875 c 0
 421.428710938 2.5712890625 378.286132812 -8 342.286132812 13.142578125 c 0
 324.857421875 23.4287109375 312.286132812 38.5712890625 302.286132812 55.7138671875 c 1
 286.857421875 23.142578125 253.428710938 0 213.428710938 4.2861328125 c 0
 158.286132812 10 119.713867188 56.2861328125 108 107.428710938 c 1
 100.571289062 97.7138671875 92.857421875 88.2861328125 85.4287109375 78.5712890625 c 0
 74.2861328125 64.5712890625 51.4287109375 82.857421875 60.857421875 97.4287109375 c 0
 121.142578125 188.857421875 194.286132812 271.428710938 279.713867188 340.286132812 c 0
 302.571289062 358.571289062 326.571289062 376.571289062 352 392.857421875 c 1
 327.428710938 412.286132812 298.857421875 426.286132812 267.142578125 431.142578125 c 0
 256 432.857421875 242.571289062 432.571289062 229.428710938 430.286132812 c 1
 241.142578125 425.142578125 251.428710938 416.571289062 258 403.142578125 c 0
 276.857421875 365.428710938 252.286132812 321.142578125 209.713867188 317.713867188 c 0
 170.286132812 314.571289062 142.286132812 352.571289062 146.286132812 389.713867188 c 0
 150.571289062 430.286132812 188.571289062 456.857421875 226.571289062 462.571289062 c 0
 283.428710938 471.428710938 337.713867188 447.428710938 380.286132812 409.713867188 c 0
 420.857421875 431.713867188 464.286132812 447.142578125 511.142578125 447.713867188 c 0
 575.142578125 448.571289062 666.857421875 414.286132812 679.713867188 342.857421875 c 0
 685.142578125 311.713867188 665.713867188 286.571289062 633.142578125 288.571289062 c 0
 605.713867188 290.286132812 586 302 560.571289062 284.286132812 c 0
 535.142578125 266.571289062 526.857421875 235.713867188 526 206.286132812 c 0
 524.857421875 159.713867188 532.571289062 90 567.428710938 55.4287109375 c 0
 593.428710938 29.7138671875 631.713867188 30 656.857421875 57.142578125 c 0
 671.713867188 73.142578125 678.857421875 93.4287109375 682.286132812 114.286132812 c 0
 682.286132812 122.857421875 683.142578125 131.428710938 685.142578125 140.286132812 c 0
 689.142578125 157.428710938 716.571289062 153.713867188 715.713867188 136.286132812 c 0
 715.428710938 128.286132812 714.286132812 120.286132812 713.142578125 112.286132812 c 0
 713.142578125 38.5712890625 812.286132812 -0.5712890625 859.142578125 68 c 0
 880.857421875 100 887.142578125 142.857421875 892 180.286132812 c 0
 897.142578125 219.428710938 898 259.142578125 895.142578125 298.571289062 c 0
 891.713867188 345.713867188 885.142578125 411.713867188 853.428710938 453.713867188 c 0
 853.142578125 454.286132812 852.571289062 454.857421875 852.286132812 455.428710938 c 0
 845.142578125 464.571289062 837.142578125 472.857421875 827.142578125 479.142578125 c 0
 772.571289062 512.857421875 703.142578125 494.571289062 643.428710938 492 c 0
 594 489.713867188 536.571289062 496 503.713867188 537.428710938 c 0
 472.286132812 577.142578125 491.428710938 620.571289062 526.857421875 649.713867188 c 0
 610.286132812 718.286132812 731.428710938 740.286132812 827.713867188 685.142578125 c 0
 901.142578125 642.857421875 972.286132812 524.286132812 887.142578125 459.713867188 c 0
 911.428710938 418.857421875 918.857421875 368 924 322 c 2
868.286132812 484.286132812 m 0
 938.286132812 535.428710938 860.571289062 631.713867188 807.428710938 660.571289062 c 0
 743.713867188 695.142578125 667.142578125 691.713867188 602.571289062 661.142578125 c 0
 576.286132812 648.571289062 542.286132812 630.286132812 526 605.142578125 c 0
 500.857421875 566 544.286132812 535.428710938 578.571289062 527.142578125 c 0
 636.571289062 513.428710938 696.286132812 532.286132812 754.857421875 529.428710938 c 0
 797.142578125 527.428710938 839.142578125 515.142578125 868.286132812 484.286132812 c 0
233.428710938 374.571289062 m 1
 233.142578125 374.571289062 l 1
 236 406.571289062 197.713867188 412 179.428710938 394.571289062 c 0
 179.142578125 394 178.571289062 394 178.286132812 393.713867188 c 0
 177.428710938 390 176.571289062 386 176.571289062 381.713867188 c 0
 177.142578125 346.857421875 230 336.857421875 233.428710938 374.571289062 c 1
418.857421875 308.857421875 m 1
 419.142578125 308.286132812 l 1
 408.286132812 330.857421875 393.428710938 352.571289062 376 371.142578125 c 0
 346.286132812 353.142578125 318.571289062 332 293.713867188 311.428710938 c 0
 234.857421875 262.857421875 182.286132812 208.286132812 135.713867188 148.286132812 c 1
 135.713867188 148.286132812 l 1
 132.857421875 105.713867188 152 61.4287109375 192.571289062 42.2861328125 c 0
 239.142578125 20.2861328125 290.857421875 58 278.286132812 109.142578125 c 0
 273.428710938 128.857421875 301.428710938 136 308.286132812 117.428710938 c 0
 318.286132812 90.5712890625 331.142578125 55.7138671875 357.713867188 40.2861328125 c 0
 397.428710938 17.142578125 438 53.7138671875 449.428710938 90.857421875 c 0
 469.713867188 157.428710938 448.571289062 248 418.857421875 308.857421875 c 1
EndSplineSet
EndChar

StartChar: degree
Encoding: 176 176 42
Width: 1000
Flags: H
LayerCount: 2
Fore
SplineSet
878 316 m 2
 877.428710938 315.713867188 l 2
 892.286132812 219.428710938 897.428710938 80.857421875 804.857421875 16.857421875 c 0
 767.713867188 -8.5712890625 718.286132812 -5.7138671875 690.857421875 31.7138671875 c 0
 682.286132812 43.7138671875 675.428710938 57.7138671875 670 72.5712890625 c 1
 660.286132812 47.142578125 642.857421875 26 612.571289062 15.4287109375 c 0
 551.713867188 -5.7138671875 490.571289062 40 470 94.2861328125 c 0
 444.857421875 160.286132812 456.571289062 262.857421875 496.857421875 321.713867188 c 0
 523.428710938 360.857421875 574.571289062 380.857421875 617.428710938 364.857421875 c 1
 612 418.857421875 566.286132812 465.142578125 508.857421875 466.286132812 c 0
 464.857421875 467.142578125 426.571289062 447.713867188 393.713867188 421.142578125 c 0
 415.713867188 384.286132812 429.428710938 341.713867188 435.713867188 301.142578125 c 0
 444.857421875 243.428710938 449.713867188 179.428710938 443.428710938 121.142578125 c 0
 439.142578125 81.142578125 423.713867188 39.4287109375 387.713867188 16.5712890625 c 0
 336.571289062 -15.7138671875 282 2 252.286132812 41.142578125 c 1
 239.142578125 21.4287109375 218.857421875 6.2861328125 193.428710938 2 c 0
 148.286132812 -5.7138671875 108.571289062 23.4287109375 92.857421875 62.2861328125 c 1
 89.4287109375 58.5712890625 85.7138671875 55.142578125 82 51.4287109375 c 0
 65.4287109375 34.857421875 42.857421875 59.142578125 56.857421875 76.2861328125 c 0
 117.713867188 151.428710938 178.857421875 226.571289062 240 301.713867188 c 0
 273.713867188 343.428710938 306.857421875 389.428710938 346.571289062 427.142578125 c 0
 340.286132812 434.286132812 334 441.428710938 326.571289062 448 c 0
 304.857421875 467.142578125 275.428710938 483.142578125 245.428710938 483.142578125 c 1
 262.857421875 474 275.142578125 458.286132812 273.428710938 434 c 0
 270.857421875 394 225.713867188 372.286132812 190.857421875 390.571289062 c 0
 161.713867188 406 152.857421875 438.857421875 163.713867188 467.428710938 c 0
 161.428710938 476 164.571289062 486 175.428710938 489.142578125 c 0
 176 489.428710938 176.571289062 489.428710938 177.142578125 489.428710938 c 0
 202.286132812 518.571289062 245.142578125 523.428710938 282 512.857421875 c 0
 320 502 350 479.142578125 373.428710938 450.571289062 c 0
 382.286132812 457.428710938 391.713867188 464 401.428710938 470 c 0
 458 504 532.857421875 515.428710938 589.713867188 475.713867188 c 0
 637.713867188 442.286132812 659.713867188 386 651.428710938 329.713867188 c 0
 649.428710938 316 630.286132812 313.713867188 621.713867188 322 c 0
 575.428710938 366 522.571289062 306.857421875 509.142578125 264.286132812 c 0
 495.713867188 221.428710938 488.571289062 169.713867188 498 125.713867188 c 0
 507.142578125 82 553.428710938 25.7138671875 605.428710938 50 c 0
 656 73.4287109375 647.142578125 143.428710938 640.857421875 187.142578125 c 0
 638 208.857421875 669.428710938 219.142578125 675.428710938 196.571289062 c 0
 686.286132812 156 694.571289062 113.428710938 709.142578125 74.2861328125 c 0
 735.428710938 4.2861328125 798.286132812 46 823.142578125 92.2861328125 c 0
 866.857421875 173.713867188 850 270.571289062 834.857421875 356.857421875 c 0
 822 428.571289062 805.713867188 507.428710938 733.142578125 543.142578125 c 0
 697.428710938 560.571289062 657.142578125 563.713867188 619.142578125 552.857421875 c 0
 590.286132812 544.571289062 561.713867188 530.857421875 530.857421875 533.713867188 c 0
 480.571289062 538.286132812 453.428710938 589.713867188 468 635.142578125 c 0
 486.857421875 694 554.571289062 712.571289062 610.286132812 714.857421875 c 0
 676.857421875 717.713867188 762.571289062 716.571289062 824.571289062 688.857421875 c 0
 867.713867188 669.713867188 899.713867188 624.857421875 878 578.571289062 c 0
 864 548.571289062 835.428710938 532.286132812 805.428710938 531.428710938 c 1
 854.571289062 474.571289062 866.571289062 390.571289062 878 316 c 2
849.713867188 609.142578125 m 0
 850 632 829.713867188 647.713867188 810.857421875 656.286132812 c 0
 793.142578125 664.571289062 773.428710938 669.142578125 753.142578125 672 c 1
 753.428710938 668.857421875 753.428710938 665.713867188 752 662.286132812 c 0
 734.571289062 621.713867188 757.142578125 552.857421875 814.286132812 566.857421875 c 0
 832.857421875 571.428710938 849.713867188 589.713867188 849.713867188 609.142578125 c 0
587.428710938 579.713867188 m 1
 587.428710938 579.142578125 l 1
 631.713867188 593.428710938 674.286132812 598.571289062 718 586 c 1
 706.286132812 613.713867188 708 646 719.428710938 675.142578125 c 1
 712 676 704.286132812 676.571289062 696.857421875 677.142578125 c 0
 659.428710938 680.286132812 620 682.857421875 582.571289062 677.142578125 c 0
 545.713867188 671.713867188 496.571289062 650 500.571289062 605.428710938 c 0
 504.571289062 557.713867188 555.428710938 569.142578125 587.428710938 579.713867188 c 1
201.713867188 426 m 2
 201.713867188 425.713867188 l 2
 230.571289062 416.857421875 241.713867188 423.428710938 235.713867188 445.713867188 c 0
 223.713867188 456.857421875 211.142578125 461.142578125 198 459.142578125 c 0
 190.286132812 449.428710938 188.857421875 437.428710938 201.713867188 426 c 2
400.571289062 298.571289062 m 0
 394.857421875 332.857421875 384.571289062 367.142578125 367.428710938 397.428710938 c 1
 360 390 352.857421875 382.571289062 346 374.857421875 c 0
 267.428710938 286.857421875 195.142578125 192.857421875 121.428710938 100.571289062 c 0
 121.713867188 99.7138671875 121.713867188 99.142578125 121.713867188 98.2861328125 c 0
 121.428710938 62.857421875 154.286132812 27.4287109375 192.857421875 38 c 0
 215.428710938 44 229.428710938 63.7138671875 232.857421875 84.857421875 c 0
 230.286132812 96.857421875 229.428710938 109.713867188 231.428710938 122.857421875 c 0
 234 141.142578125 261.428710938 138 266 122.857421875 c 0
 270 109.428710938 270.857421875 95.4287109375 268.857421875 82 c 0
 277.713867188 54.5712890625 303.428710938 34 335.713867188 35.7138671875 c 0
 371.713867188 37.7138671875 393.713867188 65.142578125 403.428710938 96.857421875 c 0
 412.857421875 128 410 161.713867188 408.857421875 193.713867188 c 0
 407.713867188 228.857421875 406.286132812 264 400.571289062 298.571289062 c 0
EndSplineSet
EndChar

StartChar: plusminus
Encoding: 177 177 43
Width: 1000
Flags: H
LayerCount: 2
Fore
SplineSet
669.142578125 8.2861328125 m 1
 668.857421875 7.7138671875 l 1
 686.286132812 7.7138671875 690.571289062 -12.2861328125 682 -22.2861328125 c 0
 668.571289062 -135.713867188 566.571289062 -218.857421875 451.142578125 -198.571289062 c 0
 406.857421875 -190.857421875 330.286132812 -159.428710938 342.571289062 -101.713867188 c 0
 348 -76.857421875 366.857421875 -55.4287109375 390.286132812 -37.4287109375 c 1
 321.142578125 -40 252 -27.142578125 188 1.7138671875 c 0
 154 17.142578125 116.857421875 37.7138671875 99.142578125 72.2861328125 c 0
 81.7138671875 106.571289062 91.7138671875 146 108.857421875 178.286132812 c 0
 145.142578125 246.571289062 211.713867188 298.857421875 284.571289062 323.142578125 c 0
 328.857421875 338 384.286132812 332.857421875 422.857421875 361.428710938 c 0
 478.571289062 402.571289062 424.286132812 464.857421875 375.428710938 477.713867188 c 0
 332.571289062 489.142578125 276.286132812 482.286132812 238.286132812 458 c 0
 234 455.428710938 230.286132812 452.286132812 226.571289062 448.857421875 c 1
 253.142578125 453.713867188 281.428710938 442.857421875 290.286132812 411.713867188 c 0
 303.713867188 364.571289062 256 322.857421875 211.428710938 342.571289062 c 0
 166.571289062 362.286132812 160.571289062 416.286132812 184.571289062 454.571289062 c 0
 213.428710938 500.571289062 276.857421875 516.571289062 327.713867188 518.286132812 c 0
 377.428710938 520 432 504 462.286132812 461.713867188 c 0
 492.571289062 419.428710938 487.428710938 364.857421875 444.857421875 333.142578125 c 0
 396 296.571289062 328.571289062 304.571289062 273.713867188 280.857421875 c 0
 216.857421875 256.571289062 164.857421875 211.713867188 137.428710938 155.713867188 c 0
 115.428710938 110 130.857421875 74.857421875 172.571289062 50 c 0
 202.571289062 32 236.286132812 19.4287109375 270 10.5712890625 c 0
 339.142578125 -7.4287109375 411.142578125 -6.2861328125 480.286132812 11.7138671875 c 0
 503.142578125 17.4287109375 510.571289062 -14.5712890625 489.713867188 -22.857421875 c 0
 462 -33.7138671875 353.713867188 -84.857421875 385.428710938 -130 c 0
 406.286132812 -159.428710938 464.857421875 -167.428710938 497.428710938 -165.428710938 c 0
 577.713867188 -160.571289062 640.286132812 -94.5712890625 647.428710938 -15.7138671875 c 0
 647.713867188 -10.857421875 650 -7.142578125 652.857421875 -4.2861328125 c 0
 654.571289062 2.5712890625 660 8.2861328125 669.142578125 8.2861328125 c 1
255.713867188 402.571289062 m 0
 249.142578125 420 224.571289062 417.428710938 215.428710938 404.286132812 c 0
 213.142578125 401.142578125 210.286132812 399.142578125 207.428710938 398 c 0
 210 386.857421875 216.857421875 376.857421875 228.571289062 374 c 0
 244 370.571289062 262 386.286132812 255.713867188 402.571289062 c 0
873.713867188 46.857421875 m 0
 896 51.142578125 905.713867188 16.5712890625 883.142578125 12.2861328125 c 0
 760 -12 552.286132812 14.857421875 544.571289062 176.571289062 c 0
 541.142578125 252 586.571289062 319.428710938 633.713867188 374 c 0
 663.713867188 408.857421875 698 439.428710938 734.857421875 466.286132812 c 1
 560.857421875 438 l 2
 551.428710938 436.571289062 541.428710938 440.286132812 538.857421875 450.571289062 c 0
 536.571289062 459.142578125 541.713867188 471.142578125 551.428710938 472.571289062 c 0
 635.428710938 486.286132812 719.428710938 499.713867188 803.428710938 513.428710938 c 0
 806 513.428710938 808.286132812 513.713867188 810.571289062 513.428710938 c 0
 828.857421875 518.857421875 843.428710938 491.713867188 824.571289062 481.428710938 c 0
 768.857421875 451.142578125 718 412.857421875 674.571289062 366.286132812 c 0
 632.571289062 321.142578125 588 264.571289062 581.142578125 200.857421875 c 0
 564.857421875 49.142578125 766.286132812 25.7138671875 873.713867188 46.857421875 c 0
EndSplineSet
EndChar

StartChar: acute
Encoding: 180 180 44
Width: 1000
Flags: H
LayerCount: 2
Fore
SplineSet
786.571289062 470 m 1
 786.857421875 470.857421875 l 1
 772.857421875 454.286132812 749.713867188 478.571289062 763.428710938 494.857421875 c 0
 803.713867188 542.571289062 760.857421875 602.857421875 722.857421875 634 c 0
 687.142578125 663.428710938 642.571289062 680.857421875 597.142578125 683.142578125 c 0
 548.286132812 685.428710938 505.428710938 670.857421875 469.142578125 644.857421875 c 1
 500.286132812 642.286132812 531.142578125 638 561.142578125 630.286132812 c 0
 628 612.857421875 689.142578125 576.286132812 726 515.142578125 c 0
 802 388.857421875 798.857421875 197.713867188 706.571289062 81.4287109375 c 0
 666.286132812 30.857421875 604.286132812 -10.857421875 538.286132812 4 c 0
 510 10.2861328125 486 28 471.428710938 51.4287109375 c 1
 434.857421875 6.857421875 363.142578125 -6 307.428710938 21.4287109375 c 0
 230.571289062 59.142578125 180.571289062 152 188.286132812 238.857421875 c 0
 195.428710938 318.857421875 254.571289062 388.857421875 333.713867188 398.857421875 c 0
 359.428710938 402.286132812 399.713867188 399.428710938 414.857421875 373.142578125 c 1
 425.142578125 390 442 403.142578125 461.713867188 407.428710938 c 0
 507.428710938 417.142578125 552.571289062 384.286132812 566.571289062 340 c 0
 600.857421875 231.142578125 459.428710938 165.142578125 388.286132812 241.713867188 c 0
 373.142578125 258 362 281.142578125 363.428710938 304.286132812 c 0
 364.286132812 314.571289062 367.713867188 324.286132812 373.142578125 333.142578125 c 0
 381.428710938 346.571289062 394.857421875 358.286132812 369.428710938 364.286132812 c 0
 304.286132812 379.713867188 239.142578125 321.428710938 224.571289062 259.428710938 c 0
 208.286132812 188.571289062 240.857421875 109.142578125 297.142578125 66.857421875 c 0
 347.428710938 28.857421875 434.857421875 32.5712890625 456.857421875 91.7138671875 c 0
 455.142578125 106.286132812 456.857421875 121.428710938 462.571289062 136.571289062 c 0
 469.428710938 154.571289062 493.142578125 151.428710938 494.857421875 132 c 0
 496 116.857421875 494.571289062 102.857421875 491.142578125 90.2861328125 c 0
 496.286132812 63.7138671875 517.713867188 42.2861328125 546.857421875 36.2861328125 c 0
 590.286132812 27.142578125 632 51.4287109375 662.286132812 81.4287109375 c 0
 716.571289062 135.428710938 742.571289062 213.428710938 744.857421875 290 c 0
 747.142578125 359.713867188 733.428710938 437.428710938 697.142578125 497.428710938 c 0
 660 558.857421875 594.857421875 589.428710938 527.713867188 602.286132812 c 0
 496.571289062 608.286132812 465.142578125 610.857421875 433.428710938 612.857421875 c 0
 416.571289062 595.142578125 401.713867188 574.857421875 389.142578125 552.286132812 c 0
 364.286132812 507.428710938 301.713867188 456.857421875 261.713867188 516.571289062 c 0
 228.857421875 565.713867188 266.571289062 622 314 640 c 0
 346.857421875 652.571289062 383.142578125 650.286132812 418 648 c 0
 485.142578125 711.142578125 583.428710938 733.713867188 670.857421875 701.142578125 c 0
 753.428710938 670 864 562 786.571289062 470 c 1
444.286132812 341.713867188 m 0
 442.857421875 340.286132812 441.428710938 339.428710938 440 338.571289062 c 1
 442.571289062 335.428710938 447.428710938 332.571289062 453.713867188 328.857421875 c 0
 467.142578125 313.713867188 474.571289062 315.713867188 476.857421875 334.857421875 c 2
 467.713867188 342.286132812 l 2
 458.571289062 349.142578125 453.142578125 351.428710938 444.286132812 341.713867188 c 0
407.142578125 321.428710938 m 1
 392.286132812 296.571289062 399.713867188 271.428710938 424 254.286132812 c 0
 471.428710938 220.857421875 550.857421875 254.571289062 537.428710938 321.142578125 c 0
 532.571289062 344.571289062 513.142578125 367.713867188 489.713867188 373.142578125 c 1
 502.857421875 364 511.713867188 348.286132812 508.857421875 327.428710938 c 0
 502.286132812 279.142578125 443.713867188 264.857421875 415.713867188 303.713867188 c 0
 411.713867188 309.428710938 408.857421875 315.428710938 407.142578125 321.428710938 c 1
343.713867188 542 m 2
 343.428710938 542.286132812 l 2
 362 563.428710938 372 592.286132812 388.857421875 615.142578125 c 1
 361.713867188 616.286132812 333.428710938 615.428710938 310 600.571289062 c 0
 291.713867188 588.857421875 276.857421875 567.142578125 284.571289062 544.286132812 c 0
 294.571289062 514.286132812 328 523.713867188 343.713867188 542 c 2
EndSplineSet
EndChar

StartChar: mu
Encoding: 181 181 45
Width: 1000
Flags: H
LayerCount: 2
Fore
SplineSet
551.713867188 -34 m 2
 551.428710938 -33.142578125 l 2
 558.286132812 -11.7138671875 591.428710938 -20.857421875 584.571289062 -42.5712890625 c 0
 551.428710938 -147.713867188 431.142578125 -233.713867188 323.428710938 -185.142578125 c 0
 274 -162.857421875 239.142578125 -106.286132812 255.428710938 -50.5712890625 c 0
 260.571289062 -33.142578125 269.713867188 -18.857421875 281.142578125 -7.142578125 c 1
 217.713867188 -6.857421875 155.428710938 6.5712890625 107.428710938 54.2861328125 c 0
 48.2861328125 112.857421875 48 202.286132812 96.2861328125 268 c 0
 120.857421875 301.713867188 155.428710938 324.857421875 193.713867188 339.142578125 c 0
 240 356.286132812 284.286132812 353.713867188 332.286132812 356.286132812 c 0
 382 359.142578125 361.713867188 407.142578125 344.286132812 432 c 0
 328.857421875 454 306.571289062 472.857421875 280.857421875 480.286132812 c 0
 264.857421875 484.857421875 244.857421875 484.571289062 228.286132812 477.713867188 c 1
 251.428710938 475.428710938 271.713867188 463.428710938 277.142578125 434 c 0
 285.142578125 391.142578125 239.142578125 359.142578125 202.286132812 375.428710938 c 0
 179.428710938 385.428710938 167.142578125 406.857421875 165.142578125 429.713867188 c 0
 153.428710938 434.286132812 147.428710938 453.142578125 161.713867188 461.428710938 c 0
 164.571289062 462.857421875 167.713867188 464.286132812 170.571289062 465.713867188 c 0
 172.286132812 469.428710938 174 473.428710938 176.286132812 477.142578125 c 0
 199.713867188 515.142578125 250 525.428710938 290 513.713867188 c 0
 331.428710938 501.428710938 366.857421875 467.428710938 386 428.286132812 c 0
 402.857421875 393.428710938 407.428710938 345.142578125 366.286132812 326.857421875 c 0
 343.142578125 316.286132812 316.286132812 321.142578125 291.713867188 320.571289062 c 0
 265.142578125 319.713867188 238.286132812 316 212.857421875 307.713867188 c 0
 156.286132812 289.142578125 105.713867188 244.286132812 96 181.428710938 c 0
 86.2861328125 117.142578125 132 65.142578125 187.142578125 42.5712890625 c 0
 242.571289062 20 304.286132812 25.142578125 362.857421875 32 c 0
 370 33.142578125 377.428710938 34 384.571289062 34.5712890625 c 0
 407.142578125 36 406 2 384.571289062 -0.5712890625 c 0
 339.142578125 -3.4287109375 282 -29.142578125 286 -85.4287109375 c 0
 289.428710938 -136.286132812 340.857421875 -163.428710938 385.142578125 -163.428710938 c 0
 461.428710938 -164 528.571289062 -107.142578125 551.713867188 -34 c 2
234.286132812 408.286132812 m 0
 238.857421875 438.571289062 228.857421875 450.286132812 204.857421875 442.571289062 c 0
 202.857421875 442 201.142578125 441.142578125 199.142578125 440.571289062 c 0
 198.857421875 423.713867188 212.286132812 392.857421875 234.286132812 408.286132812 c 0
895.428710938 374 m 1
 930.286132812 342.286132812 942.571289062 292 938.286132812 246 c 0
 932.857421875 188.857421875 912 122.571289062 875.713867188 76.857421875 c 0
 837.428710938 28.5712890625 780.286132812 12.5712890625 720.571289062 28.5712890625 c 0
 678 40 637.142578125 68.2861328125 594.286132812 83.7138671875 c 0
 580.857421875 68.2861328125 566.571289062 54 551.142578125 40.857421875 c 0
 528 21.4287109375 493.142578125 -8.5712890625 460 2 c 0
 430.857421875 11.4287109375 426.286132812 45.4287109375 437.142578125 70 c 0
 462.571289062 127.428710938 524.286132812 134.571289062 579.713867188 122.857421875 c 0
 608.857421875 159.713867188 632.857421875 200.857421875 655.428710938 241.713867188 c 0
 685.713867188 296.571289062 724.286132812 374 703.428710938 438.571289062 c 0
 675.142578125 525.713867188 572.286132812 405.428710938 550.286132812 370.286132812 c 0
 538 350.571289062 506.571289062 368.571289062 518.857421875 388.286132812 c 0
 552.857421875 442.571289062 652 555.713867188 719.428710938 482.857421875 c 0
 725.142578125 476.857421875 729.428710938 469.713867188 732.857421875 462.571289062 c 1
 766 515.142578125 838.857421875 539.142578125 891.428710938 497.428710938 c 0
 932 465.428710938 930.857421875 405.142578125 895.428710938 374 c 1
754 422.857421875 m 1
 754.286132812 423.142578125 l 1
 750.857421875 411.428710938 750 393.713867188 767.713867188 392.286132812 c 0
 775.428710938 391.713867188 785.713867188 397.142578125 793.428710938 399.142578125 c 0
 816.857421875 405.142578125 840.571289062 403.713867188 862.571289062 394.857421875 c 0
 887.713867188 407.428710938 894.857421875 441.713867188 875.428710938 463.713867188 c 0
 852.571289062 489.428710938 813.142578125 488.286132812 786.857421875 469.142578125 c 0
 771.713867188 458 759.142578125 440.857421875 754 422.857421875 c 1
550.857421875 90 m 1
 551.142578125 89.7138671875 l 1
 552 90.857421875 552.857421875 92 554 93.142578125 c 1
 545.713867188 94 537.428710938 94 528.857421875 93.142578125 c 0
 513.142578125 91.142578125 497.428710938 85.4287109375 485.428710938 75.142578125 c 0
 477.713867188 68.5712890625 453.142578125 37.4287109375 480 36.857421875 c 0
 490.857421875 36.5712890625 509.142578125 53.142578125 516.571289062 58.857421875 c 0
 528.857421875 68.2861328125 540 78.857421875 550.857421875 90 c 1
866.286132812 129.428710938 m 1
 866.286132812 129.142578125 l 1
 896 188.286132812 934 313.428710938 860.286132812 356 c 0
 852.857421875 355.142578125 846.857421875 358.286132812 843.428710938 363.428710938 c 0
 809.142578125 374.571289062 772.857421875 344.286132812 740.857421875 362.857421875 c 1
 733.428710938 316.286132812 713.428710938 272.571289062 691.142578125 231.142578125 c 0
 669.142578125 190.857421875 645.428710938 149.428710938 617.142578125 112 c 1
 622 110.286132812 626.571289062 108.571289062 630.857421875 106.571289062 c 0
 672.286132812 88 713.142578125 60.857421875 760 58 c 0
 810.286132812 54.857421875 845.142578125 87.7138671875 866.286132812 129.428710938 c 1
EndSplineSet
EndChar

StartChar: threequarters
Encoding: 190 190 46
Width: 1000
Flags: H
LayerCount: 2
Fore
SplineSet
661.713867188 421.713867188 m 2
 661.142578125 421.142578125 l 1
 737.428710938 326.857421875 742.857421875 172 675.428710938 70.5712890625 c 0
 643.142578125 22 590.857421875 2.857421875 534.286132812 0.2861328125 c 0
 476 -2.5712890625 406 -2.2861328125 363.713867188 43.4287109375 c 0
 284.286132812 129.428710938 264 266.571289062 295.142578125 376.571289062 c 0
 301.428710938 398.857421875 310.286132812 419.713867188 320.571289062 439.713867188 c 0
 320.571289062 440.286132812 320.571289062 440.857421875 320.571289062 441.428710938 c 0
 325.428710938 491.142578125 330.286132812 541.142578125 335.142578125 590.857421875 c 0
 336 599.713867188 337.428710938 609.142578125 338.571289062 618.571289062 c 1
 322.857421875 618 306.857421875 619.713867188 294 630 c 0
 270.571289062 648.857421875 272 688.857421875 297.428710938 705.713867188 c 0
 325.428710938 724.286132812 363.713867188 708.857421875 373.428710938 677.428710938 c 0
 376 669.713867188 376.571289062 661.428710938 376.571289062 653.428710938 c 0
 383.142578125 652.571289062 389.428710938 650.857421875 395.428710938 647.142578125 c 0
 412.286132812 637.142578125 422.857421875 614.286132812 413.142578125 595.713867188 c 0
 404.286132812 579.142578125 386.571289062 574.286132812 370 580 c 1
 369.713867188 574.571289062 369.142578125 569.428710938 368.571289062 564 c 0
 366.571289062 544.571289062 364.857421875 524.857421875 362.857421875 505.428710938 c 1
 372 518 381.713867188 530 391.713867188 541.713867188 c 0
 440.857421875 599.713867188 493.142578125 654.857421875 546.571289062 708.571289062 c 0
 562.571289062 725.142578125 588 699.713867188 571.713867188 683.428710938 c 0
 525.142578125 636.571289062 479.713867188 588.571289062 436 538.857421875 c 0
 419.142578125 519.428710938 402.286132812 499.713867188 387.142578125 479.142578125 c 1
 477.713867188 527.428710938 593.142578125 506.286132812 661.713867188 421.713867188 c 2
314.571289062 660.286132812 m 1
 314.286132812 660.286132812 l 1
 318.571289062 653.713867188 328.571289062 654.571289062 335.428710938 654.571289062 c 0
 337.142578125 654.571289062 338.857421875 654.571289062 340.571289062 654.571289062 c 1
 340.571289062 656.286132812 340.571289062 658 340.571289062 659.713867188 c 0
 340 667.142578125 338 674.286132812 330.857421875 677.428710938 c 0
 325.713867188 679.713867188 318.571289062 679.142578125 315.142578125 674.571289062 c 0
 312.286132812 670.857421875 312 664.286132812 314.571289062 660.286132812 c 1
653.428710938 102.857421875 m 0
 704.857421875 196.857421875 699.142578125 331.142578125 623.713867188 410.857421875 c 0
 551.142578125 487.713867188 431.713867188 488.857421875 357.713867188 412.857421875 c 0
 353.428710938 408.571289062 348.857421875 407.428710938 344.286132812 407.713867188 c 0
 341.142578125 400.857421875 338.571289062 394 336 387.142578125 c 0
 303.428710938 294.857421875 313.142578125 188.286132812 364 104.286132812 c 0
 381.428710938 75.4287109375 402 49.142578125 436.857421875 42 c 0
 461.428710938 36.857421875 488.571289062 36.2861328125 513.428710938 36.2861328125 c 0
 571.142578125 35.7138671875 623.713867188 48.857421875 653.428710938 102.857421875 c 0
EndSplineSet
EndChar

StartChar: questiondown
Encoding: 191 191 47
Width: 1000
Flags: H
LayerCount: 2
Fore
SplineSet
828.286132812 401.428710938 m 2
 828.286132812 401.142578125 l 2
 835.428710938 342.857421875 833.142578125 284 813.713867188 228.286132812 c 0
 779.142578125 129.428710938 701.142578125 51.7138671875 601.713867188 18 c 0
 510.571289062 -12.857421875 394.857421875 -8 324.857421875 64.5712890625 c 0
 265.713867188 125.713867188 243.713867188 226.286132812 286.857421875 302.286132812 c 0
 302.857421875 330.286132812 326.571289062 351.428710938 355.713867188 361.428710938 c 1
 347.142578125 359.428710938 338.286132812 359.142578125 328.857421875 361.428710938 c 0
 288.286132812 371.142578125 270.857421875 415.713867188 283.713867188 452.571289062 c 1
 261.713867188 439.142578125 246.286132812 416.857421875 235.142578125 393.713867188 c 0
 182.571289062 283.713867188 195.713867188 150 258.286132812 47.4287109375 c 0
 269.713867188 28.5712890625 240.286132812 11.7138671875 228.857421875 30.2861328125 c 0
 163.142578125 138.571289062 149.142578125 275.713867188 198 393.428710938 c 0
 218.571289062 443.142578125 255.142578125 493.142578125 313.142578125 498.571289062 c 0
 316 498.857421875 318.857421875 498.571289062 321.713867188 498.571289062 c 0
 382.286132812 535.713867188 486.571289062 509.713867188 515.428710938 445.428710938 c 0
 530.286132812 412.286132812 524.286132812 367.713867188 493.713867188 345.428710938 c 0
 443.428710938 308.286132812 377.713867188 357.713867188 331.428710938 306 c 0
 291.142578125 261.142578125 291.142578125 191.142578125 315.428710938 138.857421875 c 0
 340.857421875 84 389.713867188 48.5712890625 449.142578125 38 c 0
 563.142578125 17.4287109375 680.286132812 73.7138671875 744.857421875 166.571289062 c 0
 656.286132812 232 589.713867188 322 553.713867188 426 c 0
 535.713867188 478 525.713867188 532.857421875 524.857421875 587.713867188 c 0
 524 630.857421875 523.428710938 687.428710938 569.142578125 708.571289062 c 0
 612.571289062 728.571289062 657.428710938 703.142578125 694.571289062 681.142578125 c 0
 740.286132812 654 774.286132812 622.571289062 792.857421875 571.713867188 c 0
 812.286132812 518.286132812 821.428710938 457.713867188 828.286132812 401.428710938 c 2
312.857421875 425.142578125 m 0
 314.857421875 400.286132812 341.713867188 387.713867188 360 403.428710938 c 0
 380.857421875 421.142578125 364.571289062 450.286132812 344.857421875 460 c 0
 340.857421875 462 336.857421875 463.142578125 332.857421875 464 c 0
 321.142578125 454.286132812 311.713867188 440.571289062 312.857421875 425.142578125 c 0
403.713867188 422 m 2
 403.428710938 421.713867188 l 2
 402.286132812 395.142578125 384.571289062 371.713867188 360.857421875 363.142578125 c 1
 371.142578125 366.286132812 382.286132812 367.713867188 393.713867188 367.713867188 c 0
 424.857421875 367.428710938 472 352.857421875 486.286132812 391.142578125 c 0
 498.286132812 422.571289062 474.571289062 452.286132812 448 466 c 0
 427.142578125 476.857421875 400 482.857421875 374.857421875 480.286132812 c 1
 392.857421875 466.857421875 404.857421875 446.286132812 403.713867188 422 c 2
770.286132812 211.142578125 m 2
 770.571289062 211.142578125 l 2
 801.713867188 278.571289062 802.857421875 350.857421875 791.428710938 423.142578125 c 0
 782 482.571289062 775.142578125 560 734.857421875 607.713867188 c 0
 706 641.713867188 582.286132812 728.857421875 562.571289062 648 c 0
 549.142578125 592.857421875 561.428710938 523.713867188 576 470 c 0
 605.713867188 360.857421875 671.428710938 263.428710938 762.571289062 196 c 1
 765.142578125 200.857421875 768 206 770.286132812 211.142578125 c 2
EndSplineSet
EndChar

StartChar: Agrave
Encoding: 192 192 48
Width: 1000
Flags: H
LayerCount: 2
Fore
SplineSet
625.713867188 528.571289062 m 1
 625.428710938 529.428710938 l 1
 712 483.142578125 754.571289062 384.286132812 758 290 c 0
 760 234 750.571289062 176 733.428710938 122.571289062 c 0
 719.428710938 78.2861328125 695.428710938 34.2861328125 652 12.857421875 c 0
 612.857421875 -6.5712890625 565.713867188 -2.857421875 534.571289062 29.4287109375 c 0
 518.571289062 46.2861328125 509.713867188 66.2861328125 504.286132812 87.7138671875 c 1
 482.857421875 44.857421875 450.857421875 9.142578125 398.571289062 5.4287109375 c 0
 326.286132812 0.2861328125 258.286132812 63.142578125 222.571289062 120 c 0
 184.286132812 180.857421875 173.428710938 258.571289062 202.286132812 325.428710938 c 0
 231.142578125 392.286132812 299.142578125 437.428710938 372.571289062 432.857421875 c 0
 395.428710938 431.428710938 395.428710938 395.713867188 372.571289062 397.142578125 c 0
 312 400.857421875 257.142578125 364.857421875 234 309.428710938 c 0
 211.713867188 255.713867188 220.286132812 194.286132812 249.142578125 144.857421875 c 0
 276.571289062 98.2861328125 332 40.5712890625 390.286132812 40.5712890625 c 0
 458.286132812 40.5712890625 482.571289062 119.142578125 497.713867188 171.713867188 c 0
 503.428710938 190.857421875 532.857421875 187.142578125 532.857421875 166.857421875 c 0
 532.857421875 125.142578125 532.286132812 67.7138671875 573.428710938 43.4287109375 c 0
 614.286132812 19.4287109375 660 53.142578125 680.286132812 87.7138671875 c 0
 699.428710938 120.286132812 708.286132812 159.428710938 715.142578125 196.286132812 c 0
 717.142578125 206 718.571289062 216 719.713867188 226 c 1
 606.857421875 217.713867188 493.428710938 288.857421875 463.713867188 400.857421875 c 0
 455.428710938 432 456.571289062 466.286132812 470.571289062 494.857421875 c 1
 431.713867188 494.286132812 392.286132812 508.286132812 368.286132812 540.571289062 c 0
 342.286132812 575.428710938 338.571289062 626.571289062 366 661.713867188 c 0
 397.142578125 701.428710938 458.286132812 714.286132812 506.286132812 716 c 0
 610.571289062 720 708.571289062 661.713867188 756.286132812 570 c 0
 766.857421875 549.713867188 736 531.713867188 725.428710938 552 c 0
 676.857421875 644.857421875 571.713867188 697.428710938 467.713867188 675.428710938 c 0
 420.857421875 665.713867188 367.713867188 638.286132812 386.286132812 582 c 0
 402.286132812 534 458.286132812 522.286132812 502 534.857421875 c 0
 504.286132812 535.428710938 506.286132812 535.428710938 508.286132812 535.428710938 c 0
 544.286132812 556.286132812 589.713867188 547.713867188 625.713867188 528.571289062 c 1
524.857421875 352.857421875 m 1
 524.857421875 353.142578125 l 1
 569.142578125 287.428710938 645.142578125 255.142578125 722.857421875 261.713867188 c 0
 723.713867188 284.857421875 722.571289062 308 718.571289062 330.857421875 c 0
 706.286132812 399.428710938 668.286132812 467.428710938 604.286132812 499.713867188 c 0
 564.286132812 520 514 516.857421875 498 468.571289062 c 0
 485.142578125 429.428710938 503.142578125 385.428710938 524.857421875 352.857421875 c 1
EndSplineSet
EndChar

StartChar: Aacute
Encoding: 193 193 49
Width: 1000
Flags: H
LayerCount: 2
Fore
SplineSet
780.571289062 252 m 1
 780.286132812 252.286132812 l 1
 782 164.857421875 759.713867188 53.7138671875 665.142578125 19.7138671875 c 0
 614.857421875 1.7138671875 556.857421875 20.2861328125 528.857421875 58.857421875 c 1
 501.142578125 20.5712890625 451.428710938 -2.2861328125 400.571289062 0.857421875 c 0
 321.713867188 5.7138671875 256.571289062 61.7138671875 231.713867188 133.713867188 c 0
 206.857421875 205.142578125 221.142578125 289.428710938 271.428710938 347.142578125 c 0
 322 404.857421875 409.142578125 423.428710938 477.142578125 385.142578125 c 0
 496.571289062 374.286132812 479.142578125 344.857421875 459.713867188 355.713867188 c 0
 404.571289062 386.571289062 336.286132812 369.142578125 296.286132812 322.857421875 c 0
 258 278.571289062 246.286132812 214.286132812 260.571289062 158.857421875 c 0
 275.713867188 99.142578125 322.286132812 48.5712890625 385.142578125 36.857421875 c 0
 439.142578125 26.5712890625 497.428710938 53.142578125 512.857421875 103.142578125 c 0
 512.286132812 114.571289062 513.428710938 126.571289062 517.428710938 139.428710938 c 0
 523.428710938 158 550.286132812 154 551.428710938 134.857421875 c 0
 552 123.428710938 550.857421875 112.571289062 548.571289062 102.286132812 c 0
 553.428710938 70 584.571289062 46 620.571289062 46 c 0
 666.857421875 45.7138671875 703.428710938 79.4287109375 722.571289062 118.286132812 c 0
 733.428710938 140.571289062 740 164.571289062 743.713867188 189.713867188 c 1
 692 191.142578125 649.428710938 221.142578125 615.713867188 258.286132812 c 0
 580 297.713867188 542.571289062 343.142578125 532.857421875 396.286132812 c 0
 528.571289062 419.713867188 530 443.713867188 537.428710938 465.428710938 c 1
 490 455.428710938 440.571289062 448.571289062 394.286132812 466.571289062 c 0
 352.571289062 482.857421875 321.142578125 516.857421875 317.713867188 561.713867188 c 0
 310.571289062 655.428710938 405.428710938 706.286132812 487.142578125 714 c 0
 566.286132812 721.428710938 677.428710938 713.428710938 712.571289062 630 c 0
 727.428710938 594 721.713867188 552.286132812 690.286132812 526.571289062 c 0
 687.142578125 524 683.428710938 521.713867188 680 519.428710938 c 1
 720 494.286132812 739.142578125 447.428710938 753.428710938 405.142578125 c 0
 770.286132812 356 779.428710938 304 780.571289062 252 c 1
685.428710938 600 m 1
 685.428710938 599.713867188 l 1
 681.428710938 626.857421875 662.286132812 648 638.571289062 660.857421875 c 1
 637.142578125 656.286132812 633.713867188 652.571289062 627.142578125 651.428710938 c 0
 597.142578125 646.571289062 571.713867188 619.142578125 575.713867188 588 c 0
 579.142578125 560 609.713867188 537.428710938 638 540 c 0
 668.571289062 542.857421875 690 570.571289062 685.428710938 600 c 1
363.713867188 530.571289062 m 1
 363.428710938 530.857421875 l 1
 403.142578125 472 489.428710938 490 547.428710938 503.142578125 c 0
 551.428710938 504 554.857421875 503.142578125 558 502 c 0
 561.713867188 506 565.713867188 509.713867188 570 513.428710938 c 0
 574 516.571289062 578 519.142578125 582 521.713867188 c 1
 552.286132812 541.428710938 534.857421875 575.713867188 542 611.142578125 c 0
 547.428710938 639.142578125 566.857421875 663.428710938 592.571289062 676.286132812 c 1
 576.286132812 679.142578125 559.428710938 680.571289062 543.142578125 681.142578125 c 0
 506.857421875 682.286132812 470 680.857421875 435.428710938 668.857421875 c 0
 381.713867188 650.286132812 325.142578125 587.713867188 363.713867188 530.571289062 c 1
634.571289062 288.857421875 m 2
 634.857421875 288.857421875 l 2
 664.286132812 255.142578125 700 224.571289062 747.142578125 223.713867188 c 0
 749.428710938 281.142578125 737.713867188 341.428710938 721.142578125 391.713867188 c 0
 708 431.428710938 688.857421875 488 641.713867188 499.428710938 c 0
 584 513.428710938 558 445.428710938 567.142578125 401.142578125 c 0
 576 358 606 321.428710938 634.571289062 288.857421875 c 2
EndSplineSet
EndChar

StartChar: Acircumflex
Encoding: 194 194 50
Width: 1000
Flags: H
LayerCount: 2
Fore
SplineSet
746.857421875 654.571289062 m 2
 746.286132812 654.571289062 l 2
 697.142578125 609.428710938 648.286132812 564.286132812 599.142578125 519.142578125 c 0
 592.286132812 512.857421875 584.857421875 506 577.142578125 499.428710938 c 1
 588.857421875 499.428710938 600.571289062 498 611.713867188 494.571289062 c 0
 675.713867188 474.286132812 701.713867188 403.428710938 677.713867188 349.428710938 c 0
 702.857421875 330.286132812 722.857421875 304 733.428710938 274.286132812 c 0
 788 122.857421875 635.713867188 -0.2861328125 493.428710938 1.7138671875 c 0
 362.571289062 3.7138671875 180 100 248.286132812 254.286132812 c 0
 277.142578125 319.713867188 339.428710938 350 406.857421875 362.571289062 c 0
 436.857421875 368 468 382.571289062 451.713867188 418.286132812 c 0
 442.857421875 437.713867188 421.428710938 452 399.713867188 455.428710938 c 1
 416 443.713867188 426.286132812 426 423.142578125 401.428710938 c 0
 418.286132812 362 371.142578125 343.713867188 338 364 c 0
 306.857421875 383.142578125 303.142578125 422.857421875 320 451.713867188 c 0
 318.571289062 459.428710938 321.713867188 467.428710938 331.713867188 469.142578125 c 0
 332.571289062 469.142578125 333.428710938 469.142578125 334.286132812 469.142578125 c 1
 334.286132812 469.142578125 l 1
 372.286132812 501.713867188 430.571289062 490.857421875 464.286132812 457.428710938 c 0
 469.428710938 452.286132812 473.713867188 446.571289062 477.428710938 440.286132812 c 1
 482 448.571289062 487.428710938 456.286132812 493.713867188 462.857421875 c 0
 494.571289062 463.713867188 495.428710938 464.286132812 496.286132812 465.142578125 c 1
 493.713867188 465.428710938 491.428710938 465.142578125 489.142578125 465.713867188 c 0
 448.571289062 472.857421875 430.857421875 513.142578125 438.571289062 550.286132812 c 0
 447.713867188 595.142578125 482.571289062 636.286132812 518.286132812 664 c 0
 552 690.286132812 594.857421875 710 638 714 c 0
 669.713867188 717.142578125 708.571289062 703.428710938 714 670 c 1
 717.142578125 672.571289062 720 675.428710938 723.142578125 678 c 0
 739.428710938 691.428710938 762.857421875 669.428710938 746.857421875 654.571289062 c 2
344.857421875 406.286132812 m 2
 344.857421875 406 l 2
 352.571289062 385.428710938 388.857421875 378 390.286132812 409.713867188 c 0
 391.142578125 431.428710938 369.142578125 438.286132812 350.857421875 438 c 0
 343.713867188 429.428710938 340.286132812 418.571289062 344.857421875 406.286132812 c 2
664.571289062 680 m 0
 645.142578125 689.142578125 608.857421875 676.286132812 587.142578125 666.857421875 c 0
 587.713867188 665.428710938 587.713867188 664 587.713867188 662 c 0
 585.142578125 631.428710938 617.713867188 631.142578125 637.428710938 633.142578125 c 0
 651.428710938 634.571289062 712.286132812 657.428710938 664.571289062 680 c 0
471.713867188 520 m 1
 472 520.286132812 l 1
 480.857421875 493.142578125 508.857421875 494.857421875 529.428710938 505.142578125 c 0
 538.286132812 509.428710938 546.286132812 515.713867188 554 522.286132812 c 0
 563.142578125 531.428710938 572.286132812 540.571289062 581.142578125 549.428710938 c 0
 598 566.286132812 615.713867188 582.571289062 633.142578125 598.857421875 c 1
 596 597.713867188 559.428710938 614 554.857421875 649.142578125 c 1
 524.571289062 629.428710938 498.571289062 602.857421875 482 570.857421875 c 0
 474.286132812 556.286132812 466.286132812 536.571289062 471.713867188 520 c 1
709.713867188 200 m 1
 710 199.428710938 l 1
 714.571289062 246.571289062 695.713867188 292.286132812 659.713867188 320.857421875 c 0
 653.713867188 314.571289062 647.142578125 308.857421875 639.428710938 304 c 0
 603.713867188 281.713867188 557.428710938 284.857421875 524 309.428710938 c 0
 506.857421875 322 495.713867188 338.857421875 489.713867188 357.142578125 c 0
 488 358.571289062 486.286132812 359.713867188 484.571289062 361.142578125 c 0
 482.857421875 362.571289062 482 364.286132812 480.571289062 365.713867188 c 1
 478.857421875 362.571289062 476.857421875 359.713867188 474.571289062 356.857421875 c 0
 444.571289062 322 384.857421875 330.286132812 345.713867188 309.428710938 c 0
 288.286132812 279.142578125 251.142578125 211.428710938 276 148 c 0
 297.142578125 93.4287109375 358 62.857421875 411.713867188 47.4287109375 c 0
 530.857421875 13.142578125 696.286132812 57.7138671875 709.713867188 200 c 1
535.428710938 344.857421875 m 1
 546.857421875 330.571289062 564.571289062 321.428710938 588.571289062 322.286132812 c 0
 605.713867188 322.857421875 619.713867188 329.142578125 630.286132812 338.857421875 c 1
 628.571289062 339.713867188 626.857421875 340.571289062 624.857421875 341.428710938 c 0
 597.713867188 352 565.142578125 344.571289062 535.428710938 344.857421875 c 1
634.286132812 442.286132812 m 2
 634 442.286132812 l 2
 609.428710938 468.286132812 572 472.286132812 542 457.713867188 c 0
 536.857421875 450.286132812 532 442.286132812 528.286132812 434.286132812 c 0
 520.571289062 418 518 399.713867188 520 382.857421875 c 0
 526 380.286132812 533.428710938 378.571289062 542.571289062 379.142578125 c 0
 559.713867188 380 576.286132812 384 593.713867188 382.571289062 c 0
 613.142578125 381.142578125 631.713867188 375.428710938 648.857421875 367.142578125 c 1
 657.713867188 391.713867188 654 421.428710938 634.286132812 442.286132812 c 2
EndSplineSet
EndChar

StartChar: Atilde
Encoding: 195 195 51
Width: 1000
Flags: H
LayerCount: 2
Fore
SplineSet
865.142578125 34.2861328125 m 1
 865.428710938 34.2861328125 l 2
 872.571289062 23.7138671875 865.428710938 14.2861328125 856 11.142578125 c 0
 853.713867188 5.7138671875 848.571289062 1.7138671875 840.857421875 2.2861328125 c 0
 627.713867188 15.7138671875 414.286132812 14.857421875 201.428710938 -0.2861328125 c 0
 193.713867188 -0.5712890625 189.142578125 2.857421875 186.857421875 8 c 0
 182 12.857421875 180.286132812 19.7138671875 185.142578125 27.142578125 c 0
 295.428710938 188 405.428710938 348.857421875 515.713867188 509.713867188 c 0
 526.857421875 526.286132812 552 512.857421875 546.857421875 496.571289062 c 0
 652.857421875 342.571289062 759.142578125 188.286132812 865.142578125 34.2861328125 c 1
EndSplineSet
EndChar

StartChar: Adieresis
Encoding: 196 196 52
Width: 1000
Flags: H
LayerCount: 2
Fore
SplineSet
742.857421875 478.571289062 m 2
 743.142578125 478 l 2
 782 416.857421875 790.571289062 345.428710938 782 275.428710938 c 0
 773.713867188 206.857421875 755.142578125 134 710 78.2861328125 c 0
 671.428710938 30.5712890625 608.857421875 -4.2861328125 543.713867188 3.142578125 c 0
 504.857421875 7.7138671875 468.857421875 31.142578125 457.713867188 63.7138671875 c 1
 447.428710938 53.4287109375 437.142578125 43.142578125 427.428710938 33.4287109375 c 0
 380.857421875 -13.142578125 330.286132812 -56.5712890625 276.857421875 -96.2861328125 c 0
 260.286132812 -108.571289062 236.571289062 -86.5712890625 253.428710938 -74 c 0
 297.142578125 -41.4287109375 339.428710938 -6.2861328125 379.142578125 31.142578125 c 1
 373.428710938 30.5712890625 367.713867188 29.7138671875 362 29.7138671875 c 0
 331.713867188 28.857421875 299.713867188 32.857421875 275.142578125 50.857421875 c 0
 252.857421875 67.142578125 240 92 231.428710938 116.857421875 c 0
 194.571289062 223.428710938 252 356.286132812 378.857421875 372.571289062 c 0
 434 379.713867188 491.428710938 361.142578125 526.286132812 319.142578125 c 0
 559.713867188 278.857421875 568 224.857421875 546 178 c 0
 532.571289062 149.428710938 512.286132812 122.857421875 489.713867188 97.7138671875 c 0
 476.857421875 52.2861328125 532.286132812 31.142578125 572.286132812 34.857421875 c 0
 608.286132812 38 641.142578125 55.7138671875 666.571289062 79.7138671875 c 0
 715.713867188 126 734.857421875 194 745.713867188 257.142578125 c 0
 766.571289062 379.142578125 726 490.857421875 613.428710938 558.857421875 c 0
 563.428710938 588.857421875 497.142578125 611.142578125 432.286132812 614.286132812 c 0
 395.713867188 568 368.286132812 512.571289062 307.428710938 491.713867188 c 0
 260.857421875 475.713867188 193.713867188 504 223.713867188 558.286132812 c 0
 253.713867188 612.571289062 333.713867188 638.857421875 393.713867188 644.286132812 c 0
 401.142578125 644.857421875 408.857421875 645.428710938 416.571289062 645.428710938 c 0
 438.857421875 671.428710938 465.142578125 693.142578125 500 704.571289062 c 0
 593.713867188 734.857421875 692 679.428710938 714.571289062 590 c 0
 719.428710938 570.286132812 687.428710938 562 682.571289062 581.713867188 c 0
 659.142578125 674.571289062 540 714.571289062 463.142578125 648 c 0
 461.713867188 646.571289062 460.286132812 645.142578125 458.857421875 643.713867188 c 1
 572.286132812 632.571289062 684.857421875 569.713867188 742.857421875 478.571289062 c 2
342.857421875 552.286132812 m 2
 343.142578125 552.571289062 l 2
 362 571.142578125 376.286132812 592.857421875 391.713867188 614 c 1
 344 609.428710938 298.857421875 592.571289062 264.571289062 558 c 0
 252.857421875 551.142578125 251.428710938 542.857421875 260 532.571289062 c 0
 259.142578125 519.428710938 264.571289062 514.857421875 276 518.286132812 c 0
 286.571289062 516 297.428710938 521.428710938 306.571289062 525.713867188 c 0
 320.286132812 532.286132812 332.286132812 541.713867188 342.857421875 552.286132812 c 2
418.571289062 342.286132812 m 2
 418.571289062 342.571289062 l 2
 350.571289062 350.286132812 296 311.428710938 269.713867188 258.286132812 c 1
 303.428710938 275.142578125 346.571289062 275.142578125 382.857421875 258.571289062 c 0
 426.857421875 238.571289062 470.571289062 188.857421875 479.713867188 139.428710938 c 1
 482.286132812 142.571289062 485.142578125 145.428710938 487.713867188 148.571289062 c 0
 516 184 535.428710938 223.713867188 518.857421875 268 c 0
 503.428710938 308.857421875 464.286132812 337.142578125 418.571289062 342.286132812 c 2
448 110.571289062 m 2
 448.286132812 110.571289062 l 2
 457.428710938 152.857421875 412.286132812 206.286132812 376.286132812 226.286132812 c 0
 333.142578125 250 275.713867188 243.428710938 254.286132812 197.428710938 c 0
 253.713867188 196.571289062 253.142578125 196.286132812 252.857421875 195.713867188 c 0
 252.857421875 189.142578125 252.571289062 182.857421875 252.857421875 176.286132812 c 0
 255.428710938 130.571289062 273.713867188 72.5712890625 328.286132812 63.142578125 c 0
 357.713867188 58.2861328125 402 60.857421875 428 80.5712890625 c 0
 432.857421875 85.7138671875 437.428710938 90.5712890625 442 95.7138671875 c 0
 444.571289062 100 446.857421875 105.142578125 448 110.571289062 c 2
EndSplineSet
EndChar

StartChar: Aring
Encoding: 197 197 53
Width: 1000
Flags: H
LayerCount: 2
Fore
SplineSet
789.428710938 314.571289062 m 2
 789.713867188 314.286132812 l 2
 811.428710938 205.428710938 767.142578125 91.7138671875 668.571289062 35.7138671875 c 0
 596.857421875 -5.142578125 481.428710938 -16 419.142578125 45.7138671875 c 0
 355.428710938 -2.857421875 285.713867188 -44.5712890625 216.286132812 -79.7138671875 c 0
 197.713867188 -88.857421875 181.713867188 -61.142578125 200 -52 c 0
 252.286132812 -25.7138671875 302.286132812 4.2861328125 350.286132812 37.4287109375 c 1
 337.428710938 34 324 33.142578125 310.286132812 34.5712890625 c 0
 252 41.142578125 214.571289062 92.857421875 204.286132812 147.428710938 c 0
 193.142578125 205.713867188 209.713867188 266.286132812 250.286132812 310 c 0
 291.713867188 354.571289062 349.428710938 372.571289062 409.142578125 370.857421875 c 0
 465.428710938 369.142578125 535.713867188 361.428710938 570 310.571289062 c 0
 605.428710938 257.713867188 574.857421875 193.142578125 536.571289062 151.428710938 c 0
 508.571289062 120.857421875 477.428710938 92.5712890625 444.571289062 66 c 1
 492.857421875 22.2861328125 578 28.5712890625 634 54 c 0
 701.713867188 84.857421875 750.286132812 149.428710938 761.142578125 223.142578125 c 0
 771.713867188 295.142578125 746.286132812 374.857421875 706.857421875 434.857421875 c 0
 665.142578125 498 598.857421875 518.286132812 525.713867188 517.428710938 c 0
 459.713867188 516.571289062 210.857421875 461.428710938 245.713867188 602.571289062 c 0
 276.857421875 728 453.713867188 722 551.428710938 709.428710938 c 0
 607.142578125 702.286132812 664.286132812 683.142578125 701.142578125 638.571289062 c 0
 734.857421875 597.713867188 742.286132812 541.142578125 715.142578125 495.142578125 c 0
 714.286132812 493.713867188 713.142578125 493.142578125 712 492.286132812 c 0
 711.713867188 490.286132812 711.428710938 488.286132812 710.286132812 486.286132812 c 2
 707.713867188 483.142578125 l 2
 707.428710938 482.857421875 706.857421875 482.571289062 706.571289062 482.571289062 c 1
 749.713867188 438.857421875 776.857421875 378.571289062 789.428710938 314.571289062 c 2
367.428710938 538.857421875 m 0
 437.713867188 539.142578125 507.142578125 555.713867188 577.428710938 546.857421875 c 0
 618.571289062 541.713867188 653.142578125 526.286132812 682.286132812 504 c 1
 682.286132812 504.571289062 682.286132812 504.857421875 682.286132812 505.142578125 c 0
 683.142578125 506 684 507.142578125 684.857421875 508.286132812 c 0
 685.428710938 508.857421875 686 508.857421875 686.286132812 509.142578125 c 0
 686.571289062 510 686.571289062 510.857421875 687.142578125 511.713867188 c 0
 736.286132812 595.428710938 641.713867188 660.571289062 569.713867188 674.571289062 c 0
 497.713867188 688.571289062 399.713867188 696 333.142578125 659.428710938 c 0
 304.571289062 643.713867188 257.428710938 600.857421875 279.142578125 563.713867188 c 0
 294.857421875 536.857421875 341.142578125 538.857421875 367.428710938 538.857421875 c 0
403.713867188 125.428710938 m 1
 403.713867188 125.142578125 l 1
 419.713867188 168.571289062 402.857421875 217.142578125 369.142578125 247.428710938 c 0
 334.857421875 278.286132812 274.857421875 288.857421875 249.142578125 241.713867188 c 0
 247.142578125 238 244.286132812 236 241.142578125 234.857421875 c 0
 236.857421875 222.857421875 234 210.286132812 232.857421875 197.428710938 c 0
 229.142578125 152.857421875 244.286132812 95.7138671875 287.428710938 74 c 0
 333.428710938 50.857421875 386.857421875 79.7138671875 403.713867188 125.428710938 c 1
423.142578125 93.142578125 m 1
 423.428710938 93.4287109375 l 1
 423.428710938 93.4287109375 l 1
 440 106.857421875 456.857421875 120.571289062 472.857421875 135.142578125 c 0
 508.286132812 167.142578125 554.286132812 206.286132812 553.142578125 258.857421875 c 0
 552 316.571289062 489.713867188 332 442.857421875 336.857421875 c 0
 394 342 344.286132812 340.857421875 302 313.142578125 c 0
 298 310.571289062 294.286132812 307.428710938 290.571289062 304.571289062 c 1
 321.142578125 308.571289062 354.571289062 299.428710938 380.286132812 280 c 0
 429.428710938 242.857421875 455.713867188 176.286132812 434.857421875 116.857421875 c 0
 431.713867188 108.286132812 427.713867188 100.571289062 423.142578125 93.142578125 c 1
EndSplineSet
EndChar

StartChar: AE
Encoding: 198 198 54
Width: 1000
Flags: H
LayerCount: 2
Fore
SplineSet
798.857421875 -131.428710938 m 2
 798.857421875 -132.571289062 l 2
 804.571289062 -158.286132812 788.571289062 -186.857421875 762.286132812 -191.713867188 c 0
 732.286132812 -197.142578125 712.286132812 -170.286132812 708.571289062 -143.428710938 c 0
 707.142578125 -133.713867188 706.857421875 -123.713867188 706.857421875 -113.713867188 c 1
 699.713867188 -114 692.286132812 -114.286132812 685.142578125 -114.857421875 c 0
 616.286132812 -120.857421875 553.428710938 -153.142578125 489.142578125 -176.286132812 c 0
 390.286132812 -211.713867188 260.571289062 -222.571289062 197.713867188 -118.857421875 c 0
 185.713867188 -98.857421875 216.571289062 -80.857421875 228.571289062 -100.571289062 c 0
 282.571289062 -189.428710938 397.428710938 -170.857421875 479.428710938 -141.428710938 c 0
 552.857421875 -114.857421875 629.142578125 -75.4287109375 708.857421875 -78.2861328125 c 0
 710.857421875 -59.7138671875 713.428710938 -41.4287109375 715.713867188 -23.4287109375 c 1
 557.428710938 -74.857421875 330 -67.142578125 228 80.2861328125 c 0
 136.571289062 212.571289062 205.142578125 388 332 465.428710938 c 0
 403.428710938 509.142578125 490.286132812 523.713867188 572.571289062 515.428710938 c 0
 644.286132812 508.286132812 715.428710938 487.428710938 757.142578125 423.142578125 c 0
 796.571289062 362.571289062 797.428710938 285.713867188 767.142578125 221.142578125 c 0
 737.142578125 156.571289062 671.142578125 94.857421875 596.571289062 97.4287109375 c 0
 536.857421875 99.7138671875 478.286132812 156.857421875 496.571289062 220 c 0
 500 231.713867188 505.142578125 241.428710938 511.142578125 250 c 1
 361.142578125 246.857421875 l 2
 338 246.286132812 338.286132812 282.571289062 361.142578125 283.142578125 c 0
 430 284.857421875 498.571289062 286.286132812 567.142578125 287.713867188 c 0
 601.142578125 297.713867188 640.857421875 295.713867188 673.713867188 289.428710938 c 0
 694 285.713867188 688.286132812 254.286132812 668.857421875 254 c 0
 636.286132812 253.428710938 603.428710938 252.857421875 570.857421875 252 c 0
 561.713867188 248 553.428710938 242.571289062 546 235.142578125 c 0
 514.857421875 203.428710938 532.286132812 158.857421875 568.571289062 141.142578125 c 0
 636.571289062 108.286132812 710.571289062 183.713867188 736.286132812 240.286132812 c 0
 761.142578125 295.142578125 758.286132812 360.286132812 723.428710938 410 c 0
 685.428710938 464 616 478 554.571289062 481.713867188 c 0
 434.286132812 489.142578125 306.571289062 440.571289062 248 327.713867188 c 0
 187.142578125 210.857421875 238 78 352.857421875 22.857421875 c 0
 465.713867188 -31.4287109375 617.142578125 -22.2861328125 731.428710938 21.4287109375 c 0
 741.713867188 25.4287109375 754.857421875 15.142578125 754 4 c 0
 751.713867188 -24.5712890625 748.857421875 -53.142578125 746.571289062 -82 c 0
 770.857421875 -89.142578125 792.857421875 -104.571289062 798.857421875 -131.428710938 c 2
EndSplineSet
EndChar

StartChar: Ccedilla
Encoding: 199 199 55
Width: 1000
Flags: H
LayerCount: 2
Fore
SplineSet
770.571289062 379.142578125 m 0
 794.286132812 267.713867188 785.142578125 118 688 39.7138671875 c 0
 618.857421875 -16 507.713867188 -13.4287109375 458.286132812 56 c 1
 408.286132812 -8.2861328125 347.142578125 -65.4287109375 280 -112 c 0
 261.713867188 -124.571289062 244.286132812 -95.4287109375 262.286132812 -82.857421875 c 0
 305.713867188 -52.2861328125 345.713867188 -17.142578125 382 21.142578125 c 1
 372.571289062 18 362.857421875 15.7138671875 352.857421875 14.857421875 c 0
 301.142578125 10.5712890625 250.571289062 41.7138671875 229.713867188 87.4287109375 c 0
 205.428710938 140.857421875 225.142578125 202.857421875 253.713867188 250.857421875 c 0
 282 298.571289062 327.142578125 339.713867188 384.286132812 351.428710938 c 0
 436.286132812 362 491.713867188 346.571289062 524 304.571289062 c 0
 560.857421875 256.571289062 545.428710938 197.428710938 519.142578125 148.571289062 c 0
 507.428710938 126.857421875 494.286132812 106.286132812 480.286132812 86 c 0
 521.428710938 3.142578125 646 30 696.571289062 97.7138671875 c 0
 752 172 755.428710938 283.428710938 737.142578125 370.286132812 c 0
 719.428710938 455.142578125 660.571289062 514.571289062 567.428710938 510.571289062 c 0
 485.142578125 507.142578125 405.428710938 465.428710938 322.286132812 480.571289062 c 0
 260 491.713867188 234.571289062 542.857421875 259.142578125 598.857421875 c 0
 284 654.857421875 340.571289062 693.428710938 400.571289062 707.713867188 c 0
 472.857421875 724.857421875 554.857421875 710.857421875 622 681.142578125 c 0
 670.571289062 659.713867188 715.713867188 614.571289062 691.142578125 559.713867188 c 0
 684.857421875 545.713867188 675.142578125 534.857421875 664 526.571289062 c 1
 673.428710938 522.286132812 682.857421875 517.142578125 691.428710938 510.857421875 c 0
 734.571289062 479.142578125 759.713867188 429.713867188 770.571289062 379.142578125 c 0
515.428710938 538.286132812 m 0
 522.571289062 539.428710938 529.713867188 540.571289062 536.857421875 541.428710938 c 1
 503.713867188 577.428710938 504 631.713867188 528 674.571289062 c 1
 490.571289062 682.286132812 452 684.571289062 414.571289062 676.571289062 c 0
 380.571289062 669.142578125 348.571289062 654 323.428710938 630.571289062 c 0
 298 606.857421875 260.286132812 550 300.857421875 523.142578125 c 0
 332.286132812 502.571289062 384 511.428710938 418.286132812 517.713867188 c 0
 450.857421875 523.428710938 482.857421875 532.571289062 515.428710938 538.286132812 c 0
608.571289062 542.286132812 m 2
 608.857421875 542 l 2
 651.713867188 541.428710938 681.142578125 590.286132812 647.428710938 625.142578125 c 0
 627.428710938 645.713867188 596.857421875 656.857421875 567.713867188 664.857421875 c 0
 565.713867188 660.857421875 562.571289062 657.713867188 557.713867188 656.286132812 c 1
 557.713867188 656.286132812 l 1
 536.857421875 617.428710938 540.571289062 562.571289062 589.713867188 545.428710938 c 0
 593.713867188 544.286132812 597.428710938 543.428710938 601.428710938 542.857421875 c 0
 603.713867188 542.857421875 606.286132812 542.571289062 608.571289062 542.286132812 c 2
426.571289062 105.713867188 m 0
 439.142578125 144.286132812 420.286132812 187.428710938 382.571289062 204.571289062 c 0
 338.857421875 224.571289062 289.428710938 206 264 168.286132812 c 0
 261.713867188 164.571289062 258.571289062 162.857421875 255.428710938 161.713867188 c 0
 254.286132812 153.713867188 253.713867188 145.713867188 253.713867188 138 c 0
 254.286132812 96.5712890625 282.857421875 58.857421875 325.428710938 49.7138671875 c 0
 367.713867188 40.857421875 413.428710938 65.7138671875 426.571289062 105.713867188 c 0
466.286132812 127.713867188 m 2
 489.142578125 163.428710938 518.286132812 208 510.286132812 252 c 0
 502.857421875 294 460.286132812 320.571289062 418.286132812 321.142578125 c 0
 359.428710938 321.713867188 307.428710938 279.142578125 278.286132812 226.857421875 c 1
 311.142578125 246.571289062 351.428710938 252.857421875 390 238 c 0
 438 220 466.571289062 174.286132812 464.857421875 126 c 1
 465.428710938 126.571289062 466.286132812 127.713867188 466.286132812 127.713867188 c 2
EndSplineSet
EndChar

StartChar: Egrave
Encoding: 200 200 56
Width: 1000
Flags: H
LayerCount: 2
Fore
SplineSet
772.571289062 -8.2861328125 m 1
 772 -8.2861328125 l 1
 788 -79.7138671875 735.428710938 -130.571289062 679.142578125 -163.713867188 c 0
 624.286132812 -196 557.713867188 -214 497.142578125 -187.142578125 c 0
 448.286132812 -165.428710938 413.713867188 -110.286132812 428 -56 c 0
 429.713867188 -50.5712890625 431.713867188 -45.142578125 434.286132812 -40 c 1
 367.142578125 -40.857421875 301.428710938 -26.2861328125 255.428710938 30 c 0
 202 95.7138671875 195.142578125 191.713867188 239.713867188 263.713867188 c 0
 261.713867188 299.142578125 294.286132812 328.571289062 331.713867188 347.142578125 c 0
 353.713867188 358 376.857421875 365.428710938 400.857421875 368.857421875 c 0
 428.571289062 372.857421875 458.857421875 370 485.428710938 380 c 0
 521.142578125 393.713867188 534.571289062 431.142578125 503.428710938 459.142578125 c 0
 481.713867188 478.286132812 448.286132812 482 420.571289062 482 c 0
 408.286132812 482 394.286132812 480.857421875 381.142578125 477.428710938 c 1
 393.713867188 473.428710938 405.142578125 465.428710938 412.857421875 451.713867188 c 0
 435.142578125 411.713867188 402.857421875 362.286132812 358 364.571289062 c 0
 320 366.571289062 297.428710938 403.428710938 301.428710938 438.857421875 c 0
 252.857421875 474.286132812 228.571289062 536.571289062 246.571289062 595.428710938 c 0
 263.428710938 650.857421875 309.142578125 684.286132812 363.142578125 699.142578125 c 0
 417.713867188 714 486 728 536.286132812 695.142578125 c 0
 582.571289062 664.571289062 622.857421875 608 624.571289062 551.142578125 c 0
 626 504.286132812 596 461.142578125 551.428710938 449.713867188 c 1
 564.286132812 414.286132812 551.142578125 376.286132812 516.571289062 356 c 0
 466.286132812 326 402.571289062 342.857421875 349.713867188 316.857421875 c 0
 294.571289062 289.713867188 250.857421875 236.571289062 245.713867188 174 c 0
 241.142578125 118.571289062 264.571289062 58.5712890625 310.571289062 26 c 0
 356.286132812 -6.5712890625 412.571289062 -9.142578125 467.428710938 -3.7138671875 c 0
 490 10.5712890625 518.286132812 15.7138671875 544.571289062 5.7138671875 c 0
 558.857421875 0.2861328125 563.428710938 -25.142578125 544.571289062 -28.2861328125 c 0
 524.286132812 -31.4287109375 503.428710938 -34.5712890625 482 -36.857421875 c 0
 466 -50.2861328125 457.142578125 -73.142578125 462.571289062 -97.142578125 c 0
 472 -138.571289062 511.428710938 -162 551.428710938 -164.857421875 c 0
 622 -170.286132812 758.286132812 -104.571289062 738.857421875 -17.7138671875 c 0
 734 4.5712890625 767.713867188 13.7138671875 772.571289062 -8.2861328125 c 1
382.571289062 411.142578125 m 2
 382.857421875 411.142578125 l 2
 400.286132812 442 354.571289062 458.286132812 340.857421875 427.142578125 c 0
 340.286132812 425.713867188 339.428710938 425.142578125 338.571289062 424 c 0
 344 402 367.428710938 384.571289062 382.571289062 411.142578125 c 2
415.713867188 517.142578125 m 0
 456.286132812 517.713867188 503.713867188 510.286132812 532.857421875 479.713867188 c 0
 535.142578125 480.857421875 537.428710938 481.713867188 540.286132812 482 c 0
 564.857421875 485.142578125 582.286132812 508 588 530.857421875 c 0
 594.571289062 557.142578125 585.142578125 584.571289062 571.713867188 607.142578125 c 0
 557.428710938 631.142578125 536.571289062 655.142578125 512 668.857421875 c 0
 484.857421875 684 454 680.571289062 424.571289062 675.713867188 c 0
 372.571289062 667.428710938 314.571289062 655.142578125 288 603.713867188 c 0
 264.571289062 558.571289062 277.428710938 504.571289062 315.142578125 472.571289062 c 1
 336.857421875 504 378.857421875 516.571289062 415.713867188 517.142578125 c 0
EndSplineSet
EndChar

StartChar: Eacute
Encoding: 201 201 57
Width: 1000
Flags: H
LayerCount: 2
Fore
SplineSet
817.142578125 596 m 1
 816.857421875 596.286132812 l 1
 830 576 797.713867188 557.428710938 784.571289062 577.428710938 c 0
 725.142578125 667.713867188 607.142578125 703.142578125 509.713867188 653.713867188 c 0
 505.713867188 651.713867188 502.571289062 649.142578125 498.857421875 646.857421875 c 1
 516.571289062 643.713867188 534 639.428710938 550 634 c 0
 703.142578125 583.142578125 797.713867188 427.713867188 774.571289062 268 c 0
 750.857421875 105.428710938 593.428710938 -30 425.428710938 6.2861328125 c 0
 355.713867188 21.4287109375 294.286132812 71.4287109375 284.286132812 144.571289062 c 0
 279.142578125 181.428710938 287.713867188 216 305.713867188 244.857421875 c 1
 272.857421875 232 240.286132812 217.713867188 208.571289062 202 c 0
 187.142578125 191.428710938 168.286132812 223.713867188 189.713867188 234.286132812 c 0
 234.286132812 256.571289062 280.571289062 276.286132812 327.713867188 292.857421875 c 0
 338.857421875 296.857421875 350.571289062 300.286132812 362 304 c 1
 346 304.571289062 330.571289062 313.142578125 322.286132812 328.571289062 c 0
 317.142578125 338.286132812 315.713867188 349.142578125 316.571289062 359.713867188 c 0
 308.286132812 366 304.286132812 378 313.713867188 387.428710938 c 0
 321.713867188 395.142578125 331.428710938 400.571289062 341.713867188 403.428710938 c 0
 384 434.571289062 449.713867188 417.142578125 483.142578125 381.142578125 c 0
 501.142578125 361.713867188 515.142578125 328.571289062 492.857421875 306.857421875 c 0
 481.428710938 295.713867188 464 294 449.428710938 290.571289062 c 0
 436.286132812 287.428710938 423.142578125 283.713867188 410 280 c 0
 409.142578125 279.428710938 408.571289062 278.857421875 407.428710938 278.571289062 c 0
 320.571289062 252.857421875 289.713867188 143.142578125 358.571289062 80 c 0
 417.713867188 25.4287109375 513.713867188 29.7138671875 582.571289062 61.4287109375 c 0
 714.857421875 122.286132812 769.428710938 279.713867188 724.857421875 414 c 0
 686 530.857421875 576.571289062 608 456.571289062 614 c 0
 440 596.857421875 425.713867188 577.142578125 412 555.428710938 c 0
 392.286132812 524.286132812 363.428710938 493.713867188 322.857421875 499.713867188 c 0
 294.571289062 503.713867188 275.713867188 527.713867188 275.142578125 555.713867188 c 0
 274.857421875 589.142578125 297.713867188 615.142578125 326.571289062 629.142578125 c 0
 361.428710938 646 402 652.857421875 442.571289062 652.286132812 c 0
 464.857421875 671.428710938 490.286132812 687.142578125 518.857421875 698 c 0
 629.713867188 740 753.142578125 693.713867188 817.142578125 596 c 1
402.857421875 381.428710938 m 1
 417.142578125 359.142578125 413.428710938 329.142578125 391.428710938 313.142578125 c 1
 411.428710938 318.857421875 431.713867188 324.286132812 452 329.142578125 c 0
 458.571289062 330.571289062 466.571289062 330 466.571289062 337.142578125 c 0
 466.571289062 344.571289062 458.286132812 352.857421875 453.713867188 357.428710938 c 0
 441.142578125 369.713867188 425.142578125 377.713867188 408 380.857421875 c 0
 406.571289062 381.428710938 404.571289062 381.428710938 402.857421875 381.428710938 c 1
356.571289062 343.713867188 m 0
 364.857421875 334.571289062 377.142578125 346.571289062 374.286132812 356.286132812 c 0
 371.713867188 365.142578125 365.428710938 368.286132812 358.286132812 368.286132812 c 0
 352.857421875 361.142578125 350 350.857421875 356.571289062 343.713867188 c 0
365.142578125 553.428710938 m 0
 375.428710938 564.286132812 382 578.571289062 390 591.142578125 c 0
 394.857421875 598.571289062 400.286132812 605.142578125 405.428710938 612 c 1
 372.857421875 608.286132812 315.142578125 597.713867188 313.428710938 561.713867188 c 0
 311.428710938 521.713867188 350.286132812 538 365.142578125 553.428710938 c 0
EndSplineSet
EndChar

StartChar: Ecircumflex
Encoding: 202 202 58
Width: 1000
Flags: H
LayerCount: 2
Fore
SplineSet
680 352.286132812 m 1
 679.428710938 352.286132812 l 1
 781.428710938 271.142578125 772.857421875 107.142578125 661.713867188 38 c 0
 600 -0.2861328125 513.428710938 -5.142578125 443.428710938 4.2861328125 c 0
 374.571289062 13.7138671875 308 45.7138671875 267.142578125 104.286132812 c 0
 230 157.713867188 221.713867188 233.428710938 256.286132812 290.286132812 c 0
 277.713867188 325.428710938 310.857421875 346.857421875 347.428710938 361.142578125 c 1
 312.286132812 368.286132812 290.286132812 402.286132812 295.713867188 438.571289062 c 0
 297.142578125 448 300 456.286132812 304 464 c 0
 303.142578125 472.857421875 308 482.857421875 318.857421875 484.571289062 c 0
 334.286132812 500.286132812 355.428710938 510.571289062 378.286132812 514 c 0
 414 519.428710938 458.286132812 505.428710938 485.142578125 479.142578125 c 1
 491.713867188 520 492.571289062 561.428710938 490.286132812 602.857421875 c 0
 489.428710938 616.286132812 489.713867188 631.428710938 487.428710938 645.713867188 c 0
 473.713867188 645.428710938 460 644.857421875 446.286132812 644.857421875 c 0
 438.857421875 644.571289062 433.142578125 649.142578125 430.571289062 655.428710938 c 0
 427.713867188 657.142578125 425.142578125 660 424 664.286132812 c 0
 415.713867188 692.571289062 441.428710938 719.142578125 469.142578125 715.713867188 c 0
 490 713.142578125 504 698.857421875 512.286132812 680.857421875 c 0
 530.857421875 681.428710938 554.571289062 684.857421875 569.142578125 670.857421875 c 0
 586 654.571289062 578.857421875 630.286132812 566.571289062 613.713867188 c 0
 555.713867188 599.428710938 542.286132812 587.428710938 526.571289062 578.857421875 c 0
 527.142578125 555.713867188 526.286132812 532 524 508.857421875 c 1
 572 585.713867188 632 654.571289062 701.713867188 712 c 0
 718.857421875 726 743.142578125 701.428710938 726 687.428710938 c 0
 667.713867188 639.428710938 616.571289062 583.713867188 573.713867188 521.713867188 c 1
 591.142578125 524.857421875 609.428710938 524 626.286132812 516.857421875 c 0
 689.713867188 489.713867188 706.571289062 411.428710938 671.142578125 358.571289062 c 0
 674 356.286132812 677.142578125 354.571289062 680 352.286132812 c 1
530.571289062 451.713867188 m 0
 523.428710938 437.428710938 520.857421875 418.286132812 530.571289062 404.857421875 c 0
 542.286132812 388.857421875 570.286132812 394.857421875 587.713867188 392.571289062 c 0
 606.286132812 390 624.286132812 384.286132812 641.142578125 376.286132812 c 0
 661.713867188 405.142578125 661.713867188 443.713867188 633.428710938 470.857421875 c 0
 604 499.142578125 557.428710938 492.571289062 534.571289062 458.857421875 c 0
 533.428710938 456.571289062 532 454 530.571289062 451.713867188 c 0
538.286132812 646.286132812 m 1
 538.857421875 646.571289062 l 1
 534.857421875 646.571289062 530.857421875 646.571289062 526.857421875 646.571289062 c 0
 525.428710938 646.571289062 523.713867188 646.571289062 522.286132812 646.571289062 c 1
 523.428710938 637.428710938 524.571289062 628.571289062 525.428710938 619.428710938 c 1
 529.713867188 623.142578125 534 627.142578125 538.286132812 632.286132812 c 0
 540.286132812 634.571289062 538.286132812 632 540 634.571289062 c 0
 540.857421875 636 542 637.428710938 542.857421875 638.857421875 c 0
 543.428710938 640.286132812 544.286132812 641.428710938 544.857421875 642.857421875 c 0
 544.857421875 643.428710938 545.713867188 645.713867188 545.713867188 646 c 1
 545.713867188 646 l 1
 545.428710938 646 545.142578125 646 545.142578125 646 c 2
 544 646.286132812 543.713867188 646.286132812 543.713867188 646.286132812 c 2
 543.142578125 646.286132812 543.428710938 646.286132812 543.142578125 646.286132812 c 0
 541.428710938 646.286132812 540 646.286132812 538.286132812 646.286132812 c 1
461.142578125 456.286132812 m 1
 461.142578125 456 l 1
 441.713867188 477.428710938 408 484.286132812 379.428710938 478.286132812 c 1
 400.857421875 470.857421875 418.286132812 456 421.713867188 429.142578125 c 0
 424.286132812 408.571289062 416.857421875 390 403.713867188 376.857421875 c 1
 409.713867188 378.286132812 415.713867188 379.428710938 421.428710938 380.571289062 c 0
 439.713867188 384 462.571289062 387.428710938 471.142578125 406.571289062 c 0
 478.571289062 423.428710938 472.857421875 443.428710938 461.142578125 456.286132812 c 1
330 427.142578125 m 2
 330.286132812 426.857421875 l 2
 330.286132812 408.286132812 345.142578125 391.142578125 364.571289062 393.428710938 c 0
 386.286132812 396 395.428710938 422.857421875 381.142578125 438.571289062 c 0
 370.571289062 450.286132812 353.142578125 451.713867188 337.428710938 450.857421875 c 0
 332.857421875 444 330 436 330 427.142578125 c 2
665.428710938 83.142578125 m 0
 728.857421875 140.857421875 737.713867188 242.571289062 678.857421875 306.571289062 c 0
 669.428710938 316.857421875 659.142578125 325.713867188 647.713867188 333.142578125 c 0
 634.571289062 324.857421875 618.857421875 336.286132812 619.428710938 348 c 0
 603.142578125 354.571289062 585.713867188 358.857421875 567.713867188 359.428710938 c 0
 539.428710938 360.286132812 514.571289062 366.286132812 500.857421875 388.857421875 c 1
 482.286132812 352.857421875 441.142578125 350 406 342.286132812 c 0
 363.428710938 332.857421875 317.142578125 316 290.857421875 278.571289062 c 0
 232.286132812 194.857421875 298.571289062 93.7138671875 377.713867188 58 c 0
 424.571289062 36.5712890625 477.428710938 32.857421875 528 36.5712890625 c 0
 576.286132812 40 628.286132812 49.142578125 665.428710938 83.142578125 c 0
EndSplineSet
EndChar

